STARTFONT 2.1
COMMENT
COMMENT Converted from OpenType font "manrope-regular.otf" by "otf2bdf 3.0".
COMMENT
FONT -FreeType-Manrope-Medium-R-Normal--94-680-100-100-P-419-ISO10646-1
SIZE 68 100 100
FONTBOUNDINGBOX 90 118 -3 -24
STARTPROPERTIES 19
FOUNDRY "FreeType"
FAMILY_NAME "Manrope"
WEIGHT_NAME "Medium"
SLANT "R"
SETWIDTH_NAME "Normal"
ADD_STYLE_NAME ""
PIXEL_SIZE 94
POINT_SIZE 680
RESOLUTION_X 100
RESOLUTION_Y 100
SPACING "P"
AVERAGE_WIDTH 419
CHARSET_REGISTRY "ISO10646"
CHARSET_ENCODING "1"
FONT_ASCENT 100
FONT_DESCENT 28
COPYRIGHT "Copyright 2019-2021 The Manrope Project Authors (https://github.com/sharanda/manrope)"
_OTF_FONTFILE "manrope-regular.otf"
_OTF_PSNAME "Manrope-Regular"
ENDPROPERTIES
CHARS 191
STARTCHAR 0020
ENCODING 32
SWIDTH 201 0
DWIDTH 19 0
BBX 0 0 0 0
BITMAP
ENDCHAR
STARTCHAR 0021
ENCODING 33
SWIDTH 317 0
DWIDTH 30 0
BBX 7 68 11 0
BITMAP
FE
FE
FE
FE
FE
FE
FE
FE
FE
FE
FE
FE
FE
FE
FE
FE
FE
FE
FE
FE
FE
FE
FE
FE
FE
FE
FE
FE
FE
FE
FE
FE
FE
FE
FE
FE
FE
FE
FE
FE
FE
FE
FE
FE
FE
FE
FE
FE
FE
FE
FE
00
00
00
00
00
00
00
00
00
FE
FE
FE
FE
FE
FE
FE
FE
ENDCHAR
STARTCHAR 0022
ENCODING 34
SWIDTH 391 0
DWIDTH 37 0
BBX 22 17 6 51
BITMAP
FE01FC
FE01FC
FE01FC
FE01FC
FE01FC
FE01FC
FE01FC
FE01FC
FE01FC
FE01FC
FE01FC
FE01FC
FE01FC
FE01FC
FE01FC
FE01FC
FE01FC
ENDCHAR
STARTCHAR 0023
ENCODING 35
SWIDTH 921 0
DWIDTH 87 0
BBX 75 68 6 0
BITMAP
00000001FC0003F80000
00000001FC0003F80000
00000001FC0003F80000
00000001FC0007F00000
00000003F80007F00000
00000003F80007F00000
00000003F80007E00000
00000003F8000FE00000
00000007F0000FE00000
00000007F0000FE00000
00000007F0001FC00000
00000007E0001FC00000
0000000FE0001FC00000
0000000FE0001FC00000
0000000FE0003F800000
0000001FC0003F800000
0000001FC0003F800000
0000001FC0003F000000
0000001FC0007F000000
01FFFFFFFFFFFFFFFFE0
01FFFFFFFFFFFFFFFFE0
01FFFFFFFFFFFFFFFFE0
03FFFFFFFFFFFFFFFFC0
03FFFFFFFFFFFFFFFFC0
03FFFFFFFFFFFFFFFFC0
03FFFFFFFFFFFFFFFFC0
000000FE0001FC000000
000000FE0001FC000000
000000FE0001FC000000
000000FE0003F8000000
000001FC0003F8000000
000001FC0003F8000000
000001FC0003F0000000
000001FC0007F0000000
000003F80007F0000000
000003F80007F0000000
000003F80007E0000000
000003F0000FE0000000
000007F0000FE0000000
000007F0000FE0000000
000007F0001FC0000000
7FFFFFFFFFFFFFFFF800
7FFFFFFFFFFFFFFFF800
7FFFFFFFFFFFFFFFF800
FFFFFFFFFFFFFFFFF000
FFFFFFFFFFFFFFFFF000
FFFFFFFFFFFFFFFFF000
FFFFFFFFFFFFFFFFF000
00001FC0007F00000000
00003F80007F00000000
00003F80007F00000000
00003F8000FE00000000
00003F0000FE00000000
00007F0000FE00000000
00007F0000FE00000000
00007F0001FC00000000
00007E0001FC00000000
0000FE0001FC00000000
0000FE0001FC00000000
0000FE0003F800000000
0001FC0003F800000000
0001FC0003F800000000
0001FC0003F000000000
0001FC0007F000000000
0003F80007F000000000
0003F80007F000000000
0003F8000FE000000000
0003F0000FE000000000
ENDCHAR
STARTCHAR 0024
ENCODING 36
SWIDTH 592 0
DWIDTH 56 0
BBX 49 86 3 -9
BITMAP
000003F0000000
000003F0000000
000003F0000000
000003F0000000
000003F0000000
000003F0000000
000003F0000000
000003F0000000
00003FFE000000
0001FFFFE00000
000FFFFFF80000
001FFFFFFE0000
007FFFFFFF0000
00FFFFFFFF8000
01FFFFFFFFE000
03FFC001FFE000
03FF00007FF000
07FC00001FF800
0FF800000FFC00
0FF0000007FC00
0FE0000003FE00
1FE0000001FE00
1FC0000000FF00
1FC0000000FF00
1FC00000007F00
1FC00000007F80
1FC00000003F80
1FC00000003F80
1FC00000003000
1FC00000000000
1FE00000000000
1FE00000000000
0FF00000000000
0FF80000000000
07FE0000000000
07FF8000000000
03FFF000000000
01FFFE00000000
00FFFFC0000000
003FFFFC000000
000FFFFF800000
0003FFFFF00000
0000FFFFFE0000
00000FFFFF8000
000001FFFFC000
0000003FFFF000
00000007FFF800
00000000FFFC00
000000001FFE00
0000000007FE00
0000000001FF00
0000000000FF00
00000000007F80
00000000003F80
00000000003F80
00000000003F80
00000000001F80
00000000001F80
7E000000001F80
FF000000001F80
7F000000001F80
7F000000003F80
7F800000003F80
3FC00000003F80
3FC00000007F00
3FE0000000FF00
1FF0000000FF00
0FF8000001FE00
0FFE000007FE00
07FF80001FFC00
03FFE0007FF800
01FFFFFFFFF000
00FFFFFFFFE000
007FFFFFFFC000
001FFFFFFF0000
0007FFFFFE0000
0001FFFFF00000
00001FFF800000
000003F0000000
000003F0000000
000003F0000000
000003F0000000
000003F0000000
000003F0000000
000003F0000000
000003F0000000
ENDCHAR
STARTCHAR 0025
ENCODING 37
SWIDTH 900 0
DWIDTH 85 0
BBX 73 70 6 -1
BITMAP
0007F800000000000000
003FFF00000000004000
00FFFFC000000000E000
03FFFFE000000001F000
07FFFFF000000003F800
0FFFFFF800000007FC00
1FFE1FFC0000000FFC00
1FF003FE0000001FF800
3FC001FE0000003FF000
7F8000FF0000007FE000
7F00007F000000FFC000
7E00003F800001FF8000
FE00003F800003FF0000
FE00001F800007FE0000
FC00001F80000FFC0000
FC00001FC0001FF80000
FC00001FC0003FF00000
FC00001FC0007FE00000
FC00001FC000FFC00000
FC00001F8001FF800000
FE00001F8003FF000000
FE00003F8007FE000000
7F00003F800FFC000000
7F00007F001FF8000000
7F8000FF003FF0000000
3FC001FE007FE0000000
1FF007FE00FFC0000000
1FFC1FFC01FF80000000
0FFFFFF803FF00000000
07FFFFF007FE00000000
03FFFFE00FFC00000000
00FFFFC01FF800000000
003FFF003FF000000000
000FF8007FE000000000
00000000FFC000000000
00000001FF8000000000
00000003FF0007F80000
00000007FE003FFE0000
0000000FFC00FFFF8000
0000001FF803FFFFE000
0000003FF007FFFFF000
0000007FE00FFFFFF800
000000FFC01FFC1FFC00
000001FF803FF007FE00
000003FF003FC001FE00
000007FE007F8000FF00
00000FFC007F00007F00
00001FF800FE00003F80
00003FF000FE00003F80
00007FE000FC00001F80
0000FFC000FC00001F80
0001FF8000FC00001F80
0003FF0001FC00001F80
0007FE0001FC00001F80
000FFC0000FC00001F80
001FF80000FC00001F80
003FF00000FC00001F80
007FE00000FE00003F80
00FFC00000FE00003F80
01FF8000007F00007F00
03FF0000007F8000FF00
07FE0000003FC001FE00
0FFC0000003FF007FE00
1FF80000001FFC1FFC00
1FF00000000FFFFFF800
0FE000000007FFFFF000
07C000000003FFFFE000
038000000000FFFF8000
0100000000007FFE0000
0000000000000FF80000
ENDCHAR
STARTCHAR 0026
ENCODING 38
SWIDTH 656 0
DWIDTH 62 0
BBX 55 70 5 -1
BITMAP
00003FF8000000
0001FFFF000000
000FFFFFE00000
001FFFFFF00000
003FFFFFF80000
00FFFFFFFE0000
00FFFFFFFF0000
01FFC007FF0000
03FF0001FF8000
03FC00007FC000
07F800003FC000
07F800001FC000
0FF000001E0000
0FE00000000000
0FE00000000000
0FE00000000000
0FE00000000000
0FE00000000000
0FE00000000000
0FE00000000000
0FE00000000000
0FE00000000000
0FF00000000000
0FF00000000000
07F80000000000
07FC0000000000
03FC0000000000
01FE0000000000
01FF0000000000
00FF8000000000
007FE000000000
003FF000000000
003FF800000000
00FFFC00000000
01FFFE00000000
03FFFF00000000
0FFFFF80007F00
0FFE7FC0007F00
1FF83FE0007F00
3FF01FF0007F00
3FC00FFC007F00
7F8007FE007F00
7F8003FF007F00
7F0001FF807F00
FF0000FFC07F00
FE00007FE07F00
FE00003FF07F00
FE00000FF87F00
FE000007FC7F00
FE000003FE7F00
FE000001FF7F00
FE000000FFFE00
FE0000007FFE00
FE0000003FFE00
FF0000001FFE00
FF0000000FFE00
7F80000003FE00
7F80000003FF00
3FC0000007FF80
3FE000000FFFC0
1FF000003FFFE0
1FFC00007FFFF0
0FFF8003FFEFFC
07FFFFFFFFC7FE
03FFFFFFFF83FE
01FFFFFFFF01FC
007FFFFFFC00F8
001FFFFFF00070
0007FFFFC00020
00007FFC000000
ENDCHAR
STARTCHAR 0027
ENCODING 39
SWIDTH 211 0
DWIDTH 20 0
BBX 7 17 6 51
BITMAP
FE
FE
FE
FE
FE
FE
FE
FE
FE
FE
FE
FE
FE
FE
FE
FE
FE
ENDCHAR
STARTCHAR 0028
ENCODING 40
SWIDTH 423 0
DWIDTH 40 0
BBX 23 96 13 -17
BITMAP
000060
000070
0000FC
0001FE
0003FC
0003FC
0007F8
000FF0
000FE0
001FE0
003FC0
003F80
007F80
007F00
00FF00
00FE00
01FC00
01FC00
03F800
03F800
07F000
07F000
07F000
0FE000
0FE000
0FC000
1FC000
1FC000
1F8000
1F8000
3F8000
3F8000
3F0000
3F0000
7F0000
7F0000
7F0000
7E0000
7E0000
7E0000
7E0000
FE0000
FE0000
FE0000
FE0000
FE0000
FE0000
FE0000
FE0000
FE0000
FE0000
FE0000
FE0000
FE0000
FE0000
7E0000
7E0000
7E0000
7E0000
7F0000
7F0000
7F0000
3F0000
3F0000
3F8000
3F8000
1F8000
1FC000
1FC000
1FC000
0FE000
0FE000
0FE000
07F000
07F000
03F800
03F800
03FC00
01FC00
01FE00
00FE00
00FF00
007F00
007F80
003FC0
003FC0
001FE0
000FF0
000FF0
0007F8
0003FC
0003FE
0001FC
0000F8
000070
000020
ENDCHAR
STARTCHAR 0029
ENCODING 41
SWIDTH 423 0
DWIDTH 40 0
BBX 23 96 4 -17
BITMAP
0C0000
1E0000
3E0000
FF0000
7F8000
7FC000
3FC000
1FE000
0FF000
0FF000
07F800
03F800
03FC00
01FC00
00FE00
00FE00
007F00
007F00
003F80
003F80
001FC0
001FC0
000FC0
000FE0
000FE0
0007E0
0007F0
0007F0
0003F0
0003F8
0003F8
0001F8
0001F8
0001FC
0001FC
0001FC
0000FC
0000FC
0000FC
0000FE
0000FE
0000FE
0000FE
0000FE
0000FE
00007E
00007E
00007E
00007E
00007E
00007E
0000FE
0000FE
0000FE
0000FE
0000FE
0000FC
0000FC
0000FC
0000FC
0001FC
0001FC
0001FC
0001F8
0003F8
0003F8
0003F8
0003F0
0007F0
0007F0
0007E0
000FE0
000FE0
001FC0
001FC0
001FC0
003F80
003F80
007F00
007F00
00FE00
01FE00
01FC00
03FC00
03F800
07F800
0FF000
0FE000
1FE000
3FC000
7F8000
FF8000
7F0000
3E0000
1C0000
040000
ENDCHAR
STARTCHAR 002A
ENCODING 42
SWIDTH 434 0
DWIDTH 41 0
BBX 32 31 3 37
BITMAP
0007E000
0007E000
0007E000
0007E000
0007E000
0007E000
0007E000
0007E000
2007E002
7C07E01E
7F07E0FE
7FE7E7FF
FFFFFFFF
FFFFFFFF
7FFFFFFF
0FFFFFF0
01FFFF80
003FFC00
001FF800
003FFC00
007FFE00
007FFF00
00FE7F80
01FE3F80
03FC3FC0
03F81FE0
07F80FF0
0FF007F0
07E007E0
01C003C0
00C00100
ENDCHAR
STARTCHAR 002B
ENCODING 43
SWIDTH 571 0
DWIDTH 54 0
BBX 43 44 6 12
BITMAP
00003F000000
00003F000000
00003F000000
00003F000000
00003F000000
00003F000000
00003F000000
00003F000000
00003F000000
00003F000000
00003F000000
00003F000000
00003F000000
00003F000000
00003F000000
00003F000000
00003F000000
00003F000000
00003F000000
FFFFFFFFFFE0
FFFFFFFFFFE0
FFFFFFFFFFE0
FFFFFFFFFFE0
FFFFFFFFFFE0
FFFFFFFFFFE0
00003F000000
00003F000000
00003F000000
00003F000000
00003F000000
00003F000000
00003F000000
00003F000000
00003F000000
00003F000000
00003F000000
00003F000000
00003F000000
00003F000000
00003F000000
00003F000000
00003F000000
00003F000000
00003F000000
ENDCHAR
STARTCHAR 002C
ENCODING 44
SWIDTH 264 0
DWIDTH 25 0
BBX 8 20 6 -11
BITMAP
FF
FF
FF
FF
FF
FF
FF
FF
FF
FF
0F
0F
0F
0F
0E
1E
FE
FC
F8
F0
ENDCHAR
STARTCHAR 002D
ENCODING 45
SWIDTH 423 0
DWIDTH 40 0
BBX 28 6 6 27
BITMAP
FFFFFFF0
FFFFFFF0
FFFFFFF0
FFFFFFF0
FFFFFFF0
FFFFFFF0
ENDCHAR
STARTCHAR 002E
ENCODING 46
SWIDTH 254 0
DWIDTH 24 0
BBX 8 8 8 0
BITMAP
FF
FF
FF
FF
FF
FF
FF
FF
ENDCHAR
STARTCHAR 002F
ENCODING 47
SWIDTH 391 0
DWIDTH 37 0
BBX 25 68 6 0
BITMAP
00003F80
00007F80
00007F00
00007F00
00007F00
0000FE00
0000FE00
0000FE00
0000FE00
0001FC00
0001FC00
0001FC00
0003FC00
0003F800
0003F800
0003F800
0007F800
0007F000
0007F000
0007F000
000FE000
000FE000
000FE000
000FE000
001FC000
001FC000
001FC000
003FC000
003F8000
003F8000
003F8000
007F8000
007F0000
007F0000
007F0000
00FE0000
00FE0000
00FE0000
00FE0000
01FC0000
01FC0000
01FC0000
03FC0000
03F80000
03F80000
03F80000
07F80000
07F00000
07F00000
07F00000
0FE00000
0FE00000
0FE00000
0FE00000
1FC00000
1FC00000
1FC00000
3FC00000
3F800000
3F800000
3F800000
7F800000
7F000000
7F000000
7F000000
FE000000
FE000000
FE000000
ENDCHAR
STARTCHAR 0030
ENCODING 48
SWIDTH 614 0
DWIDTH 58 0
BBX 44 70 7 -1
BITMAP
00007FE00000
0007FFFC0000
001FFFFF0000
007FFFFFC000
00FFFFFFE000
01FFFFFFF800
03FFFFFFFC00
07FF801FFE00
0FFE0007FF00
1FF80001FF00
1FF00000FF80
3FE000007F80
3FC000003FC0
7F8000003FC0
7F0000001FE0
FF0000000FE0
FF0000000FE0
FE0000000FF0
FE00000007F0
FE00000007F0
FE00000007F0
FE00000007F0
FE00000007F0
FE00000007F0
FE00000007F0
FE00000007F0
FE00000007F0
FE00000007F0
FE00000007F0
FE00000007F0
FE00000007F0
FE00000007F0
FE00000007F0
FE00000007F0
FE00000007F0
FE00000007F0
FE00000007F0
FE00000007F0
FE00000007F0
FE00000007F0
FE00000007F0
FE00000007F0
FE00000007F0
FE00000007F0
FE00000007F0
FE00000007F0
FE00000007F0
FE00000007F0
FE00000007F0
FE00000007F0
FE00000007F0
FE00000007F0
FE0000000FF0
FF0000000FE0
FF0000000FE0
7F8000001FE0
7F8000003FC0
3FC000003FC0
3FE000007F80
1FF00000FF80
1FF80001FF00
0FFE0007FF00
07FF801FFE00
03FFFFFFFC00
01FFFFFFF800
00FFFFFFF000
007FFFFFC000
001FFFFF0000
0007FFFC0000
00007FE00000
ENDCHAR
STARTCHAR 0031
ENCODING 49
SWIDTH 391 0
DWIDTH 37 0
BBX 20 68 6 0
BITMAP
000FF0
003FF0
00FFF0
01FFF0
07FFF0
1FFFF0
3FFFF0
FFFFF0
FFEFF0
FFCFF0
FF0FF0
FC0FF0
F80FF0
E00FF0
800FF0
000FF0
000FF0
000FF0
000FF0
000FF0
000FF0
000FF0
000FF0
000FF0
000FF0
000FF0
000FF0
000FF0
000FF0
000FF0
000FF0
000FF0
000FF0
000FF0
000FF0
000FF0
000FF0
000FF0
000FF0
000FF0
000FF0
000FF0
000FF0
000FF0
000FF0
000FF0
000FF0
000FF0
000FF0
000FF0
000FF0
000FF0
000FF0
000FF0
000FF0
000FF0
000FF0
000FF0
000FF0
000FF0
000FF0
000FF0
000FF0
000FF0
000FF0
000FF0
000FF0
000FF0
ENDCHAR
STARTCHAR 0032
ENCODING 50
SWIDTH 571 0
DWIDTH 54 0
BBX 44 69 5 0
BITMAP
00007FE00000
0003FFFC0000
000FFFFF8000
003FFFFFC000
00FFFFFFF000
01FFFFFFF800
03FFFFFFFC00
07FF801FFE00
0FFE0007FF00
0FF80001FF80
1FF00000FF80
3FE000007FC0
3FC000003FC0
3FC000001FE0
7F8000001FE0
7F0000000FE0
7F0000000FF0
FF00000007F0
FE00000007F0
FE00000007F0
FE00000007F0
FE00000007F0
0000000007F0
0000000007F0
0000000007F0
0000000007F0
000000000FF0
000000000FE0
000000000FE0
000000001FE0
000000001FE0
000000003FC0
000000007FC0
00000000FF80
00000001FF00
00000003FF00
00000007FE00
0000000FFC00
0000001FF800
0000003FF000
000000FFE000
000001FFC000
000003FF0000
000007FE0000
00000FFC0000
00001FF80000
00003FF00000
00007FE00000
0000FFC00000
0003FF800000
0007FF000000
000FFC000000
001FF8000000
003FF0000000
007FE0000000
00FFC0000000
01FF80000000
03FF00000000
0FFE00000000
1FF800000000
3FF000000000
7FE000000000
FFFFFFFFFFF0
FFFFFFFFFFF0
FFFFFFFFFFF0
FFFFFFFFFFF0
FFFFFFFFFFF0
FFFFFFFFFFF0
FFFFFFFFFFF0
ENDCHAR
STARTCHAR 0033
ENCODING 51
SWIDTH 550 0
DWIDTH 52 0
BBX 43 69 4 -1
BITMAP
3FFFFFFFFFC0
3FFFFFFFFFC0
3FFFFFFFFFC0
3FFFFFFFFFC0
3FFFFFFFFFC0
3FFFFFFFFFC0
3FFFFFFFFFC0
00000000FF80
00000001FF00
00000003FE00
00000007FC00
0000000FF800
0000001FF000
0000003FE000
000000FFC000
000001FF8000
000003FF0000
000007FE0000
00000FFC0000
00001FF80000
00003FE00000
00007FC00000
0000FF800000
0001FF000000
0003FE000000
0007FC000000
000FFFE00000
003FFFFC0000
003FFFFF0000
003FFFFFC000
001FFFFFE000
000FFFFFF800
000F807FF800
0004000FFC00
00000007FE00
00000001FF00
00000000FF00
00000000FF80
000000007F80
000000003F80
000000003FC0
000000003FC0
000000001FC0
000000001FC0
000000001FC0
000000001FE0
000000001FE0
000000001FE0
000000001FE0
000000001FC0
000000001FC0
000000001FC0
000000001FC0
3E0000003FC0
FE0000003F80
FF0000007F80
7F8000007F80
7F800000FF00
3FC00001FF00
3FE00003FE00
1FF8000FFC00
0FFE003FFC00
07FFFFFFF800
03FFFFFFF000
01FFFFFFE000
00FFFFFF8000
003FFFFF0000
000FFFF80000
0000FFC00000
ENDCHAR
STARTCHAR 0034
ENCODING 52
SWIDTH 592 0
DWIDTH 56 0
BBX 46 68 5 0
BITMAP
000003FC0000
000003FC0000
000007F80000
000007F80000
00000FF00000
00000FF00000
00001FE00000
00001FE00000
00003FC00000
00003FC00000
00003F800000
00007F800000
00007F000000
0000FF000000
0000FE000000
0001FE000000
0001FE000000
0003FC000000
0003FC000000
0007F8000000
0007F8000000
000FF0000000
000FF0000000
001FE0000000
001FE0000000
003FC0000000
003FC0000000
003F80000000
007F8000FE00
007F0000FE00
00FF0000FE00
00FE0000FE00
01FE0000FE00
01FE0000FE00
03FC0000FE00
03FC0000FE00
07F80000FE00
07F80000FE00
0FF00000FE00
0FF00000FE00
1FE00000FE00
1FE00000FE00
3FC00000FE00
3FC00000FE00
3F800000FE00
7F800000FE00
7F000000FE00
FF000000FE00
FFFFFFFFFFFC
FFFFFFFFFFFC
FFFFFFFFFFFC
FFFFFFFFFFFC
FFFFFFFFFFFC
FFFFFFFFFFFC
FFFFFFFFFFFC
00000000FE00
00000000FE00
00000000FE00
00000000FE00
00000000FE00
00000000FE00
00000000FE00
00000000FE00
00000000FE00
00000000FE00
00000000FE00
00000000FE00
00000000FE00
ENDCHAR
STARTCHAR 0035
ENCODING 53
SWIDTH 582 0
DWIDTH 55 0
BBX 45 69 5 -1
BITMAP
0FFFFFFFFF00
0FFFFFFFFF00
0FFFFFFFFF00
0FFFFFFFFF00
1FFFFFFFFF00
1FFFFFFFFF00
1FFFFFFFFF00
1FC000000000
1FC000000000
1FC000000000
1FC000000000
1FC000000000
1FC000000000
1FC000000000
1FC000000000
1FC000000000
1F8000000000
1F8000000000
1F8000000000
1F8000000000
1F8000000000
3F8000000000
3F8000000000
3F8000000000
3F803FE00000
3F81FFFE0000
3F8FFFFF8000
3F9FFFFFE000
3FFFFFFFF000
3FFFFFFFF800
3FFFFFFFFC00
3FFF001FFE00
3FFC0007FF00
3FF00001FF80
3FE00000FF80
3FC000007FC0
078000003FE0
010000001FE0
000000000FE0
000000000FF0
0000000007F0
0000000007F0
0000000007F0
0000000003F8
0000000003F8
0000000003F8
0000000003F8
0000000003F8
0000000003F8
0000000003F8
0000000007F0
3E00000007F0
FE00000007F0
FF0000000FF0
FF0000000FE0
7F8000001FE0
7FC000003FC0
3FC000007FC0
3FF00000FF80
1FF80001FF00
0FFE0007FF00
07FF803FFE00
03FFFFFFFC00
01FFFFFFF800
00FFFFFFE000
003FFFFFC000
001FFFFF0000
0007FFFC0000
00007FC00000
ENDCHAR
STARTCHAR 0036
ENCODING 54
SWIDTH 624 0
DWIDTH 59 0
BBX 46 70 7 -1
BITMAP
00003FF00000
0003FFFE0000
000FFFFFC000
003FFFFFF000
007FFFFFF800
00FFFFFFFC00
03FFFFFFFE00
07FFC00FFF00
07FE0001FF80
0FFC0000FFC0
1FF000003F80
1FE000001F00
3FC000000C00
3FC000000800
7F8000000000
7F0000000000
7F0000000000
FE0000000000
FE0000000000
FE0000000000
FE0000000000
FE0000000000
FE0000000000
FE0000000000
FE0000000000
FE001FF00000
FE01FFFE0000
FE07FFFFC000
FE0FFFFFE000
FE3FFFFFF800
FE7FFFFFFC00
FEFFFFFFFE00
FFFF800FFF00
FFFE0003FF80
FFF80000FFC0
FFF000007FC0
FFE000003FE0
FFC000001FE0
FF8000000FF0
FF80000007F0
FF00000007F8
FF00000007F8
FE00000003F8
FE00000003F8
FE00000003F8
FE00000001FC
FE00000001FC
FE00000001FC
FE00000001FC
FE00000003FC
FE00000003F8
FE00000003F8
FF00000003F8
7F00000007F8
7F00000007F0
7F8000000FF0
3F8000000FF0
3FC000001FE0
1FE000003FE0
1FF000007FC0
0FFC0000FF80
07FE0003FF80
03FFC01FFF00
03FFFFFFFE00
00FFFFFFFC00
007FFFFFF000
003FFFFFE000
000FFFFF8000
0003FFFE0000
00003FF00000
ENDCHAR
STARTCHAR 0037
ENCODING 55
SWIDTH 497 0
DWIDTH 47 0
BBX 39 68 4 0
BITMAP
FFFFFFFFFE
FFFFFFFFFE
FFFFFFFFFE
FFFFFFFFFE
FFFFFFFFFE
FFFFFFFFFE
FFFFFFFFFE
00000001FC
00000001FC
00000003FC
00000003F8
00000007F8
00000007F0
00000007F0
0000000FF0
0000000FE0
0000001FE0
0000001FC0
0000003FC0
0000003F80
0000003F80
0000007F80
0000007F00
000000FF00
000000FE00
000000FE00
000001FE00
000001FC00
000003FC00
000003F800
000003F800
000007F800
000007F000
00000FF000
00000FE000
00000FE000
00001FE000
00001FC000
00003FC000
00003F8000
00007F8000
00007F8000
00007F0000
0000FF0000
0000FE0000
0001FE0000
0001FC0000
0001FC0000
0003FC0000
0003F80000
0007F80000
0007F00000
0007F00000
000FF00000
000FE00000
001FE00000
001FC00000
001FC00000
003FC00000
003F800000
007F800000
007F000000
00FF000000
00FF000000
00FE000000
01FE000000
01FC000000
03FC000000
ENDCHAR
STARTCHAR 0038
ENCODING 56
SWIDTH 582 0
DWIDTH 55 0
BBX 43 70 6 -1
BITMAP
0000FFE00000
0007FFFC0000
003FFFFF0000
007FFFFFC000
01FFFFFFE000
03FFFFFFF000
07FFFFFFF800
0FFF003FFC00
0FFC0007FE00
1FF00003FE00
1FE00001FF00
3FC00000FF00
3FC000007F80
3F8000007F80
3F8000003F80
7F8000003F80
7F8000003F80
7F8000003F80
7F8000003F80
7F8000003F80
7F8000003F80
3F8000003F80
3F8000007F80
3FC000007F80
3FC00000FF00
1FE00000FF00
1FF00001FE00
0FFC0007FE00
07FF001FFC00
07FFFFFFF800
03FFFFFFF000
00FFFFFFE000
007FFFFFC000
00FFFFFFE000
03FFFFFFF000
07FFFFFFF800
0FFF803FFC00
1FFC0007FE00
1FF00003FF00
3FE00000FF80
3FC000007F80
7F8000003FC0
7F8000003FC0
FF0000001FC0
FF0000001FE0
FE0000001FE0
FE0000001FE0
FE0000000FE0
FE0000000FE0
FE0000000FE0
FE0000000FE0
FE0000000FE0
FE0000000FE0
FE0000001FE0
FF0000001FE0
FF0000001FC0
7F0000003FC0
7F8000003FC0
7FC000007F80
3FE00000FF80
3FF00001FF00
1FF80007FF00
0FFF001FFE00
07FFFFFFFC00
03FFFFFFF800
01FFFFFFF000
00FFFFFFC000
003FFFFF8000
000FFFFC0000
0000FFE00000
ENDCHAR
STARTCHAR 0039
ENCODING 57
SWIDTH 624 0
DWIDTH 59 0
BBX 46 70 6 -1
BITMAP
00003FF00000
0001FFFE0000
000FFFFF8000
001FFFFFE000
007FFFFFF800
00FFFFFFFC00
01FFFFFFFE00
03FFC00FFF00
07FF0003FF80
0FFC0000FFC0
1FF800007FC0
1FF000003FE0
3FE000001FE0
3FC000000FF0
7F80000007F0
7F80000007F8
7F00000003F8
FF00000003F8
FE00000003FC
FE00000001FC
FE00000001FC
FE00000001FC
FE00000001FC
FE00000001FC
FE00000001FC
FE00000001FC
FE00000003FC
FF00000003FC
7F00000003FC
7F00000007FC
7F80000007FC
3FC000000FFC
3FC000001FFC
1FE000001FFC
1FF000003FFC
0FF80000FFFC
07FE0001FFFC
07FF8007FFFC
03FFFFFFFDFC
01FFFFFFF9FC
007FFFFFE1FC
003FFFFFC1FC
000FFFFF01FC
0003FFFC01FC
00003FE001FC
0000000001FC
0000000001FC
0000000001FC
0000000001FC
0000000001FC
0000000001FC
0000000003FC
0000000003F8
0000000003F8
0000000007F8
0000000007F0
008000000FF0
01C000001FE0
03E000003FE0
07F000007FC0
0FF80000FFC0
0FFE0003FF80
07FF800FFF00
03FFFFFFFE00
01FFFFFFFC00
007FFFFFF800
003FFFFFE000
000FFFFF8000
0003FFFE0000
00003FF00000
ENDCHAR
STARTCHAR 003A
ENCODING 58
SWIDTH 296 0
DWIDTH 28 0
BBX 9 35 10 8
BITMAP
FF80
FF80
FF80
FF80
FF80
FF80
FF80
FF80
0000
0000
0000
0000
0000
0000
0000
0000
0000
0000
0000
0000
0000
0000
0000
0000
0000
0000
0000
FF00
FF00
FF00
FF00
FF00
FF00
FF00
FF00
ENDCHAR
STARTCHAR 003B
ENCODING 59
SWIDTH 307 0
DWIDTH 29 0
BBX 8 61 10 -11
BITMAP
FF
FF
FF
FF
FF
FF
FF
FF
00
00
00
00
00
00
00
00
00
00
00
00
00
00
00
00
00
00
00
00
00
00
00
00
00
00
00
00
00
00
00
00
00
FF
FF
FF
FF
FF
FF
FF
FF
FF
FF
07
07
07
07
0F
0F
7F
7E
7C
F8
ENDCHAR
STARTCHAR 003C
ENCODING 60
SWIDTH 614 0
DWIDTH 58 0
BBX 26 44 14 8
BITMAP
00000400
00000E00
00001F00
00003F80
00007FC0
0000FF80
0001FF00
0003FE00
0007FC00
000FF800
001FF000
003FE000
007FC000
00FF8000
01FF0000
03FE0000
07FC0000
0FF80000
1FE00000
3FC00000
7F800000
FF000000
FF000000
7F800000
3FC00000
1FE00000
0FF00000
07F80000
03FC0000
01FE0000
00FF0000
007F8000
003FC000
001FE000
000FF000
0007F800
0003FC00
0001FE00
0000FF00
00007F80
00003F80
00001F00
00000E00
00000400
ENDCHAR
STARTCHAR 003D
ENCODING 61
SWIDTH 751 0
DWIDTH 71 0
BBX 49 22 11 23
BITMAP
FFFFFFFFFFFF80
FFFFFFFFFFFF80
FFFFFFFFFFFF80
FFFFFFFFFFFF80
FFFFFFFFFFFF80
FFFFFFFFFFFF80
00000000000000
00000000000000
00000000000000
00000000000000
00000000000000
00000000000000
00000000000000
00000000000000
00000000000000
00000000000000
FFFFFFFFFFFF80
FFFFFFFFFFFF80
FFFFFFFFFFFF80
FFFFFFFFFFFF80
FFFFFFFFFFFF80
FFFFFFFFFFFF80
ENDCHAR
STARTCHAR 003E
ENCODING 62
SWIDTH 614 0
DWIDTH 58 0
BBX 26 44 18 8
BITMAP
08000000
1C000000
3E000000
7F000000
FF800000
7FC00000
3FE00000
1FF00000
0FF80000
07FC0000
03FE0000
01FF0000
00FF8000
007FC000
003FE000
001FF000
0007F800
0003FC00
0001FE00
0000FF00
00007F80
00003FC0
00003FC0
00007F80
0000FF00
0001FE00
0003FC00
0007F800
000FF000
001FE000
003FC000
007F8000
00FF0000
01FE0000
03FC0000
07F80000
0FF00000
1FE00000
3FC00000
7F800000
7F000000
3E000000
1C000000
08000000
ENDCHAR
STARTCHAR 003F
ENCODING 63
SWIDTH 518 0
DWIDTH 49 0
BBX 40 69 5 0
BITMAP
0001FF8000
001FFFF800
007FFFFE00
01FFFFFF00
03FFFFFFC0
07FFFFFFE0
0FFFFFFFF0
1FFC007FF8
3FF0001FF8
3FE00007FC
7F800003FC
7F800001FE
7F000001FE
FF000000FE
FE000000FE
FE000000FF
FE000000FF
FE000000FF
00000000FF
00000000FF
00000000FF
00000000FE
00000000FE
00000001FE
00000001FE
00000003FC
00000003FC
00000007F8
0000000FF8
0000003FF0
0000007FE0
000000FFC0
000003FF80
000007FF00
00000FFE00
00001FF800
00003FF000
00003FE000
00007FC000
00007F8000
0000FF0000
0000FF0000
0000FE0000
0001FE0000
0001FE0000
0001FC0000
0001FC0000
0001FC0000
0001FC0000
0001FC0000
0001FC0000
0000000000
0000000000
0000000000
0000000000
0000000000
0000000000
0000000000
0000000000
0000000000
0001FC0000
0001FC0000
0001FC0000
0001FC0000
0001FC0000
0001FC0000
0001FC0000
0001FC0000
0001FC0000
ENDCHAR
STARTCHAR 0040
ENCODING 64
SWIDTH 900 0
DWIDTH 85 0
BBX 70 71 8 -10
BITMAP
00000007FF80000000
000000FFFFFC000000
000007FFFFFF800000
00001FFFFFFFF00000
00007FFFFFFFFC0000
0001FFFFFFFFFE0000
0003FFFC007FFF8000
000FFF800007FFC000
001FFE000000FFE000
003FF80000003FF000
007FE00000000FF800
00FF8000000007FC00
01FF0000000001FE00
01FE0000000000FF00
03FC00000000007F80
07F800000000003F80
07F000000000003FC0
0FF000000000001FC0
1FE000000000000FE0
1FC000000000000FE0
1FC0000000000007F0
3F80000000000007F0
3F800003FC000003F0
7F00001FFF9F0003F8
7F00007FFFDF0003F8
7E0000FFFFFF0003F8
7E0001FFFFFF0001F8
FE0003FFFFFF0001F8
FE0007FC03FF0001FC
FC0007F801FF0001FC
FC000FE0007F0001FC
FC000FE0007F0001FC
FC000FC0003F0001FC
FC000FC0003F0001FC
FC001FC0003F0001FC
FC001FC0003F0001FC
FC001F80003F0001FC
FC001FC0003F0001F8
FC001FC0003F0001F8
FC001FC0003F0001F8
FC000FC0003F0003F8
FC000FE0007F8003F8
FE000FE000FF8003F0
FE0007F801FFC007F0
FE0007FE07FFC00FE0
7E0003FFFFFFF03FE0
7F0001FFFFFFFFFFC0
7F0000FFFFE7FFFFC0
3F80007FFFC7FFFF80
3F80001FFF83FFFF00
3FC00007FC00FFFC00
1FC0000000003FF000
1FE000000000000000
0FF000000000000000
07F000000000000000
07F800000000000000
03FC00000000000000
01FE00000000000000
01FF00000000000000
00FFC0000000000000
007FE0000000000000
003FF8000000200000
001FFE000001E00000
000FFF800007E00000
0003FFF8007FF00000
0001FFFFFFFFF00000
00007FFFFFFFF00000
00001FFFFFFFE00000
000007FFFFFF000000
000000FFFFF8000000
00000007FF80000000
ENDCHAR
STARTCHAR 0041
ENCODING 65
SWIDTH 635 0
DWIDTH 60 0
BBX 56 68 2 0
BITMAP
000001FF800000
000001FF800000
000003FF800000
000003FFC00000
000003FFC00000
000007FFC00000
000007FFE00000
000007FFE00000
00000FFFE00000
00000FEFF00000
00000FE7F00000
00001FE7F00000
00001FC7F80000
00001FC3F80000
00003FC3FC0000
00003F83FC0000
00003F81FC0000
00007F81FE0000
00007F00FE0000
00007F00FE0000
0000FE00FF0000
0000FE007F0000
0000FE007F0000
0001FC007F8000
0001FC003F8000
0001FC003F8000
0003F8003FC000
0003F8001FC000
0007F8001FC000
0007F0001FE000
0007F0000FE000
000FF0000FE000
000FE0000FF000
000FE00007F000
001FE00007F000
001FC00007F800
001FC00003F800
003FC00003F800
003F800003FC00
003F800001FC00
007F800001FC00
007F000000FE00
007F000000FE00
00FF000000FF00
00FE0000007F00
00FFFFFFFFFF00
01FFFFFFFFFF80
01FFFFFFFFFF80
01FFFFFFFFFF80
03FFFFFFFFFFC0
03FFFFFFFFFFC0
03FFFFFFFFFFC0
07F00000001FE0
07F00000000FE0
07F00000000FE0
0FE00000000FF0
0FE000000007F0
1FE000000007F0
1FC000000007F8
1FC000000003F8
3FC000000003F8
3F8000000003FC
3F8000000001FC
7F8000000001FC
7F0000000001FE
7F0000000000FE
FF0000000000FE
FE00000000007F
ENDCHAR
STARTCHAR 0042
ENCODING 66
SWIDTH 614 0
DWIDTH 58 0
BBX 48 68 7 0
BITMAP
FFFFFFFE0000
FFFFFFFFC000
FFFFFFFFF000
FFFFFFFFFC00
FFFFFFFFFE00
FFFFFFFFFF00
FFFFFFFFFF80
FE000001FFC0
FE0000007FC0
FE0000003FE0
FE0000001FE0
FE0000000FF0
FE0000000FF0
FE00000007F0
FE00000007F8
FE00000007F8
FE00000003F8
FE00000003F8
FE00000003F8
FE00000007F8
FE00000007F8
FE00000007F0
FE0000000FF0
FE0000000FF0
FE0000001FE0
FE0000003FE0
FE0000007FC0
FE000000FFC0
FE000007FF80
FFFFFFFFFF00
FFFFFFFFFE00
FFFFFFFFFC00
FFFFFFFFFC00
FFFFFFFFFF00
FFFFFFFFFF80
FFFFFFFFFFC0
FE0000007FE0
FE0000001FF0
FE0000000FF8
FE00000007FC
FE00000003FC
FE00000001FE
FE00000001FE
FE00000000FE
FE00000000FF
FE00000000FF
FE000000007F
FE000000007F
FE000000007F
FE000000007F
FE000000007F
FE000000007F
FE00000000FF
FE00000000FF
FE00000000FE
FE00000001FE
FE00000003FE
FE00000007FC
FE0000000FFC
FE0000003FF8
FE000000FFF8
FFFFFFFFFFF0
FFFFFFFFFFE0
FFFFFFFFFFC0
FFFFFFFFFF80
FFFFFFFFFE00
FFFFFFFFF800
FFFFFFFF8000
ENDCHAR
STARTCHAR 0043
ENCODING 67
SWIDTH 720 0
DWIDTH 68 0
BBX 61 70 3 -1
BITMAP
0000007FF8000000
00000FFFFFC00000
00003FFFFFF00000
0000FFFFFFFE0000
0003FFFFFFFF0000
000FFFFFFFFFC000
001FFFFFFFFFE000
003FFF0003FFF000
007FF800007FF800
00FFE000001FFC00
01FFC0000007FE00
03FF00000003FF00
03FE00000001FF00
07FC00000000FF80
07F8000000007FC0
0FF8000000003FC0
0FF0000000003FE0
1FE0000000001FE0
1FE0000000000FF0
3FC0000000000FF0
3FC00000000007F0
3F800000000007F8
7F800000000007E0
7F80000000000200
7F00000000000000
7F00000000000000
FF00000000000000
FF00000000000000
FF00000000000000
FE00000000000000
FE00000000000000
FE00000000000000
FE00000000000000
FE00000000000000
FE00000000000000
FE00000000000000
FE00000000000000
FE00000000000000
FE00000000000000
FE00000000000000
FE00000000000000
FF00000000000000
FF00000000000000
FF00000000000000
7F00000000000000
7F00000000000000
7F80000000000200
7F800000000007E0
3F800000000007F8
3FC00000000007F0
3FC0000000000FF0
1FE0000000000FF0
1FE0000000001FE0
0FF0000000003FE0
0FF0000000003FC0
07F8000000007FC0
07FC00000000FF80
03FE00000001FF00
03FF00000003FF00
01FF80000007FE00
00FFE000001FFC00
007FF800007FF800
003FFF0003FFF000
001FFFFFFFFFE000
0007FFFFFFFFC000
0003FFFFFFFF0000
0000FFFFFFFE0000
00003FFFFFF00000
00000FFFFFC00000
0000007FF8000000
ENDCHAR
STARTCHAR 0044
ENCODING 68
SWIDTH 667 0
DWIDTH 63 0
BBX 52 68 7 0
BITMAP
FFFFFFF8000000
FFFFFFFFC00000
FFFFFFFFF00000
FFFFFFFFFC0000
FFFFFFFFFF0000
FFFFFFFFFF8000
FFFFFFFFFFC000
FE000007FFE000
FE000000FFF000
FE0000001FF800
FE0000000FFC00
FE00000007FC00
FE00000003FE00
FE00000001FF00
FE00000000FF00
FE000000007F80
FE000000007F80
FE000000003FC0
FE000000003FC0
FE000000001FC0
FE000000001FC0
FE000000001FE0
FE000000000FE0
FE000000000FE0
FE000000000FE0
FE000000000FF0
FE000000000FF0
FE000000000FF0
FE0000000007F0
FE0000000007F0
FE0000000007F0
FE0000000007F0
FE0000000007F0
FE0000000007F0
FE0000000007F0
FE0000000007F0
FE0000000007F0
FE0000000007F0
FE0000000007F0
FE0000000007F0
FE0000000007F0
FE000000000FF0
FE000000000FF0
FE000000000FE0
FE000000000FE0
FE000000001FE0
FE000000001FE0
FE000000001FE0
FE000000001FC0
FE000000003FC0
FE000000003FC0
FE000000007F80
FE000000007F80
FE00000000FF00
FE00000001FF00
FE00000003FE00
FE00000007FC00
FE0000000FFC00
FE0000001FF800
FE0000007FF000
FE000003FFE000
FFFFFFFFFFC000
FFFFFFFFFF8000
FFFFFFFFFF0000
FFFFFFFFFC0000
FFFFFFFFF00000
FFFFFFFFC00000
FFFFFFF8000000
ENDCHAR
STARTCHAR 0045
ENCODING 69
SWIDTH 571 0
DWIDTH 54 0
BBX 42 68 7 0
BITMAP
FFFFFFFFFFC0
FFFFFFFFFFC0
FFFFFFFFFFC0
FFFFFFFFFFC0
FFFFFFFFFFC0
FFFFFFFFFFC0
FFFFFFFFFFC0
FE0000000000
FE0000000000
FE0000000000
FE0000000000
FE0000000000
FE0000000000
FE0000000000
FE0000000000
FE0000000000
FE0000000000
FE0000000000
FE0000000000
FE0000000000
FE0000000000
FE0000000000
FE0000000000
FE0000000000
FE0000000000
FE0000000000
FE0000000000
FE0000000000
FE0000000000
FE0000000000
FFFFFFFFF000
FFFFFFFFF000
FFFFFFFFF000
FFFFFFFFF000
FFFFFFFFF000
FFFFFFFFF000
FFFFFFFFF000
FE0000000000
FE0000000000
FE0000000000
FE0000000000
FE0000000000
FE0000000000
FE0000000000
FE0000000000
FE0000000000
FE0000000000
FE0000000000
FE0000000000
FE0000000000
FE0000000000
FE0000000000
FE0000000000
FE0000000000
FE0000000000
FE0000000000
FE0000000000
FE0000000000
FE0000000000
FE0000000000
FE0000000000
FFFFFFFFFFC0
FFFFFFFFFFC0
FFFFFFFFFFC0
FFFFFFFFFFC0
FFFFFFFFFFC0
FFFFFFFFFFC0
FFFFFFFFFFC0
ENDCHAR
STARTCHAR 0046
ENCODING 70
SWIDTH 508 0
DWIDTH 48 0
BBX 39 68 7 0
BITMAP
FFFFFFFFFE
FFFFFFFFFE
FFFFFFFFFE
FFFFFFFFFE
FFFFFFFFFE
FFFFFFFFFE
FFFFFFFFFE
FE00000000
FE00000000
FE00000000
FE00000000
FE00000000
FE00000000
FE00000000
FE00000000
FE00000000
FE00000000
FE00000000
FE00000000
FE00000000
FE00000000
FE00000000
FE00000000
FE00000000
FE00000000
FE00000000
FE00000000
FE00000000
FE00000000
FE00000000
FFFFFFFF80
FFFFFFFF80
FFFFFFFF80
FFFFFFFF80
FFFFFFFF80
FFFFFFFF80
FFFFFFFF80
FE00000000
FE00000000
FE00000000
FE00000000
FE00000000
FE00000000
FE00000000
FE00000000
FE00000000
FE00000000
FE00000000
FE00000000
FE00000000
FE00000000
FE00000000
FE00000000
FE00000000
FE00000000
FE00000000
FE00000000
FE00000000
FE00000000
FE00000000
FE00000000
FE00000000
FE00000000
FE00000000
FE00000000
FE00000000
FE00000000
FE00000000
ENDCHAR
STARTCHAR 0047
ENCODING 71
SWIDTH 709 0
DWIDTH 67 0
BBX 61 70 3 -1
BITMAP
0000007FF8000000
00000FFFFF800000
00003FFFFFF00000
0000FFFFFFFC0000
0003FFFFFFFF0000
000FFFFFFFFF8000
001FFFFFFFFFC000
003FFF0007FFE000
007FF80000FFF000
00FFE000003FF800
01FFC000000FFC00
03FF00000007FE00
03FE00000003FE00
07FC00000001FF00
07F800000000FF00
0FF0000000007F80
1FF0000000007F80
1FE0000000003FC0
1FE0000000003FC0
3FC0000000001C00
3FC0000000000000
3F80000000000000
7F80000000000000
7F80000000000000
7F00000000000000
7F00000000000000
FF00000000000000
FF00000000000000
FF00000000000000
FE00000000000000
FE00000000000000
FE00000000000000
FE00000000000000
FE00000000000000
FE00000003FFFFF8
FE00000003FFFFF8
FE00000003FFFFF8
FE00000003FFFFF8
FE00000003FFFFF8
FE00000003FFFFF8
FE000000000007F8
FF000000000007F8
FF000000000007F8
7F000000000007F0
7F000000000007F0
7F000000000007F0
7F80000000000FF0
7F80000000000FF0
3F80000000000FF0
3FC0000000000FE0
3FC0000000001FE0
1FE0000000001FE0
1FE0000000003FC0
0FF0000000003FC0
0FF0000000007F80
07F8000000007F80
07FC00000000FF00
03FE00000001FF00
01FF00000003FE00
01FFC0000007FC00
00FFE000001FFC00
007FF800007FF800
003FFF0003FFF000
001FFFFFFFFFE000
0007FFFFFFFF8000
0003FFFFFFFF0000
0000FFFFFFFC0000
00003FFFFFF00000
00000FFFFF800000
0000007FF8000000
ENDCHAR
STARTCHAR 0048
ENCODING 72
SWIDTH 688 0
DWIDTH 65 0
BBX 51 68 7 0
BITMAP
FE000000000FE0
FE000000000FE0
FE000000000FE0
FE000000000FE0
FE000000000FE0
FE000000000FE0
FE000000000FE0
FE000000000FE0
FE000000000FE0
FE000000000FE0
FE000000000FE0
FE000000000FE0
FE000000000FE0
FE000000000FE0
FE000000000FE0
FE000000000FE0
FE000000000FE0
FE000000000FE0
FE000000000FE0
FE000000000FE0
FE000000000FE0
FE000000000FE0
FE000000000FE0
FE000000000FE0
FE000000000FE0
FE000000000FE0
FE000000000FE0
FE000000000FE0
FE000000000FE0
FE000000000FE0
FFFFFFFFFFFFE0
FFFFFFFFFFFFE0
FFFFFFFFFFFFE0
FFFFFFFFFFFFE0
FFFFFFFFFFFFE0
FFFFFFFFFFFFE0
FFFFFFFFFFFFE0
FE000000000FE0
FE000000000FE0
FE000000000FE0
FE000000000FE0
FE000000000FE0
FE000000000FE0
FE000000000FE0
FE000000000FE0
FE000000000FE0
FE000000000FE0
FE000000000FE0
FE000000000FE0
FE000000000FE0
FE000000000FE0
FE000000000FE0
FE000000000FE0
FE000000000FE0
FE000000000FE0
FE000000000FE0
FE000000000FE0
FE000000000FE0
FE000000000FE0
FE000000000FE0
FE000000000FE0
FE000000000FE0
FE000000000FE0
FE000000000FE0
FE000000000FE0
FE000000000FE0
FE000000000FE0
FE000000000FE0
ENDCHAR
STARTCHAR 0049
ENCODING 73
SWIDTH 232 0
DWIDTH 22 0
BBX 6 68 8 0
BITMAP
FC
FC
FC
FC
FC
FC
FC
FC
FC
FC
FC
FC
FC
FC
FC
FC
FC
FC
FC
FC
FC
FC
FC
FC
FC
FC
FC
FC
FC
FC
FC
FC
FC
FC
FC
FC
FC
FC
FC
FC
FC
FC
FC
FC
FC
FC
FC
FC
FC
FC
FC
FC
FC
FC
FC
FC
FC
FC
FC
FC
FC
FC
FC
FC
FC
FC
FC
FC
ENDCHAR
STARTCHAR 004A
ENCODING 74
SWIDTH 465 0
DWIDTH 44 0
BBX 36 69 0 -1
BITMAP
00000007F0
00000007F0
00000007F0
00000007F0
00000007F0
00000007F0
00000007F0
00000007F0
00000007F0
00000007F0
00000007F0
00000007F0
00000007F0
00000007F0
00000007F0
00000007F0
00000007F0
00000007F0
00000007F0
00000007F0
00000007F0
00000007F0
00000007F0
00000007F0
00000007F0
00000007F0
00000007F0
00000007F0
00000007F0
00000007F0
00000007F0
00000007F0
00000007F0
00000007F0
00000007F0
00000007F0
00000007F0
00000007F0
00000007F0
00000007F0
00000007F0
00000007F0
00000007F0
00000007F0
00000007F0
00000007F0
00000007F0
00000007F0
00000007F0
00000007F0
00000007F0
00000007F0
00000007F0
00000007F0
1E000007F0
FF00000FF0
FF00000FF0
7F80001FE0
7FC0001FE0
3FE0003FC0
3FF000FFC0
1FFC01FF80
0FFFFFFF80
07FFFFFF00
03FFFFFE00
01FFFFFC00
00FFFFF000
003FFFC000
0007FE0000
ENDCHAR
STARTCHAR 004B
ENCODING 75
SWIDTH 592 0
DWIDTH 56 0
BBX 49 68 7 0
BITMAP
FE00000007FC00
FE0000000FF800
FE0000001FF000
FE0000003FE000
FE0000007FC000
FE000000FF8000
FE000001FF0000
FE000003FE0000
FE000007FC0000
FE00000FF80000
FE00001FF00000
FE00003FE00000
FE00007FC00000
FE00007F800000
FE0000FF000000
FE0001FF000000
FE0003FE000000
FE0007FC000000
FE000FF8000000
FE001FF0000000
FE003FE0000000
FE007FC0000000
FE00FF80000000
FE01FF00000000
FE03FE00000000
FE07FC00000000
FE0FF800000000
FE1FF000000000
FE3FE000000000
FE7FC000000000
FEFF8000000000
FFFF0000000000
FFFE0000000000
FFFE0000000000
FFFF0000000000
FEFF8000000000
FE7FC000000000
FE3FE000000000
FE1FF000000000
FE0FF800000000
FE07FC00000000
FE03FE00000000
FE01FF00000000
FE00FF80000000
FE007FC0000000
FE003FE0000000
FE001FF0000000
FE000FF8000000
FE0007FC000000
FE0003FE000000
FE0001FF000000
FE0000FF800000
FE00007FC00000
FE00003FE00000
FE00001FF00000
FE00000FF80000
FE000007FC0000
FE000003FE0000
FE000001FF0000
FE000000FF8000
FE0000007FC000
FE0000003FE000
FE0000001FF000
FE0000000FF800
FE00000007FC00
FE00000003FE00
FE00000003FF00
FE00000001FF80
ENDCHAR
STARTCHAR 004C
ENCODING 76
SWIDTH 508 0
DWIDTH 48 0
BBX 39 68 8 0
BITMAP
FC00000000
FC00000000
FC00000000
FC00000000
FC00000000
FC00000000
FC00000000
FC00000000
FC00000000
FC00000000
FC00000000
FC00000000
FC00000000
FC00000000
FC00000000
FC00000000
FC00000000
FC00000000
FC00000000
FC00000000
FC00000000
FC00000000
FC00000000
FC00000000
FC00000000
FC00000000
FC00000000
FC00000000
FC00000000
FC00000000
FC00000000
FC00000000
FC00000000
FC00000000
FC00000000
FC00000000
FC00000000
FC00000000
FC00000000
FC00000000
FC00000000
FC00000000
FC00000000
FC00000000
FC00000000
FC00000000
FC00000000
FC00000000
FC00000000
FC00000000
FC00000000
FC00000000
FC00000000
FC00000000
FC00000000
FC00000000
FC00000000
FC00000000
FC00000000
FC00000000
FC00000000
FFFFFFFFFE
FFFFFFFFFE
FFFFFFFFFE
FFFFFFFFFE
FFFFFFFFFE
FFFFFFFFFE
FFFFFFFFFE
ENDCHAR
STARTCHAR 004D
ENCODING 77
SWIDTH 836 0
DWIDTH 79 0
BBX 66 68 7 0
BITMAP
FC0000000000001FC0
FE0000000000001FC0
FE0000000000003FC0
FF0000000000003FC0
FF0000000000007FC0
FF8000000000007FC0
FF800000000000FFC0
FFC00000000000FFC0
FFC00000000001FFC0
FFC00000000001FFC0
FFE00000000003FFC0
FFE00000000003FFC0
FFF00000000007FFC0
FFF00000000007FFC0
FFF80000000007FFC0
FFF8000000000FFFC0
FDFC000000000FFFC0
FDFC000000001FDFC0
FCFE000000001FDFC0
FCFE000000003F9FC0
FC7F000000003F9FC0
FC7F000000007F1FC0
FC7F800000007F1FC0
FC3F80000000FE1FC0
FC3F80000000FE1FC0
FC1FC0000001FE1FC0
FC1FC0000001FC1FC0
FC0FE0000001FC1FC0
FC0FE0000003F81FC0
FC07F0000003F81FC0
FC07F0000007F01FC0
FC03F8000007F01FC0
FC03F800000FE01FC0
FC01FC00000FE01FC0
FC01FC00001FC01FC0
FC01FE00001FC01FC0
FC00FE00003F801FC0
FC00FF00003F801FC0
FC007F00007F801FC0
FC007F00007F001FC0
FC003F8000FF001FC0
FC003F8000FE001FC0
FC001FC000FE001FC0
FC001FC001FC001FC0
FC000FE001FC001FC0
FC000FE003F8001FC0
FC0007F003F8001FC0
FC0007F007F0001FC0
FC0007F807F0001FC0
FC0003F80FE0001FC0
FC0003FC0FE0001FC0
FC0001FC1FE0001FC0
FC0001FE1FC0001FC0
FC0000FE3FC0001FC0
FC0000FE3F80001FC0
FC00007F3F80001FC0
FC00007F7F00001FC0
FC00003FFF00001FC0
FC00003FFE00001FC0
FC00001FFE00001FC0
FC00001FFC00001FC0
FC00001FFC00001FC0
FC00000FF800001FC0
FC00000FF800001FC0
FC000007F800001FC0
FC000007F000001FC0
FC000003F000001FC0
FC000003E000001FC0
ENDCHAR
STARTCHAR 004E
ENCODING 78
SWIDTH 688 0
DWIDTH 65 0
BBX 51 68 7 0
BITMAP
FE000000000FE0
FF000000000FE0
FF000000000FE0
FF800000000FE0
FFC00000000FE0
FFC00000000FE0
FFE00000000FE0
FFF00000000FE0
FFF00000000FE0
FFF80000000FE0
FFFC0000000FE0
FFFC0000000FE0
FFFE0000000FE0
FFFF0000000FE0
FEFF0000000FE0
FE7F8000000FE0
FE7FC000000FE0
FE3FC000000FE0
FE1FE000000FE0
FE1FF000000FE0
FE0FF000000FE0
FE07F800000FE0
FE07FC00000FE0
FE03FC00000FE0
FE01FE00000FE0
FE01FF00000FE0
FE00FF00000FE0
FE007F80000FE0
FE007FC0000FE0
FE003FC0000FE0
FE001FE0000FE0
FE000FF0000FE0
FE000FF0000FE0
FE0007F8000FE0
FE0003FC000FE0
FE0003FC000FE0
FE0001FE000FE0
FE0000FF000FE0
FE0000FF000FE0
FE00007F800FE0
FE00003FC00FE0
FE00003FC00FE0
FE00001FE00FE0
FE00000FF00FE0
FE00000FF80FE0
FE000007F80FE0
FE000003FC0FE0
FE000003FE0FE0
FE000001FE0FE0
FE000000FF0FE0
FE000000FF8FE0
FE0000007F8FE0
FE0000003FCFE0
FE0000003FEFE0
FE0000001FEFE0
FE0000000FFFE0
FE0000000FFFE0
FE00000007FFE0
FE00000003FFE0
FE00000003FFE0
FE00000001FFE0
FE00000000FFE0
FE00000000FFE0
FE000000007FE0
FE000000003FE0
FE000000003FE0
FE000000001FE0
FE000000000FE0
ENDCHAR
STARTCHAR 004F
ENCODING 79
SWIDTH 720 0
DWIDTH 68 0
BBX 62 70 3 -1
BITMAP
0000007FF8000000
00000FFFFFC00000
00003FFFFFF00000
0000FFFFFFFE0000
0003FFFFFFFF0000
000FFFFFFFFFC000
001FFFFFFFFFE000
003FFF0003FFF000
007FF800007FF800
00FFE000001FFC00
01FFC0000007FE00
03FF00000003FF00
03FE00000001FF80
07FC00000000FF80
07F8000000007FC0
0FF8000000003FC0
0FF0000000003FE0
1FE0000000001FE0
1FE0000000000FF0
3FC0000000000FF0
3FC00000000007F0
3F800000000007F8
7F800000000007F8
7F800000000003F8
7F000000000003F8
7F000000000003FC
FF000000000003FC
FF000000000003FC
FF000000000001FC
FF000000000001FC
FE000000000001FC
FE000000000001FC
FE000000000001FC
FE000000000001FC
FE000000000001FC
FE000000000001FC
FE000000000001FC
FE000000000001FC
FE000000000001FC
FE000000000001FC
FE000000000001FC
FF000000000001FC
FF000000000001FC
FF000000000003FC
7F000000000003FC
7F000000000003F8
7F800000000003F8
7F800000000007F8
3F800000000007F8
3FC00000000007F0
3FC0000000000FF0
1FE0000000000FF0
1FE0000000001FE0
0FF0000000001FE0
0FF0000000003FC0
07F8000000007FC0
07FC00000000FF80
03FE00000001FF80
03FF00000003FF00
01FFC0000007FE00
00FFE000001FFC00
007FF800007FF800
003FFF0003FFF000
001FFFFFFFFFE000
0007FFFFFFFFC000
0003FFFFFFFF0000
0000FFFFFFFE0000
00003FFFFFF80000
00000FFFFFC00000
0000007FF8000000
ENDCHAR
STARTCHAR 0050
ENCODING 80
SWIDTH 603 0
DWIDTH 57 0
BBX 47 68 7 0
BITMAP
FFFFFFFE0000
FFFFFFFFE000
FFFFFFFFF800
FFFFFFFFFE00
FFFFFFFFFF00
FFFFFFFFFF80
FFFFFFFFFFC0
FE000001FFE0
FE0000003FF0
FE0000001FF0
FE0000000FF8
FE00000007F8
FE00000003FC
FE00000003FC
FE00000001FC
FE00000001FE
FE00000001FE
FE00000000FE
FE00000000FE
FE00000000FE
FE00000000FE
FE00000000FE
FE00000000FE
FE00000000FE
FE00000000FE
FE00000001FE
FE00000001FE
FE00000001FC
FE00000003FC
FE00000003FC
FE00000007F8
FE0000000FF8
FE0000001FF0
FE0000003FF0
FE000001FFE0
FFFFFFFFFFC0
FFFFFFFFFF80
FFFFFFFFFF00
FFFFFFFFFE00
FFFFFFFFF800
FFFFFFFFE000
FFFFFFFF0000
FE0000000000
FE0000000000
FE0000000000
FE0000000000
FE0000000000
FE0000000000
FE0000000000
FE0000000000
FE0000000000
FE0000000000
FE0000000000
FE0000000000
FE0000000000
FE0000000000
FE0000000000
FE0000000000
FE0000000000
FE0000000000
FE0000000000
FE0000000000
FE0000000000
FE0000000000
FE0000000000
FE0000000000
FE0000000000
FE0000000000
ENDCHAR
STARTCHAR 0051
ENCODING 81
SWIDTH 720 0
DWIDTH 68 0
BBX 62 70 3 -1
BITMAP
0000007FF8000000
00000FFFFFC00000
00003FFFFFF00000
0000FFFFFFFE0000
0003FFFFFFFF0000
000FFFFFFFFFC000
001FFFFFFFFFE000
003FFF0003FFF000
007FF800007FF800
00FFE000001FFC00
01FFC0000007FE00
03FF00000003FF00
03FE00000001FF80
07FC00000000FF80
07F8000000007FC0
0FF8000000003FC0
0FF0000000003FE0
1FE0000000001FE0
1FE0000000000FF0
3FC0000000000FF0
3FC00000000007F0
3F800000000007F8
7F800000000007F8
7F800000000003F8
7F000000000003F8
7F000000000003FC
FF000000000003FC
FF000000000003FC
FF000000000001FC
FF000000000001FC
FE000000000001FC
FE000000000001FC
FE000000000001FC
FE000000000001FC
FE000000000001FC
FE000000000001FC
FE000000000001FC
FE000000000001FC
FE000000000001FC
FE000000000001FC
FE000000000001FC
FF000000000001FC
FF000000000003FC
FF000000000003FC
7F000000000003FC
7F000000000003F8
7F800000000003F8
7F800000000007F8
3F800000001807F8
3FC00000007C07F0
3FC0000000FE0FF0
1FE0000001FF0FF0
1FE0000001FF9FE0
0FF0000000FFFFE0
0FF00000007FFFC0
07F80000003FFFC0
07FC0000001FFF80
03FE0000000FFF00
03FF00000007FF00
01FFC0000007FF00
00FFE000001FFF80
007FF800007FFFC0
003FFF0003FFFFE0
001FFFFFFFFFFFF0
0007FFFFFFFFDFF8
0003FFFFFFFF0FF8
0000FFFFFFFE03F0
00003FFFFFF001E0
00000FFFFFC000C0
0000007FF8000000
ENDCHAR
STARTCHAR 0052
ENCODING 82
SWIDTH 635 0
DWIDTH 60 0
BBX 49 68 7 0
BITMAP
FFFFFFFE000000
FFFFFFFFE00000
FFFFFFFFF80000
FFFFFFFFFE0000
FFFFFFFFFF0000
FFFFFFFFFF8000
FFFFFFFFFFC000
FE000001FFE000
FE0000003FF000
FE0000001FF000
FE0000000FF800
FE00000007F800
FE00000003FC00
FE00000003FC00
FE00000001FC00
FE00000001FE00
FE00000001FE00
FE00000000FE00
FE00000000FE00
FE00000000FE00
FE00000000FE00
FE00000000FE00
FE00000000FE00
FE00000000FE00
FE00000000FE00
FE00000001FE00
FE00000001FE00
FE00000001FC00
FE00000003FC00
FE00000003FC00
FE00000007F800
FE0000000FF800
FE0000001FF000
FE0000003FF000
FE000001FFE000
FFFFFFFFFFC000
FFFFFFFFFF8000
FFFFFFFFFF0000
FFFFFFFFFE0000
FFFFFFFFF80000
FFFFFFFFE00000
FFFFFFFFF00000
FE00000FF00000
FE000007F80000
FE000007F80000
FE000003FC0000
FE000003FC0000
FE000001FE0000
FE000001FE0000
FE000000FF0000
FE000000FF0000
FE0000007F8000
FE0000007F8000
FE0000003FC000
FE0000003FC000
FE0000001FE000
FE0000001FE000
FE0000000FF000
FE0000000FF000
FE00000007F800
FE00000007F800
FE00000003FC00
FE00000003FC00
FE00000001FE00
FE00000001FE00
FE00000000FF00
FE00000000FF00
FE000000007F80
ENDCHAR
STARTCHAR 0053
ENCODING 83
SWIDTH 614 0
DWIDTH 58 0
BBX 52 70 3 -1
BITMAP
00000FFF000000
0000FFFFF00000
0007FFFFFC0000
000FFFFFFF0000
003FFFFFFFC000
007FFFFFFFE000
00FFFFFFFFF800
01FFF000FFFC00
03FF80001FFC00
07FE000007FE00
07FC000003FF00
0FF8000001FF80
0FF0000000FF80
1FE00000007FC0
1FE00000003FC0
1FE00000001FE0
1FC00000001FE0
1FC00000001FE0
1FC00000000FE0
1FC00000000FF0
1FC00000000E00
1FE00000000000
1FE00000000000
0FF00000000000
0FF80000000000
0FFC0000000000
07FF0000000000
03FFC000000000
03FFF800000000
01FFFF80000000
007FFFF0000000
003FFFFF000000
000FFFFFE00000
0003FFFFFC0000
00007FFFFF8000
00000FFFFFE000
000000FFFFF800
0000001FFFFC00
00000001FFFE00
000000003FFF00
0000000007FF80
0000000001FFC0
00000000007FC0
00000000003FE0
00000000001FE0
00000000000FE0
00000000000FF0
000000000007F0
000000000007F0
000000000007F0
7F0000000007F0
FF0000000007F0
7F0000000007F0
7F8000000007F0
7F800000000FF0
3FC00000000FE0
3FE00000001FE0
1FF00000003FE0
1FF80000003FC0
0FFC000000FFC0
07FF000001FF80
07FFC00007FF00
03FFF8003FFE00
00FFFFFFFFFE00
007FFFFFFFF800
003FFFFFFFF000
000FFFFFFFC000
0003FFFFFF0000
00007FFFFC0000
000007FF800000
ENDCHAR
STARTCHAR 0054
ENCODING 84
SWIDTH 592 0
DWIDTH 56 0
BBX 54 68 1 0
BITMAP
FFFFFFFFFFFFFC
FFFFFFFFFFFFFC
FFFFFFFFFFFFFC
FFFFFFFFFFFFFC
FFFFFFFFFFFFFC
FFFFFFFFFFFFFC
FFFFFFFFFFFFFC
000000FE000000
000000FE000000
000000FE000000
000000FE000000
000000FE000000
000000FE000000
000000FE000000
000000FE000000
000000FE000000
000000FE000000
000000FE000000
000000FE000000
000000FE000000
000000FE000000
000000FE000000
000000FE000000
000000FE000000
000000FE000000
000000FE000000
000000FE000000
000000FE000000
000000FE000000
000000FE000000
000000FE000000
000000FE000000
000000FE000000
000000FE000000
000000FE000000
000000FE000000
000000FE000000
000000FE000000
000000FE000000
000000FE000000
000000FE000000
000000FE000000
000000FE000000
000000FE000000
000000FE000000
000000FE000000
000000FE000000
000000FE000000
000000FE000000
000000FE000000
000000FE000000
000000FE000000
000000FE000000
000000FE000000
000000FE000000
000000FE000000
000000FE000000
000000FE000000
000000FE000000
000000FE000000
000000FE000000
000000FE000000
000000FE000000
000000FE000000
000000FE000000
000000FE000000
000000FE000000
000000FE000000
ENDCHAR
STARTCHAR 0055
ENCODING 85
SWIDTH 698 0
DWIDTH 66 0
BBX 53 69 7 -1
BITMAP
FE0000000003F8
FE0000000003F8
FE0000000003F8
FE0000000003F8
FE0000000003F8
FE0000000003F8
FE0000000003F8
FE0000000003F8
FE0000000003F8
FE0000000003F8
FE0000000003F8
FE0000000003F8
FE0000000003F8
FE0000000003F8
FE0000000003F8
FE0000000003F8
FE0000000003F8
FE0000000003F8
FE0000000003F8
FE0000000003F8
FE0000000003F8
FE0000000003F8
FE0000000003F8
FE0000000003F8
FE0000000003F8
FE0000000003F8
FE0000000003F8
FE0000000003F8
FE0000000003F8
FE0000000003F8
FE0000000003F8
FE0000000003F8
FE0000000003F8
FE0000000003F8
FE0000000003F8
FE0000000003F8
FE0000000003F8
FE0000000003F8
FE0000000003F8
FE0000000003F8
FE0000000003F8
FE0000000003F8
FE0000000003F8
FE0000000003F8
FE0000000003F8
FE0000000007F8
FE0000000007F0
FE0000000007F0
FE0000000007F0
FF0000000007F0
FF000000000FF0
7F000000000FF0
7F800000001FE0
7FC00000001FE0
3FC00000003FC0
3FE00000007FC0
1FF0000000FF80
1FF8000001FF80
0FFC000003FF00
07FF000007FE00
03FF80001FFE00
01FFF000FFFC00
00FFFFFFFFF800
007FFFFFFFE000
003FFFFFFFC000
000FFFFFFF0000
0003FFFFFC0000
0000FFFFF00000
00000FFF000000
ENDCHAR
STARTCHAR 0056
ENCODING 86
SWIDTH 603 0
DWIDTH 57 0
BBX 55 68 1 0
BITMAP
FE0000000000FE
FE0000000000FE
FF0000000001FE
7F0000000001FC
7F0000000001FC
7F8000000003FC
3F8000000003F8
3F8000000003F8
3FC000000007F8
1FC000000007F0
1FC000000007F0
1FE00000000FF0
0FE00000000FE0
0FE00000000FE0
0FF00000001FE0
07F00000001FC0
07F00000001FC0
07F80000003F80
03F80000003F80
03F80000003F80
01FC0000007F00
01FC0000007F00
01FC000000FF00
00FE000000FE00
00FE000000FE00
00FE000001FE00
007F000001FC00
007F000001FC00
007F800003FC00
003F800003F800
003F800003F800
003FC00007F800
001FC00007F000
001FC00007F000
001FE0000FF000
000FE0000FE000
000FE0000FE000
000FF0001FE000
0007F0001FC000
0007F0001FC000
0007F8003FC000
0003F8003F8000
0003F8003F8000
0003FC007F8000
0001FC007F0000
0001FC00FF0000
0001FE00FE0000
0000FE00FE0000
0000FE01FE0000
00007F01FC0000
00007F01FC0000
00007F03FC0000
00003F83F80000
00003F83F80000
00003F87F80000
00001FC7F00000
00001FC7F00000
00001FEFF00000
00000FEFE00000
00000FEFE00000
00000FFFE00000
000007FFC00000
000007FFC00000
000007FFC00000
000003FF800000
000003FF800000
000003FF800000
000001FF000000
ENDCHAR
STARTCHAR 0057
ENCODING 87
SWIDTH 931 0
DWIDTH 88 0
BBX 85 68 2 0
BITMAP
FE00000003FC00000007F8
FE00000003FC00000007F0
FF00000003FE00000007F0
7F00000003FE00000007F0
7F00000007FE0000000FE0
7F00000007FE0000000FE0
7F80000007FF0000000FE0
3F8000000FFF0000001FE0
3F8000000FFF0000001FC0
3F8000000FFF0000001FC0
1FC000000FFF8000001FC0
1FC000001FFF8000003F80
1FC000001FFF8000003F80
1FE000001FDFC000003F80
0FE000003FDFC000007F80
0FE000003F9FC000007F00
0FE000003F9FC000007F00
07F000003F8FE000007F00
07F000007F0FE00000FE00
07F000007F0FE00000FE00
07F800007F07F00000FE00
03F80000FF07F00001FE00
03F80000FE07F00001FC00
03F80000FE07F00001FC00
01FC0000FE03F80001FC00
01FC0001FC03F80003F800
01FC0001FC03F80003F800
01FE0001FC01FC0003F800
00FE0003FC01FC0007F800
00FE0003F801FC0007F000
00FE0003F801FC0007F000
007F0003F800FE0007F000
007F0007F000FE000FE000
007F0007F000FE000FE000
003F8007F0007F000FE000
003F8007E0007F000FE000
003F800FE0007F001FC000
003F800FE0007F001FC000
001FC00FE0003F801FC000
001FC01FC0003F803F8000
001FC01FC0003F803F8000
000FE01FC0001FC03F8000
000FE01F80001FC03F8000
000FE03F80001FC07F0000
000FE03F80001FC07F0000
0007F03F80000FE07F0000
0007F07F00000FE0FE0000
0007F07F00000FE0FE0000
0003F87F000007F0FE0000
0003F87E000007F0FE0000
0003F8FE000007F1FC0000
0003F8FE000007F1FC0000
0001FCFE000003F9FC0000
0001FDFC000003FBF80000
0001FDFC000003FBF80000
0000FFFC000001FFF80000
0000FFF8000001FFF80000
0000FFF8000001FFF00000
0000FFF8000001FFF00000
00007FF8000000FFF00000
00007FF0000000FFE00000
00007FF0000000FFE00000
00003FF00000007FE00000
00003FE00000007FC00000
00003FE00000007FC00000
00003FE00000007FC00000
00001FE00000003FC00000
00001FC00000003F800000
ENDCHAR
STARTCHAR 0058
ENCODING 88
SWIDTH 603 0
DWIDTH 57 0
BBX 55 68 1 0
BITMAP
7F8000000003FC
3FC000000007FC
3FE000000007F8
1FE00000000FF0
0FF00000001FF0
0FF80000001FE0
07F80000003FC0
03FC0000007FC0
03FE0000007F80
01FE000000FF00
00FF000001FF00
00FF800001FE00
007F800003FC00
003FC00007F800
003FE00007F800
001FE0000FF000
000FF0001FE000
000FF8003FE000
0007F8003FC000
0003FC007F8000
0001FE00FF8000
0001FE00FF0000
0000FF01FE0000
00007F83FE0000
00007F83FC0000
00003FC7F80000
00001FEFF80000
00001FEFF00000
00000FFFE00000
000007FFE00000
000007FFC00000
000003FF800000
000001FF800000
000001FF000000
000001FF000000
000003FF800000
000003FFC00000
000007FFC00000
00000FFFE00000
00001FFFF00000
00001FEFF80000
00003FC7F80000
00007FC3FC0000
00007F83FE0000
0000FF01FE0000
0001FF00FF0000
0001FE00FF8000
0003FC007F8000
0007FC003FC000
0007F8003FE000
000FF0001FE000
001FF0000FF000
001FE0000FF800
003FC00007F800
007F800003FC00
007F800003FE00
00FF000001FE00
01FE000000FF00
03FE000000FF80
03FC0000007F80
07F80000003FC0
0FF80000003FE0
0FF00000001FF0
1FE00000000FF0
3FE000000007F8
3FC000000007FC
7F8000000003FC
FF8000000001FE
ENDCHAR
STARTCHAR 0059
ENCODING 89
SWIDTH 561 0
DWIDTH 53 0
BBX 52 68 0 0
BITMAP
FF000000000FF0
7F800000000FF0
7F800000001FE0
3FC00000003FE0
1FE00000003FC0
1FE00000007F80
0FF00000007F80
0FF0000000FF00
07F8000000FF00
07FC000001FE00
03FC000003FC00
01FE000003FC00
01FE000007F800
00FF000007F800
00FF00000FF000
007F80000FF000
007FC0001FE000
003FC0003FC000
001FE0003FC000
001FE0007F8000
000FF0007F8000
000FF000FF0000
0007F800FF0000
0003FC01FE0000
0003FC03FC0000
0001FE03FC0000
0001FE07F80000
0000FF07F80000
0000FF8FF00000
00007F8FF00000
00003FDFE00000
00003FFFC00000
00001FFFC00000
00001FFF800000
00000FFF800000
00000FFF000000
000007FF000000
000003FE000000
000003FC000000
000001FC000000
000001FC000000
000001FC000000
000001FC000000
000001FC000000
000001FC000000
000001FC000000
000001FC000000
000001FC000000
000001FC000000
000001FC000000
000001FC000000
000001FC000000
000001FC000000
000001FC000000
000001FC000000
000001FC000000
000001FC000000
000001FC000000
000001FC000000
000001FC000000
000001FC000000
000001FC000000
000001FC000000
000001FC000000
000001FC000000
000001FC000000
000001FC000000
000001FC000000
ENDCHAR
STARTCHAR 005A
ENCODING 90
SWIDTH 614 0
DWIDTH 58 0
BBX 48 68 5 0
BITMAP
7FFFFFFFFFFF
7FFFFFFFFFFF
7FFFFFFFFFFF
7FFFFFFFFFFE
7FFFFFFFFFFC
7FFFFFFFFFFC
7FFFFFFFFFF8
000000000FF8
000000000FF0
000000001FE0
000000003FE0
000000003FC0
000000007FC0
000000007F80
00000000FF00
00000001FF00
00000001FE00
00000003FC00
00000003FC00
00000007F800
0000000FF800
0000000FF000
0000001FE000
0000003FE000
0000003FC000
0000007F8000
0000007F8000
000000FF0000
000001FF0000
000001FE0000
000003FC0000
000007FC0000
000007F80000
00000FF80000
00000FF00000
00001FE00000
00003FE00000
00003FC00000
00007F800000
0000FF800000
0000FF000000
0001FF000000
0001FE000000
0003FC000000
0007FC000000
0007F8000000
000FF0000000
000FF0000000
001FE0000000
003FE0000000
003FC0000000
007F80000000
00FF80000000
00FF00000000
01FF00000000
01FE00000000
03FC00000000
07FC00000000
07F800000000
0FF000000000
1FF000000000
1FFFFFFFFFFF
3FFFFFFFFFFF
3FFFFFFFFFFF
7FFFFFFFFFFF
FFFFFFFFFFFF
FFFFFFFFFFFF
FFFFFFFFFFFF
ENDCHAR
STARTCHAR 005B
ENCODING 91
SWIDTH 402 0
DWIDTH 38 0
BBX 18 104 13 -20
BITMAP
FFFFC0
FFFFC0
FFFFC0
FFFFC0
FFFFC0
FFFFC0
FE0000
FE0000
FE0000
FE0000
FE0000
FE0000
FE0000
FE0000
FE0000
FE0000
FE0000
FE0000
FE0000
FE0000
FE0000
FE0000
FE0000
FE0000
FE0000
FE0000
FE0000
FE0000
FE0000
FE0000
FE0000
FE0000
FE0000
FE0000
FE0000
FE0000
FE0000
FE0000
FE0000
FE0000
FE0000
FE0000
FE0000
FE0000
FE0000
FE0000
FE0000
FE0000
FE0000
FE0000
FE0000
FE0000
FE0000
FE0000
FE0000
FE0000
FE0000
FE0000
FE0000
FE0000
FE0000
FE0000
FE0000
FE0000
FE0000
FE0000
FE0000
FE0000
FE0000
FE0000
FE0000
FE0000
FE0000
FE0000
FE0000
FE0000
FE0000
FE0000
FE0000
FE0000
FE0000
FE0000
FE0000
FE0000
FE0000
FE0000
FE0000
FE0000
FE0000
FE0000
FE0000
FE0000
FE0000
FE0000
FE0000
FE0000
FE0000
FE0000
FFFFC0
FFFFC0
FFFFC0
FFFFC0
FFFFC0
FFFFC0
ENDCHAR
STARTCHAR 005C
ENCODING 92
SWIDTH 391 0
DWIDTH 37 0
BBX 25 68 6 0
BITMAP
FE000000
FE000000
FE000000
7F000000
7F000000
7F000000
7F800000
3F800000
3F800000
3F800000
3FC00000
1FC00000
1FC00000
1FC00000
0FE00000
0FE00000
0FE00000
0FE00000
07F00000
07F00000
07F00000
07F80000
03F80000
03F80000
03F80000
03FC0000
01FC0000
01FC0000
01FC0000
00FE0000
00FE0000
00FE0000
00FE0000
007F0000
007F0000
007F0000
007F8000
003F8000
003F8000
003F8000
003FC000
001FC000
001FC000
001FC000
000FE000
000FE000
000FE000
000FE000
0007F000
0007F000
0007F000
0007F800
0003F800
0003F800
0003F800
0003FC00
0001FC00
0001FC00
0001FC00
0000FE00
0000FE00
0000FE00
0000FE00
00007F00
00007F00
00007F00
00007F80
00003F80
ENDCHAR
STARTCHAR 005D
ENCODING 93
SWIDTH 402 0
DWIDTH 38 0
BBX 17 104 8 -20
BITMAP
FFFF80
FFFF80
FFFF80
FFFF80
FFFF80
FFFF80
001F80
001F80
001F80
001F80
001F80
001F80
001F80
001F80
001F80
001F80
001F80
001F80
001F80
001F80
001F80
001F80
001F80
001F80
001F80
001F80
001F80
001F80
001F80
001F80
001F80
001F80
001F80
001F80
001F80
001F80
001F80
001F80
001F80
001F80
001F80
001F80
001F80
001F80
001F80
001F80
001F80
001F80
001F80
001F80
001F80
001F80
001F80
001F80
001F80
001F80
001F80
001F80
001F80
001F80
001F80
001F80
001F80
001F80
001F80
001F80
001F80
001F80
001F80
001F80
001F80
001F80
001F80
001F80
001F80
001F80
001F80
001F80
001F80
001F80
001F80
001F80
001F80
001F80
001F80
001F80
001F80
001F80
001F80
001F80
001F80
001F80
001F80
001F80
001F80
001F80
001F80
001F80
FFFF80
FFFF80
FFFF80
FFFF80
FFFF80
FFFF80
ENDCHAR
STARTCHAR 005E
ENCODING 94
SWIDTH 667 0
DWIDTH 63 0
BBX 44 26 10 44
BITMAP
000006000000
00000F000000
00001F800000
00003FC00000
00007FE00000
0000FFF00000
0001FFF80000
0003FFFC0000
0007FDFE0000
000FF8FF0000
001FF07F8000
003FE03FC000
007FC01FE000
00FF800FF000
01FF0007F800
03FE0003FC00
07FC0001FE00
0FF80000FF00
1FF00000FF80
3FE000007FC0
7FC000003FE0
FF8000001FF0
7F0000000FE0
3E00000007C0
1C0000000380
080000000100
ENDCHAR
STARTCHAR 005F
ENCODING 95
SWIDTH 656 0
DWIDTH 62 0
BBX 62 6 0 -10
BITMAP
FFFFFFFFFFFFFFFC
FFFFFFFFFFFFFFFC
FFFFFFFFFFFFFFFC
FFFFFFFFFFFFFFFC
FFFFFFFFFFFFFFFC
FFFFFFFFFFFFFFFC
ENDCHAR
STARTCHAR 0060
ENCODING 96
SWIDTH 487 0
DWIDTH 46 0
BBX 12 15 16 76
BITMAP
FC00
7E00
7E00
7E00
3F00
3F00
1F80
1F80
1F80
0FC0
0FC0
0FC0
07E0
07E0
03F0
ENDCHAR
STARTCHAR 0061
ENCODING 97
SWIDTH 550 0
DWIDTH 52 0
BBX 43 53 4 -1
BITMAP
00007FF00000
0007FFFF0000
001FFFFFC000
007FFFFFF000
00FFFFFFF800
01FFFFFFFC00
03FFFFFFFE00
07FF0007FF00
0FFC0001FF80
0FF80000FF80
1FF000007F80
1FE000003FC0
3FC000001FC0
3F8000001FC0
1F8000001FC0
038000000FE0
000000000FE0
000000000FE0
000000000FE0
000000000FE0
00000001FFE0
000000FFFFE0
00007FFFFFE0
0007FFFFFFE0
003FFFFFFFE0
01FFFFFFFFE0
03FFFFFE0FE0
0FFFFE000FE0
1FFFC0000FE0
3FFC00000FE0
3FF000000FE0
7FC000000FE0
7F8000001FE0
FF0000001FE0
FF0000001FE0
FE0000001FE0
FE0000001FE0
FE0000003FE0
FE0000003FE0
FE0000007FE0
FE000000FFE0
FE000000FFE0
FF000001FFE0
7F800007F7E0
7FC0000FF7E0
3FE0003FE7E0
3FFC01FFC7E0
1FFFFFFF87E0
0FFFFFFF07E0
07FFFFFC07E0
01FFFFF807E0
007FFFC007E0
000FFE000000
ENDCHAR
STARTCHAR 0062
ENCODING 98
SWIDTH 592 0
DWIDTH 56 0
BBX 45 69 7 -1
BITMAP
FE0000000000
FE0000000000
FE0000000000
FE0000000000
FE0000000000
FE0000000000
FE0000000000
FE0000000000
FE0000000000
FE0000000000
FE0000000000
FE0000000000
FE0000000000
FE0000000000
FE0000000000
FE0000000000
FE003FF00000
FE03FFFE0000
FE0FFFFF8000
FE1FFFFFE000
FE7FFFFFF000
FEFFFFFFF800
FFFFFFFFFC00
FFFF001FFE00
FFFC0003FF00
FFF00001FF80
FFE00000FF80
FFC000007FC0
FF8000003FC0
FF8000001FE0
FF0000001FE0
FF0000000FE0
FE0000000FF0
FE0000000FF0
FE00000007F0
FC00000007F0
FC00000007F8
FC00000007F8
FC00000003F8
FC00000003F8
FC00000003F8
FC00000003F8
FC00000003F8
FC00000003F8
FC00000003F8
FC00000003F8
FC00000003F8
FC00000007F8
FC00000007F8
FE00000007F0
FE00000007F0
FE0000000FF0
FE0000000FF0
FF0000000FE0
FF0000001FE0
FF8000001FE0
FF8000003FC0
FFC000007FC0
FFE00000FF80
FFF00001FF80
FFFC0003FF00
FFFF000FFE00
FDFFFBFFFC00
FCFFFFFFF800
FC7FFFFFF000
FC1FFFFFE000
FC0FFFFF8000
FC03FFFE0000
00003FE00000
ENDCHAR
STARTCHAR 0063
ENCODING 99
SWIDTH 550 0
DWIDTH 52 0
BBX 45 53 4 -1
BITMAP
00003FF80000
0001FFFF8000
000FFFFFE000
001FFFFFF800
007FFFFFFC00
00FFFFFFFF00
01FFFFFFFF80
03FFC007FF80
07FF0000FFC0
0FFC00007FE0
0FF800003FF0
1FF000001FF0
1FE000000FF8
3FC0000007F8
3FC0000003F0
3F8000000300
7F8000000000
7F8000000000
7F0000000000
FF0000000000
FF0000000000
FF0000000000
FE0000000000
FE0000000000
FE0000000000
FE0000000000
FE0000000000
FE0000000000
FE0000000000
FE0000000000
FE0000000000
FF0000000000
FF0000000000
FF0000000000
7F0000000000
7F8000000000
7F8000000000
3F8000000200
3FC0000003E0
3FC0000007F8
1FE000000FF8
1FF000001FF0
0FF800003FE0
0FFC00007FE0
07FF0000FFC0
03FFC007FF80
01FFFFFFFF00
00FFFFFFFE00
007FFFFFFC00
001FFFFFF800
000FFFFFE000
0001FFFF8000
00003FF80000
ENDCHAR
STARTCHAR 0064
ENCODING 100
SWIDTH 592 0
DWIDTH 56 0
BBX 45 69 4 -1
BITMAP
0000000003F8
0000000003F8
0000000003F8
0000000003F8
0000000003F8
0000000003F8
0000000003F8
0000000003F8
0000000003F8
0000000003F8
0000000003F8
0000000003F8
0000000003F8
0000000003F8
0000000003F8
0000000003F8
00007FE003F8
0003FFFC03F8
000FFFFF83F8
003FFFFFC3F8
007FFFFFE3F8
00FFFFFFFBF8
01FFFFFFFFF8
03FF8007FFF8
07FE0001FFF8
0FFC00007FF8
0FF800003FF8
1FF000001FF8
1FE000001FF8
3FC000000FF8
3FC0000007F8
7F80000007F8
7F80000007F8
7F00000003F8
7F00000003F8
FF00000003F8
FF00000001F8
FE00000001F8
FE00000001F8
FE00000001F8
FE00000001F8
FE00000001F8
FE00000001F8
FE00000001F8
FE00000001F8
FE00000001F8
FE00000001F8
FF00000001F8
FF00000001F8
FF00000003F8
7F00000003F8
7F00000003F8
7F80000007F8
7F80000007F8
3FC0000007F8
3FC000000FF8
1FE000001FF8
1FF000001FF8
0FF800003FF8
0FFC00007FF8
07FE0001FFF8
03FF8007FDF8
01FFFFFFFDF8
00FFFFFFF9F8
007FFFFFE1F8
003FFFFFC1F8
000FFFFF81F8
0003FFFE01F8
00007FE00000
ENDCHAR
STARTCHAR 0065
ENCODING 101
SWIDTH 582 0
DWIDTH 55 0
BBX 47 53 4 -1
BITMAP
00003FF80000
0001FFFF8000
0007FFFFE000
001FFFFFF800
007FFFFFFC00
00FFFFFFFE00
01FFFE3FFF00
03FF8001FF80
07FE00007FC0
07FC00003FE0
0FF800001FE0
1FF000000FF0
1FE0000007F0
3FC0000007F8
3FC0000003F8
3F80000003FC
7F80000001FC
7F00000001FC
7F00000001FC
FF00000000FE
FF00000000FE
FE00000000FE
FE00000000FE
FFFFFFFFFFFE
FFFFFFFFFFFE
FFFFFFFFFFFE
FFFFFFFFFFFE
FFFFFFFFFFFE
FFFFFFFFFFFE
FE0000000000
FE0000000000
FE0000000000
FF0000000000
FF0000000000
7F0000000000
7F0000000000
7F8000000000
7F8000000080
3FC0000001F0
3FC0000003FC
1FE0000007FC
1FF0000007F8
0FF800001FF8
0FFC00003FF0
07FF0000FFE0
03FFC003FFC0
01FFFFFFFF80
00FFFFFFFF00
007FFFFFFE00
001FFFFFF800
0007FFFFE000
0001FFFF8000
00001FFC0000
ENDCHAR
STARTCHAR 0066
ENCODING 102
SWIDTH 349 0
DWIDTH 33 0
BBX 30 69 3 0
BITMAP
00003FFC
0001FFFC
0007FFFC
000FFFFC
001FFFFC
003FFFFC
003FF000
003FC000
007F8000
007F0000
007F0000
007F0000
007F0000
007F0000
007F0000
007F0000
007F0000
007F0000
FFFFFFFC
FFFFFFFC
FFFFFFFC
FFFFFFFC
FFFFFFFC
FFFFFFFC
007F0000
007F0000
007F0000
007F0000
007F0000
007F0000
007F0000
007F0000
007F0000
007F0000
007F0000
007F0000
007F0000
007F0000
007F0000
007F0000
007F0000
007F0000
007F0000
007F0000
007F0000
007F0000
007F0000
007F0000
007F0000
007F0000
007F0000
007F0000
007F0000
007F0000
007F0000
007F0000
007F0000
007F0000
007F0000
007F0000
007F0000
007F0000
007F0000
007F0000
007F0000
007F0000
007F0000
007F0000
007F0000
ENDCHAR
STARTCHAR 0067
ENCODING 103
SWIDTH 592 0
DWIDTH 56 0
BBX 45 76 4 -24
BITMAP
00007FE00000
0003FFFC01F8
000FFFFF81F8
003FFFFFC1F8
007FFFFFF1F8
00FFFFFFF9F8
01FFFFFFFDF8
03FF8007FFF8
07FE0001FFF8
0FFC00007FF8
0FF800003FF8
1FF000001FF8
1FE000001FF8
3FC000000FF8
3FC0000007F8
7F80000007F8
7F80000007F8
7F00000003F8
7F00000003F8
FF00000003F8
FF00000001F8
FE00000001F8
FE00000001F8
FE00000001F8
FE00000001F8
FE00000001F8
FE00000001F8
FE00000001F8
FE00000001F8
FE00000001F8
FE00000001F8
FF00000001F8
FF00000001F8
FF00000003F8
7F00000003F8
7F00000003F8
7F80000007F8
7F80000007F8
3FC0000007F8
3FC000000FF8
1FE000001FF8
1FF000001FF8
0FF800003FF8
0FFC00007FF8
07FE0001FFF8
03FF8007FFF8
01FFFFFFFFF8
00FFFFFFFBF8
007FFFFFE3F8
003FFFFFC3F8
000FFFFF83F8
0003FFFE03F8
00007FE003F8
0000000003F8
0000000003F8
0000000003F8
0000000003F8
0000000003F8
0000000003F8
0000000007F8
0000000007F0
008000000FF0
03C000000FF0
07E000001FF0
1FE000001FE0
1FF800003FE0
0FFC0000FFC0
07FF0001FFC0
03FFE00FFF80
01FFFFFFFF00
00FFFFFFFE00
007FFFFFFC00
003FFFFFF800
000FFFFFE000
0001FFFF0000
00001FF00000
ENDCHAR
STARTCHAR 0068
ENCODING 104
SWIDTH 592 0
DWIDTH 56 0
BBX 43 68 7 0
BITMAP
FC0000000000
FC0000000000
FC0000000000
FC0000000000
FC0000000000
FC0000000000
FC0000000000
FC0000000000
FC0000000000
FC0000000000
FC0000000000
FC0000000000
FC0000000000
FC0000000000
FC0000000000
FC0000000000
FC003FF00000
FC03FFFE0000
FC0FFFFF8000
FC1FFFFFE000
FC7FFFFFF000
FCFFFFFFF800
FDFFFFFFFC00
FFFF001FFE00
FFFC0007FE00
FFF00001FF00
FFE00000FF80
FFC00000FF80
FFC000007F80
FF8000003FC0
FF8000003FC0
FF0000001FC0
FF0000001FE0
FE0000001FE0
FE0000000FE0
FE0000000FE0
FE0000000FE0
FE0000000FE0
FE0000000FE0
FE0000000FE0
FE0000000FE0
FE0000000FE0
FE0000000FE0
FE0000000FE0
FE0000000FE0
FE0000000FE0
FE0000000FE0
FE0000000FE0
FE0000000FE0
FE0000000FE0
FE0000000FE0
FE0000000FE0
FE0000000FE0
FE0000000FE0
FE0000000FE0
FE0000000FE0
FE0000000FE0
FE0000000FE0
FE0000000FE0
FE0000000FE0
FE0000000FE0
FE0000000FE0
FE0000000FE0
FE0000000FE0
FE0000000FE0
FE0000000FE0
FE0000000FE0
FE0000000FE0
ENDCHAR
STARTCHAR 0069
ENCODING 105
SWIDTH 232 0
DWIDTH 22 0
BBX 6 68 8 0
BITMAP
FC
FC
FC
FC
FC
FC
FC
FC
00
00
00
00
00
00
00
00
00
FC
FC
FC
FC
FC
FC
FC
FC
FC
FC
FC
FC
FC
FC
FC
FC
FC
FC
FC
FC
FC
FC
FC
FC
FC
FC
FC
FC
FC
FC
FC
FC
FC
FC
FC
FC
FC
FC
FC
FC
FC
FC
FC
FC
FC
FC
FC
FC
FC
FC
FC
ENDCHAR
STARTCHAR 006A
ENCODING 106
SWIDTH 254 0
DWIDTH 24 0
BBX 17 91 -1 -23
BITMAP
003F80
003F80
003F80
003F80
003F80
003F80
003F80
003F80
000000
000000
000000
000000
000000
000000
000000
000000
000000
003F80
003F80
003F80
003F80
003F80
003F80
003F80
003F80
003F80
003F80
003F80
003F80
003F80
003F80
003F80
003F80
003F80
003F80
003F80
003F80
003F80
003F80
003F80
003F80
003F80
003F80
003F80
003F80
003F80
003F80
003F80
003F80
003F80
003F80
003F80
003F80
003F80
003F80
003F80
003F80
003F80
003F80
003F80
003F80
003F80
003F80
003F80
003F80
003F80
003F80
003F80
003F80
003F80
003F80
003F80
003F80
003F80
003F80
003F80
003F80
003F80
003F80
003F80
003F80
007F80
00FF80
03FF80
FFFF00
FFFF00
FFFE00
FFFC00
FFF800
FFF000
FF0000
ENDCHAR
STARTCHAR 006B
ENCODING 107
SWIDTH 497 0
DWIDTH 47 0
BBX 41 68 7 0
BITMAP
FE0000000000
FE0000000000
FE0000000000
FE0000000000
FE0000000000
FE0000000000
FE0000000000
FE0000000000
FE0000000000
FE0000000000
FE0000000000
FE0000000000
FE0000000000
FE0000000000
FE0000000000
FE0000000000
FE0000000000
FE000007FC00
FE00000FF800
FE00001FF000
FE00003FE000
FE00007FC000
FE0000FF8000
FE0001FF8000
FE0003FF0000
FE0007FE0000
FE0007FC0000
FE000FF80000
FE001FF00000
FE003FE00000
FE007FC00000
FE00FF800000
FE01FF000000
FE03FE000000
FE07FC000000
FE0FF8000000
FE1FF0000000
FE3FE0000000
FE7FC0000000
FEFFC0000000
FEFF80000000
FFFF00000000
FFFE00000000
FFFF00000000
FEFF80000000
FE7FC0000000
FE3FE0000000
FE1FF0000000
FE0FF8000000
FE07FC000000
FE03FE000000
FE01FF000000
FE00FF800000
FE007FC00000
FE003FE00000
FE001FF80000
FE000FFC0000
FE0007FE0000
FE0003FF0000
FE0001FF8000
FE0000FFC000
FE00007FE000
FE00003FF000
FE00001FF800
FE00000FFC00
FE000007FE00
FE000003FF00
FE000001FF80
ENDCHAR
STARTCHAR 006C
ENCODING 108
SWIDTH 232 0
DWIDTH 22 0
BBX 6 68 8 0
BITMAP
FC
FC
FC
FC
FC
FC
FC
FC
FC
FC
FC
FC
FC
FC
FC
FC
FC
FC
FC
FC
FC
FC
FC
FC
FC
FC
FC
FC
FC
FC
FC
FC
FC
FC
FC
FC
FC
FC
FC
FC
FC
FC
FC
FC
FC
FC
FC
FC
FC
FC
FC
FC
FC
FC
FC
FC
FC
FC
FC
FC
FC
FC
FC
FC
FC
FC
FC
FC
ENDCHAR
STARTCHAR 006D
ENCODING 109
SWIDTH 847 0
DWIDTH 80 0
BBX 67 52 7 0
BITMAP
0000FF000003FE0000
FC07FFF0001FFFC000
FC1FFFFC007FFFF000
FC7FFFFE01FFFFF800
FCFFFFFF03FFFFFE00
FDFFFFFF87FFFFFF00
FFFF07FFCFFC0FFF00
FFF800FFCFE003FF80
FFE0003FFFC000FF80
FFC0001FFF00007FC0
FF80001FFF00003FC0
FF80000FFE00001FE0
FF000007FC00001FE0
FF000007FC00000FE0
FE000007FC00000FE0
FE000003F800000FE0
FE000003F800000FE0
FE000003F800000FE0
FE000003F800000FE0
FE000003F800000FE0
FE000003F800000FE0
FE000003F800000FE0
FE000003F800000FE0
FE000003F800000FE0
FE000003F800000FE0
FE000003F800000FE0
FE000003F800000FE0
FE000003F800000FE0
FE000003F800000FE0
FE000003F800000FE0
FE000003F800000FE0
FE000003F800000FE0
FE000003F800000FE0
FE000003F800000FE0
FE000003F800000FE0
FE000003F800000FE0
FE000003F800000FE0
FE000003F800000FE0
FE000003F800000FE0
FE000003F800000FE0
FE000003F800000FE0
FE000003F800000FE0
FE000003F800000FE0
FE000003F800000FE0
FE000003F800000FE0
FE000003F800000FE0
FE000003F800000FE0
FE000003F800000FE0
FE000003F800000FE0
FE000003F800000FE0
FE000003F800000FE0
FE000003F800000FE0
ENDCHAR
STARTCHAR 006E
ENCODING 110
SWIDTH 592 0
DWIDTH 56 0
BBX 43 52 7 0
BITMAP
00003FF00000
FC03FFFE0000
FC0FFFFF8000
FC1FFFFFE000
FC7FFFFFF000
FCFFFFFFF800
FDFFFFFFFC00
FFFF001FFE00
FFFC0007FE00
FFF00001FF00
FFE00000FF80
FFC00000FF80
FFC000007F80
FF8000003FC0
FF8000003FC0
FF0000001FC0
FF0000001FE0
FE0000001FE0
FE0000000FE0
FE0000000FE0
FE0000000FE0
FE0000000FE0
FE0000000FE0
FE0000000FE0
FE0000000FE0
FE0000000FE0
FE0000000FE0
FE0000000FE0
FE0000000FE0
FE0000000FE0
FE0000000FE0
FE0000000FE0
FE0000000FE0
FE0000000FE0
FE0000000FE0
FE0000000FE0
FE0000000FE0
FE0000000FE0
FE0000000FE0
FE0000000FE0
FE0000000FE0
FE0000000FE0
FE0000000FE0
FE0000000FE0
FE0000000FE0
FE0000000FE0
FE0000000FE0
FE0000000FE0
FE0000000FE0
FE0000000FE0
FE0000000FE0
FE0000000FE0
ENDCHAR
STARTCHAR 006F
ENCODING 111
SWIDTH 592 0
DWIDTH 56 0
BBX 48 53 4 -1
BITMAP
00003FF80000
0001FFFF8000
000FFFFFE000
001FFFFFF800
007FFFFFFE00
00FFFFFFFF00
01FFFFFFFF80
03FFC003FFC0
07FF0000FFE0
0FFC00003FE0
0FF800001FF0
1FF000000FF8
1FE0000007F8
3FC0000003FC
3FC0000003FC
7F80000001FC
7F80000001FE
7F00000001FE
7F00000000FE
FF00000000FE
FF00000000FF
FF00000000FF
FE00000000FF
FE000000007F
FE000000007F
FE000000007F
FE000000007F
FE000000007F
FE000000007F
FE000000007F
FE00000000FF
FE00000000FF
FF00000000FF
FF00000000FE
7F00000000FE
7F00000001FE
7F80000001FE
7F80000001FC
3FC0000003FC
3FC0000007FC
1FE0000007F8
1FF000000FF8
0FF800001FF0
07FC00003FE0
07FF0000FFE0
03FFC003FFC0
01FFFFFFFF80
00FFFFFFFF00
007FFFFFFE00
001FFFFFF800
000FFFFFE000
0001FFFF8000
00003FF80000
ENDCHAR
STARTCHAR 0070
ENCODING 112
SWIDTH 592 0
DWIDTH 56 0
BBX 45 74 7 -22
BITMAP
00003FF00000
FC03FFFE0000
FC0FFFFF8000
FC1FFFFFE000
FC7FFFFFF000
FCFFFFFFF800
FDFFFFFFFC00
FFFF001FFE00
FFFC0003FF00
FFF00001FF80
FFE00000FF80
FFC000007FC0
FF8000003FC0
FF8000001FE0
FF0000001FE0
FF0000000FE0
FE0000000FF0
FE0000000FF0
FE00000007F0
FC00000007F0
FC00000007F8
FC00000007F8
FC00000003F8
FC00000003F8
FC00000003F8
FC00000003F8
FC00000003F8
FC00000003F8
FC00000003F8
FC00000003F8
FC00000003F8
FC00000007F8
FC00000007F8
FE00000007F0
FE00000007F0
FE0000000FF0
FE0000000FF0
FF0000000FE0
FF0000001FE0
FF8000001FE0
FF8000003FC0
FFC000007FC0
FFE00000FF80
FFF00001FF80
FFFC0003FF00
FFFF000FFE00
FFFFFBFFFC00
FEFFFFFFF800
FE7FFFFFF000
FE1FFFFFE000
FE0FFFFF8000
FE03FFFE0000
FE003FE00000
FE0000000000
FE0000000000
FE0000000000
FE0000000000
FE0000000000
FE0000000000
FE0000000000
FE0000000000
FE0000000000
FE0000000000
FE0000000000
FE0000000000
FE0000000000
FE0000000000
FE0000000000
FE0000000000
FE0000000000
FE0000000000
FE0000000000
FE0000000000
FE0000000000
ENDCHAR
STARTCHAR 0071
ENCODING 113
SWIDTH 592 0
DWIDTH 56 0
BBX 45 74 4 -22
BITMAP
00007FE00000
0003FFFC01F8
000FFFFF81F8
003FFFFFC1F8
007FFFFFF1F8
00FFFFFFF9F8
01FFFFFFFDF8
03FF8007FFF8
07FE0001FFF8
0FFC00007FF8
0FF800003FF8
1FF000001FF8
1FE000001FF8
3FC000000FF8
3FC0000007F8
7F80000007F8
7F80000007F8
7F00000003F8
7F00000003F8
FF00000003F8
FF00000001F8
FE00000001F8
FE00000001F8
FE00000001F8
FE00000001F8
FE00000001F8
FE00000001F8
FE00000001F8
FE00000001F8
FE00000001F8
FE00000001F8
FF00000001F8
FF00000001F8
FF00000003F8
7F00000003F8
7F00000003F8
7F80000007F8
7F80000007F8
3FC0000007F8
3FC000000FF8
1FE000001FF8
1FF000001FF8
0FF800003FF8
0FFC00007FF8
07FE0001FFF8
03FF8007FFF8
01FFFFFFFFF8
00FFFFFFFBF8
007FFFFFE3F8
003FFFFFC3F8
000FFFFF83F8
0003FFFE03F8
00007FE003F8
0000000003F8
0000000003F8
0000000003F8
0000000003F8
0000000003F8
0000000003F8
0000000003F8
0000000003F8
0000000003F8
0000000003F8
0000000003F8
0000000003F8
0000000003F8
0000000003F8
0000000003F8
0000000003F8
0000000003F8
0000000003F8
0000000003F8
0000000003F8
0000000003F8
ENDCHAR
STARTCHAR 0072
ENCODING 114
SWIDTH 360 0
DWIDTH 34 0
BBX 25 51 7 1
BITMAP
FC00FF80
FC07FF80
FC0FFF80
FC3FFF80
FC7FFF80
FCFFFF80
FDFFFF80
FFFE0000
FFFC0000
FFF00000
FFE00000
FFC00000
FFC00000
FF800000
FF000000
FF000000
FF000000
FE000000
FE000000
FE000000
FE000000
FE000000
FE000000
FE000000
FE000000
FE000000
FE000000
FE000000
FE000000
FE000000
FE000000
FE000000
FE000000
FE000000
FE000000
FE000000
FE000000
FE000000
FE000000
FE000000
FE000000
FE000000
FE000000
FE000000
FE000000
FE000000
FE000000
FE000000
FE000000
FE000000
FE000000
ENDCHAR
STARTCHAR 0073
ENCODING 115
SWIDTH 529 0
DWIDTH 50 0
BBX 42 53 4 -1
BITMAP
0001FFC00000
001FFFFC0000
007FFFFF0000
01FFFFFFC000
03FFFFFFF000
07FFFFFFF800
0FFFC1FFFC00
1FFC001FFE00
1FF00007FE00
3FC00001FF00
3F800000FF00
3F8000007F80
7F8000007F80
7F0000003F80
7F0000003FC0
7F8000003800
7F8000000000
3FC000000000
3FE000000000
3FF800000000
1FFE00000000
0FFFC0000000
07FFFC000000
03FFFFC00000
00FFFFF80000
003FFFFF0000
0007FFFFC000
0000FFFFF000
00000FFFFC00
000000FFFE00
0000001FFF00
00000003FF00
00000000FF80
000000007F80
000000003F80
000000003FC0
000000003FC0
020000001FC0
FE0000003FC0
FF0000003FC0
FF0000003F80
7F8000003F80
7FC000007F80
3FE00000FF80
3FF80001FF00
1FFE0007FF00
0FFFE07FFE00
07FFFFFFFC00
03FFFFFFF800
01FFFFFFF000
007FFFFFC000
000FFFFF0000
0001FFF00000
ENDCHAR
STARTCHAR 0074
ENCODING 116
SWIDTH 402 0
DWIDTH 38 0
BBX 33 66 1 -2
BITMAP
001FC00000
001FC00000
001FC00000
001FC00000
001FC00000
001FC00000
001FC00000
001FC00000
001FC00000
001FC00000
001FC00000
001FC00000
001FC00000
001FC00000
FFFFFFFF80
FFFFFFFF80
FFFFFFFF80
FFFFFFFF80
FFFFFFFF80
FFFFFFFF80
001FC00000
001FC00000
001FC00000
001FC00000
001FC00000
001FC00000
001FC00000
001FC00000
001FC00000
001FC00000
001FC00000
001FC00000
001FC00000
001FC00000
001FC00000
001FC00000
001FC00000
001FC00000
001FC00000
001FC00000
001FC00000
001FC00000
001FC00000
001FC00000
001FC00000
001FC00000
001FC00000
001FC00000
001FC00000
001FC00000
001FC00000
001FC00000
001FC00000
001FC00000
001FC00000
001FE00000
001FE00000
000FF00000
000FFC0000
0007FF8180
0007FFFF80
0003FFFF80
0001FFFF80
0000FFFF80
00003FFF80
000007FF00
ENDCHAR
STARTCHAR 0075
ENCODING 117
SWIDTH 592 0
DWIDTH 56 0
BBX 43 52 6 -1
BITMAP
FE00000007E0
FE00000007E0
FE00000007E0
FE00000007E0
FE00000007E0
FE00000007E0
FE00000007E0
FE00000007E0
FE00000007E0
FE00000007E0
FE00000007E0
FE00000007E0
FE00000007E0
FE00000007E0
FE00000007E0
FE00000007E0
FE00000007E0
FE00000007E0
FE00000007E0
FE00000007E0
FE00000007E0
FE00000007E0
FE00000007E0
FE00000007E0
FE00000007E0
FE00000007E0
FE00000007E0
FE00000007E0
FE0000000FE0
FE0000000FE0
FE0000000FE0
FE0000000FE0
FE0000000FE0
FE0000000FE0
FF0000000FE0
FF0000001FE0
7F0000001FE0
7F8000001FE0
7F8000003FE0
3FC000007FE0
3FC000007FE0
1FE00000FFE0
1FF00001FFE0
0FFC0007FFE0
0FFF001FFFE0
07FFFFFFF7E0
03FFFFFFE7E0
01FFFFFFC7E0
00FFFFFF07E0
003FFFFE07E0
000FFFF807E0
0001FF800000
ENDCHAR
STARTCHAR 0076
ENCODING 118
SWIDTH 508 0
DWIDTH 48 0
BBX 44 51 2 0
BITMAP
FE00000007F0
FE0000000FF0
7F0000000FE0
7F0000000FE0
7F8000001FC0
3F8000001FC0
3F8000001FC0
1FC000003F80
1FC000003F80
1FC000003F80
0FE000007F00
0FE000007F00
0FE00000FF00
07F00000FE00
07F00000FE00
07F80001FC00
03F80001FC00
03F80001FC00
01FC0003F800
01FC0003F800
01FC0003F800
00FE0007F000
00FE0007F000
00FE0007F000
007F000FE000
007F000FE000
007F000FC000
003F801FC000
003F801FC000
001FC03F8000
001FC03F8000
001FC03F8000
000FE07F0000
000FE07F0000
000FE07F0000
0007F0FE0000
0007F0FE0000
0007F0FC0000
0003F9FC0000
0003F9FC0000
0001F9F80000
0001FFF80000
0001FFF80000
0000FFF00000
0000FFF00000
0000FFF00000
00007FE00000
00007FE00000
00007FC00000
00003FC00000
00003FC00000
ENDCHAR
STARTCHAR 0077
ENCODING 119
SWIDTH 762 0
DWIDTH 72 0
BBX 68 51 2 0
BITMAP
FE000001FC000003F0
FE000001FC000007F0
7F000003FC000007F0
7F000003FC000007F0
7F000003FE00000FE0
3F800007FE00000FE0
3F800007FE00000FE0
3F800007FF00001FC0
3F80000FFF00001FC0
1FC0000FFF00001FC0
1FC0000FFF80003F80
1FC0000FDF80003F80
0FE0001FDF80003F80
0FE0001F9FC0003F00
0FE0001F9FC0007F00
07F0003F8FC0007F00
07F0003F0FC0007F00
07F0003F0FE000FE00
03F0007F07E000FE00
03F8007E07E000FE00
03F8007E07F001FC00
03F800FE03F001FC00
01FC00FC03F001FC00
01FC00FC03F803F800
01FC00FC01F803F800
00FE01FC01F803F800
00FE01F801FC03F800
00FE01F800FC07F000
007F03F800FC07F000
007F03F000FC07F000
007F03F0007E0FE000
007F07F0007E0FE000
003F87E0007E0FE000
003F87E0007F1FC000
003F8FE0003F1FC000
001FCFC0003F1FC000
001FCFC0003FBF8000
001FCFC0001FBF8000
000FFF80001FBF8000
000FFF80001FBF8000
000FFF80000FFF0000
0007FF00000FFF0000
0007FF00000FFF0000
0007FF000007FE0000
0007FF000007FE0000
0003FE000007FE0000
0003FE000003FC0000
0003FE000003FC0000
0001FC000003FC0000
0001FC000003F80000
0001FC000001F80000
ENDCHAR
STARTCHAR 0078
ENCODING 120
SWIDTH 529 0
DWIDTH 50 0
BBX 47 51 1 0
BITMAP
7F80000001FE
3FC0000003FC
3FE0000007F8
1FE000000FF8
0FF000000FF0
07F800001FE0
07FC00003FC0
03FC00007FC0
01FE00007F80
00FF0000FF00
00FF8001FE00
007FC003FC00
003FC003FC00
001FE007F800
000FF00FF000
000FF81FE000
0007F81FE000
0003FC3FC000
0001FE7F8000
0001FFFF0000
0000FFFF0000
00007FFE0000
00003FFC0000
00001FF80000
00001FF00000
00000FF00000
00001FF80000
00003FFC0000
00007FFC0000
00007FFE0000
0000FFFF0000
0001FE7F8000
0003FC7FC000
0007FC3FC000
0007F81FE000
000FF00FF000
001FE00FF800
003FE007F800
003FC003FC00
007F8001FE00
00FF0001FF00
01FF0000FF00
03FE00007F80
03FC00003FC0
07F800001FE0
0FF000001FF0
1FF000000FF0
1FE0000007F8
3FC0000003FC
7F80000003FE
FF80000001FE
ENDCHAR
STARTCHAR 0079
ENCODING 121
SWIDTH 529 0
DWIDTH 50 0
BBX 46 74 2 -23
BITMAP
FE00000001FC
FF00000001FC
7F00000003F8
7F00000003F8
7F80000007F8
3F80000007F0
3FC0000007F0
1FC000000FE0
1FC000000FE0
1FE000000FE0
0FE000001FC0
0FF000001FC0
07F000001FC0
07F000003F80
07F800003F80
03F800007F00
03FC00007F00
01FC00007F00
01FC0000FE00
01FE0000FE00
00FE0000FE00
00FF0001FC00
007F0001FC00
007F0003F800
003F8003F800
003F8003F800
003FC007F000
001FC007F000
001FC007F000
000FE00FE000
000FE00FE000
000FF00FE000
0007F01FC000
0007F01FC000
0003F83F8000
0003F83F8000
0003FC3F8000
0001FC7F0000
0001FC7F0000
0000FE7F0000
0000FEFE0000
0000FFFE0000
00007FFC0000
00007FFC0000
00003FFC0000
00003FF80000
00003FF80000
00001FF80000
00001FF00000
00000FF00000
00000FE00000
00000FE00000
00000FE00000
00001FC00000
00001FC00000
00001FC00000
00003F800000
00003F800000
00007F000000
00007F000000
00007F000000
0000FE000000
0000FE000000
0000FE000000
0001FC000000
0001FC000000
0001F8000000
0003F8000000
0003F8000000
0007F0000000
0007F0000000
0007F0000000
000FE0000000
000FE0000000
ENDCHAR
STARTCHAR 007A
ENCODING 122
SWIDTH 529 0
DWIDTH 50 0
BBX 44 51 2 0
BITMAP
3FFFFFFFFFF0
3FFFFFFFFFF0
3FFFFFFFFFF0
3FFFFFFFFFE0
3FFFFFFFFFC0
3FFFFFFFFF80
000000007F00
00000000FF00
00000001FE00
00000003FC00
00000003F800
00000007F800
0000000FF000
0000001FE000
0000001FC000
0000003FC000
0000007F8000
000000FF0000
000000FE0000
000001FE0000
000003FC0000
000007F80000
000007F00000
00000FE00000
00001FE00000
00003FC00000
00007F800000
00007F000000
0000FF000000
0001FE000000
0003FC000000
0003F8000000
0007F8000000
000FF0000000
001FE0000000
001FC0000000
003FC0000000
007F80000000
00FF00000000
00FE00000000
01FC00000000
03FC00000000
07F800000000
0FF000000000
0FE000000000
1FFFFFFFFFC0
3FFFFFFFFFC0
7FFFFFFFFFC0
7FFFFFFFFFC0
FFFFFFFFFFC0
FFFFFFFFFFC0
ENDCHAR
STARTCHAR 007B
ENCODING 123
SWIDTH 423 0
DWIDTH 40 0
BBX 23 105 13 -21
BITMAP
0007FE
001FFE
003FFE
00FFFE
00FFFE
01FFFE
01FFFE
03FC00
03F800
03F800
03F000
03F000
03F000
03F000
03F000
03F000
03F000
03F000
03F000
03F000
03F000
03F000
03F000
03F000
03F000
03F000
03F000
03F000
03F000
03F000
03F000
03F000
03F000
03F000
03F000
03F000
03F000
03F000
03F000
03F000
03F000
03F000
03F000
07F000
07F000
0FF000
0FE000
1FE000
3FC000
7FC000
7F8000
FF0000
FF0000
FF0000
7F8000
3FC000
3FE000
1FE000
0FF000
07F000
07F000
07F000
03F000
03F000
03F000
03F000
03F000
03F000
03F000
03F000
03F000
03F000
03F000
03F000
03F000
03F000
03F000
03F000
03F000
03F000
03F000
03F000
03F000
03F000
03F000
03F000
03F000
03F000
03F000
03F000
03F000
03F000
03F000
03F000
03F000
03F800
03FC00
03FE00
01FFFE
01FFFE
00FFFE
007FFE
003FFE
000FFE
0001FE
ENDCHAR
STARTCHAR 007C
ENCODING 124
SWIDTH 254 0
DWIDTH 24 0
BBX 7 68 8 0
BITMAP
FE
FE
FE
FE
FE
FE
FE
FE
FE
FE
FE
FE
FE
FE
FE
FE
FE
FE
FE
FE
FE
FE
FE
FE
FE
FE
FE
FE
FE
FE
FE
FE
FE
FE
FE
FE
FE
FE
FE
FE
FE
FE
FE
FE
FE
FE
FE
FE
FE
FE
FE
FE
FE
FE
FE
FE
FE
FE
FE
FE
FE
FE
FE
FE
FE
FE
FE
FE
ENDCHAR
STARTCHAR 007D
ENCODING 125
SWIDTH 423 0
DWIDTH 40 0
BBX 22 105 4 -21
BITMAP
FF8000
FFF000
FFF800
FFFC00
FFFE00
FFFF00
FFFF00
00FF00
007F80
003F80
003F80
003F80
003F80
003F80
003F80
003F80
003F80
003F80
003F80
003F80
003F80
003F80
003F80
003F80
003F80
003F80
003F80
003F80
003F80
003F80
003F80
003F80
003F80
003F80
003F80
003F80
003F80
003F80
003F80
003F80
003F80
003F80
003F80
003F80
001FC0
001FC0
001FE0
000FF0
000FF0
0007F8
0003FC
0003FC
0001FC
0003FC
0007FC
0007F8
000FF0
001FF0
001FE0
001FC0
003F80
003F80
003F80
003F80
003F80
003F80
003F80
003F80
003F80
003F80
003F80
003F80
003F80
003F80
003F80
003F80
003F80
003F80
003F80
003F80
003F80
003F80
003F80
003F80
003F80
003F80
003F80
003F80
003F80
003F80
003F80
003F80
003F80
003F80
003F80
003F80
007F80
00FF00
FFFF00
FFFE00
FFFE00
FFFC00
FFF800
FFE000
FF0000
ENDCHAR
STARTCHAR 007E
ENCODING 126
SWIDTH 667 0
DWIDTH 63 0
BBX 41 15 11 22
BITMAP
01FC00000000
0FFF00007F00
1FFFE0007F00
3FFFF0007F80
7FFFFC007F80
7FFFFF007F80
FFFFFFC0FF00
FFFFFFFFFF00
FF03FFFFFF00
FF00FFFFFF00
FE003FFFFE00
FE000FFFFC00
FE0003FFF800
FE0000FFF000
0000001FC000
ENDCHAR
STARTCHAR 00A0
ENCODING 160
SWIDTH 201 0
DWIDTH 19 0
BBX 0 0 0 0
BITMAP
ENDCHAR
STARTCHAR 00A1
ENCODING 161
SWIDTH 317 0
DWIDTH 30 0
BBX 7 68 11 -17
BITMAP
FE
FE
FE
FE
FE
FE
FE
FE
00
00
00
00
00
00
00
00
00
FE
FE
FE
FE
FE
FE
FE
FE
FE
FE
FE
FE
FE
FE
FE
FE
FE
FE
FE
FE
FE
FE
FE
FE
FE
FE
FE
FE
FE
FE
FE
FE
FE
FE
FE
FE
FE
FE
FE
FE
FE
FE
FE
FE
FE
FE
FE
FE
FE
FE
FE
ENDCHAR
STARTCHAR 00A2
ENCODING 162
SWIDTH 550 0
DWIDTH 52 0
BBX 45 71 4 -3
BITMAP
000007E00000
000007E00000
000007E00000
000007E00000
000007E00000
000007E00000
000007E00000
000007E00000
000007E00000
00007FFE0000
0003FFFFC000
000FFFFFF000
003FFFFFF800
007FFFFFFE00
01FFFFFFFF00
03FFF01FFF80
03FF8003FFC0
07FE0000FFE0
0FFC00003FE0
0FF000001FF0
1FF000000FF0
1FE0000007F8
3FC0000007F8
3FC0000003E0
7F8000000200
7F8000000000
7F0000000000
7F0000000000
FF0000000000
FF0000000000
FF0000000000
FE0000000000
FE0000000000
FE0000000000
FE0000000000
FE0000000000
FE0000000000
FE0000000000
FE0000000000
FE0000000000
FE0000000000
FF0000000000
FF0000000000
7F0000000000
7F0000000000
7F8000000000
7F8000000000
3FC000000380
3FC0000007F8
1FE0000007F8
1FF000000FF0
0FF000001FF0
0FF800003FE0
07FE00007FC0
03FF8001FFC0
03FFF01FFF80
01FFFFFFFF00
007FFFFFFE00
003FFFFFF800
001FFFFFF000
0007FFFFC000
0000FFFE0000
000007E00000
000007E00000
000007E00000
000007E00000
000007E00000
000007E00000
000007E00000
000007E00000
000007E00000
ENDCHAR
STARTCHAR 00A3
ENCODING 163
SWIDTH 571 0
DWIDTH 54 0
BBX 48 69 3 0
BITMAP
0000007FC000
000003FFF000
00000FFFFC00
00003FFFFF00
00007FFFFF80
0000FFFFFFC0
0001FFFFFFE0
0001FF807FE0
0003FE001FF0
0007FC000FF8
0007F80007F8
0007F00003FC
000FF00001FC
000FE00001FE
000FE00000FE
000FE00000FE
000FE000007F
000FE0000078
000FE0000040
000FE0000000
000FE0000000
000FE0000000
000FE0000000
000FE0000000
000FE0000000
000FE0000000
000FE0000000
000FE0000000
000FE0000000
000FE0000000
000FE0000000
FFFFFFFFF000
FFFFFFFFF000
FFFFFFFFF000
FFFFFFFFF000
FFFFFFFFF000
FFFFFFFFF000
FFFFFFFFF000
000FE0000000
000FE0000000
000FE0000000
000FE0000000
000FE0000000
000FE0000000
000FE0000000
000FE0000000
000FE0000000
000FE0000000
000FE0000000
000FE0000000
000FE0000000
000FE0000000
000FE0000000
000FE0000000
000FE0000000
000FE0000000
000FE0000000
001FE0000000
001FE0000000
003FE0000000
003FE0000000
00FFE0000000
FFFFFFFFFFF8
FFFFFFFFFFF8
FFFFFFFFFFF8
FFFFFFFFFFF8
FFFFFFFFFFF8
FFFFFFFFFFF8
FFFFFFFFFFF8
ENDCHAR
STARTCHAR 00A4
ENCODING 164
SWIDTH 645 0
DWIDTH 61 0
BBX 54 56 3 6
BITMAP
08000000000000
1C000000000060
3E0000000000F0
7F0003FF0001F8
FF801FFFF003FC
FFC0FFFFFC07FC
7FE1FFFFFF0FF8
3FF7FFFFFFDFF0
1FFFFFFFFFFFE0
0FFFFF87FFFFC0
07FFF8003FFF80
03FFE0000FFF00
01FF800003FE00
01FF000001FE00
03FC000000FF00
03FC0000007F80
07F80000003F80
07F00000001FC0
0FE00000001FC0
0FE00000000FE0
0FC00000000FE0
1FC000000007E0
1FC000000007E0
1F8000000007F0
1F8000000007F0
1F8000000003F0
1F8000000003F0
1F8000000003F0
1F8000000003F0
1F8000000003F0
1F8000000003F0
1F8000000003F0
1F8000000007F0
1FC000000007E0
1FC000000007E0
0FC00000000FE0
0FE00000000FE0
0FE00000001FC0
07F00000001FC0
07F80000003F80
03FC0000007F80
03FC000000FF00
01FF000001FE00
01FF800003FE00
03FFC0000FFF00
07FFF8003FFF80
0FFFFF03FFFFC0
1FFFFFFFFFFFE0
3FF7FFFFFFDFF0
7FE1FFFFFF0FF8
FFC0FFFFFC07FC
FF801FFFF003FC
7F0003FF0001F8
3E0000000000F0
1C000000000060
08000000000000
ENDCHAR
STARTCHAR 00A5
ENCODING 165
SWIDTH 561 0
DWIDTH 53 0
BBX 52 68 0 0
BITMAP
FF000000000FF0
7F800000000FF0
7F800000001FE0
3FC00000003FE0
1FE00000003FC0
1FE00000007F80
0FF00000007F80
0FF0000000FF00
07F8000000FF00
07F8000001FE00
03FC000003FE00
01FE000003FC00
01FE000007F800
00FF000007F800
00FF00000FF000
007F80000FF000
007F80001FE000
003FC0001FE000
001FE0003FC000
001FE0007F8000
000FF0007F8000
000FF000FF0000
0007F800FF0000
0007F801FE0000
0003FC01FE0000
0001FE03FC0000
0001FE07F80000
0000FF07F80000
0000FF0FF00000
00007F8FF00000
00007FDFE00000
00003FDFE00000
00001FFFC00000
00001FFF800000
00000FFF800000
00000FFF000000
000007FF000000
000007FE000000
00FFFFFFFFF000
00FFFFFFFFF000
00FFFFFFFFF000
00FFFFFFFFF000
00FFFFFFFFF000
00FFFFFFFFF000
000001FC000000
000001FC000000
000001FC000000
000001FC000000
000001FC000000
000001FC000000
000001FC000000
00FFFFFFFFF000
00FFFFFFFFF000
00FFFFFFFFF000
00FFFFFFFFF000
00FFFFFFFFF000
00FFFFFFFFF000
000001FC000000
000001FC000000
000001FC000000
000001FC000000
000001FC000000
000001FC000000
000001FC000000
000001FC000000
000001FC000000
000001FC000000
000001FC000000
ENDCHAR
STARTCHAR 00A6
ENCODING 166
SWIDTH 254 0
DWIDTH 24 0
BBX 7 83 8 -15
BITMAP
FE
FE
FE
FE
FE
FE
FE
FE
FE
FE
FE
FE
FE
FE
FE
FE
FE
FE
FE
FE
FE
FE
FE
FE
FE
FE
FE
FE
FE
FE
FE
FE
FE
FE
FE
00
00
00
00
00
00
00
00
00
00
00
00
00
FE
FE
FE
FE
FE
FE
FE
FE
FE
FE
FE
FE
FE
FE
FE
FE
FE
FE
FE
FE
FE
FE
FE
FE
FE
FE
FE
FE
FE
FE
FE
FE
FE
FE
FE
ENDCHAR
STARTCHAR 00A7
ENCODING 167
SWIDTH 529 0
DWIDTH 50 0
BBX 42 76 4 -14
BITMAP
0003FFC00000
001FFFF80000
007FFFFE0000
01FFFFFF8000
03FFFFFFC000
07FFFFFFE000
0FFF00FFF000
0FF8003FF800
1FF0000FF800
1FE00007FC00
3FC00003FC00
3F800001FE00
3F800001FE00
3F800000FE00
3F800000FE00
3F800000C000
3FC000000000
3FC000000000
1FE000000000
1FF800000000
0FFE00000000
07FFE0000000
03FFFC000000
01FFFFC00000
00FFFFF80000
001FFFFF0000
00FFFFFFE000
03FFFFFFF800
07FE0FFFFC00
0FF800FFFE00
1FE0001FFF00
3FC00003FF80
7F800000FF80
7F0000007FC0
7F0000003FC0
7F0000001FC0
FE0000001FC0
FE0000001FC0
FF0000001FC0
FF0000001FC0
7F8000001FC0
7FC000001FC0
7FE000003FC0
3FFC00007F80
1FFF80007F80
0FFFF001FF00
07FFFF03FF00
01FFFFFFFE00
007FFFFFF800
000FFFFFF000
0001FFFFE000
00003FFFF000
000003FFFC00
0000007FFC00
0000000FFE00
00000003FF00
00000000FF00
000000007F00
000000007F80
000000007F80
000000003F80
0F8000003F80
7F8000007F80
3F8000007F80
3FC000007F00
3FE00000FF00
1FF00000FF00
1FF80003FE00
0FFE0007FE00
07FFC03FFC00
03FFFFFFF800
01FFFFFFF000
00FFFFFFE000
003FFFFFC000
000FFFFF0000
0001FFF80000
ENDCHAR
STARTCHAR 00A8
ENCODING 168
SWIDTH 508 0
DWIDTH 48 0
BBX 26 8 11 78
BITMAP
FF003FC0
FF003FC0
FF003FC0
FF003FC0
FF003FC0
FF003FC0
FF003FC0
FF003FC0
ENDCHAR
STARTCHAR 00A9
ENCODING 169
SWIDTH 804 0
DWIDTH 76 0
BBX 70 71 3 -3
BITMAP
00000001FE00000000
0000003FFFF0000000
000003FFFFFE000000
00000FFFFFFFC00000
00003FFFFFFFF00000
0000FFFFFFFFF80000
0001FFFFFFFFFE0000
0003FFFC00FFFF0000
000FFFC0000FFF8000
001FFE000001FFE000
003FF80000007FF000
007FF00000003FF800
00FFC00000000FF800
01FF8000000007FC00
01FF0000000003FE00
03FE0000180001FF00
07FC0007FFC000FF00
07F8001FFFF0007F80
0FF0007FFFFC003FC0
0FE000FFFFFE003FC0
1FE001FFFFFF001FE0
1FC003FF01FF800FE0
3FC007FC007FC00FF0
3F800FF0003FC007F0
3F800FE0001FE007F0
7F001FC0000FE007F8
7F001FC00007E003F8
7F001F8000070003F8
7E003F8000000003F8
FE003F0000000001FC
FE003F0000000001FC
FE003F0000000001FC
FE003F0000000001FC
FE007F0000000001FC
FE007F0000000001FC
FE007F0000000001FC
FE007F0000000001FC
FE007F0000000001FC
FE003F0000000001FC
FE003F0000000001FC
FE003F0000000001FC
FE003F0000000001FC
FE003F8000000003F8
7F001F8000060003F8
7F001FC00007C003F8
7F001FC0000FE007F8
3F800FE0000FE007F0
3F800FF0001FC007F0
3FC007F8007FC00FF0
1FC003FF01FF800FE0
1FE001FFFFFF001FE0
0FE000FFFFFE003FC0
0FF0007FFFFC003FC0
07F8003FFFF0007F80
07FC0007FFC000FF80
03FE0000380001FF00
01FF0000000003FE00
01FF8000000007FC00
00FFC00000000FFC00
007FF00000003FF800
003FF8000000FFF000
001FFE000003FFE000
000FFFC0000FFFC000
0003FFFC00FFFF0000
0001FFFFFFFFFE0000
0000FFFFFFFFF80000
00003FFFFFFFF00000
00000FFFFFFFC00000
000001FFFFFE000000
0000003FFFF0000000
00000001FF00000000
ENDCHAR
STARTCHAR 00AA
ENCODING 170
SWIDTH 317 0
DWIDTH 30 0
BBX 22 27 4 26
BITMAP
001000
03FF80
0FFFE0
1FFFF0
3FFFF8
3F83F8
7E00FC
7C00FC
08007C
00007C
0001FC
00FFFC
07FFFC
1FFFFC
3FFF7C
7FC07C
FE007C
F8007C
F800FC
F800FC
F801FC
F803FC
FC07FC
7FFFBC
7FFF3C
3FFE3C
0FF83C
ENDCHAR
STARTCHAR 00AB
ENCODING 171
SWIDTH 540 0
DWIDTH 51 0
BBX 36 41 8 5
BITMAP
0001800080
0001C001C0
0003E003E0
0007F007F0
000FE00FE0
001FC00FE0
001F801FC0
003F803F80
007F007F00
00FE00FE00
01FC00FC00
01F801FC00
03F803F800
07F007F000
0FE007E000
1FC00FE000
1F801FC000
3F803F8000
7F007F0000
FE007E0000
FC00FE0000
FE007E0000
7F007F0000
3F803F8000
1FC01FC000
0FC00FE000
0FE007E000
07F007F000
03F803F800
01FC01FC00
00FC00FE00
00FE007E00
007F007F00
003F803F80
001FC01FC0
000FC00FE0
000FE007E0
0007F007F0
0003E003E0
0001C001C0
0001800080
ENDCHAR
STARTCHAR 00AC
ENCODING 172
SWIDTH 603 0
DWIDTH 57 0
BBX 45 18 6 18
BITMAP
FFFFFFFFFFF8
FFFFFFFFFFF8
FFFFFFFFFFF8
FFFFFFFFFFF8
FFFFFFFFFFF8
FFFFFFFFFFF8
0000000001F8
0000000001F8
0000000001F8
0000000001F8
0000000001F8
0000000001F8
0000000001F8
0000000001F8
0000000001F8
0000000001F8
0000000001F8
0000000001F8
ENDCHAR
STARTCHAR 00AD
ENCODING 173
SWIDTH 423 0
DWIDTH 40 0
BBX 28 6 6 27
BITMAP
FFFFFFF0
FFFFFFF0
FFFFFFF0
FFFFFFF0
FFFFFFF0
FFFFFFF0
ENDCHAR
STARTCHAR 00AE
ENCODING 174
SWIDTH 624 0
DWIDTH 59 0
BBX 45 46 7 27
BITMAP
00003FE00000
0003FFFE0000
000FFFFF8000
003FFFFFE000
007FFFFFF000
00FFFCFFF800
01FF8007FC00
03FC0001FE00
07F80000FF00
0FE000003F80
1FC000001FC0
1F8000000FC0
3F81FFE00FE0
3F01FFF807E0
7E01FFFC03F0
7E01FFFE03F0
FC01E01E01F8
FC01E00E01F8
FC01E00F01F8
F801E00F00F8
F801E00E00F8
F801E01E00F8
F801E07E00F8
F801FFFC00F8
F801FFF800F8
F801FFF000F8
F801E0F000F8
FC01E07801F8
FC01E07801F8
7C01E07C01F0
7E01E03C03F0
7E01E03E03F0
3F01E01E07E0
3F01E01F0FE0
1F8000000FC0
1FC000001FC0
0FE000003F80
07F80000FF00
03FC0001FE00
01FF0007FC00
00FFF8FFF800
007FFFFFF000
003FFFFFE000
000FFFFF8000
0003FFFE0000
00003FE00000
ENDCHAR
STARTCHAR 00AF
ENCODING 175
SWIDTH 487 0
DWIDTH 46 0
BBX 24 6 11 79
BITMAP
FFFFFF
FFFFFF
FFFFFF
FFFFFF
FFFFFF
FFFFFF
ENDCHAR
STARTCHAR 00B0
ENCODING 176
SWIDTH 455 0
DWIDTH 43 0
BBX 34 34 3 35
BITMAP
0007F80000
003FFF0000
00FFFFC000
01FFFFE000
07FFFFF000
0FFFFFF800
0FFE1FFC00
1FF003FE00
3FC001FF00
3F8000FF00
7F00007F80
7F00003F80
FE00003F80
FE00001F80
FC00001FC0
FC00001FC0
FC00000FC0
FC00000FC0
FC00001FC0
FC00001FC0
FE00001F80
FE00003F80
7F00003F80
7F00007F80
3F8000FF00
3FC001FF00
1FF003FE00
1FFE1FFC00
0FFFFFF800
07FFFFF000
03FFFFE000
00FFFFC000
003FFF0000
0007F80000
ENDCHAR
STARTCHAR 00B1
ENCODING 177
SWIDTH 603 0
DWIDTH 57 0
BBX 45 44 6 7
BITMAP
00001F800000
00001F800000
00001F800000
00001F800000
00001F800000
00001F800000
00001F800000
00001F800000
00001F800000
00001F800000
00001F800000
00001F800000
FFFFFFFFFFF8
FFFFFFFFFFF8
FFFFFFFFFFF8
FFFFFFFFFFF8
FFFFFFFFFFF8
FFFFFFFFFFF8
00001F800000
00001F800000
00001F800000
00001F800000
00001F800000
00001F800000
00001F800000
00001F800000
00001F800000
00001F800000
00001F800000
00001F800000
000000000000
000000000000
000000000000
000000000000
000000000000
000000000000
000000000000
000000000000
FFFFFFFFFFF8
FFFFFFFFFFF8
FFFFFFFFFFF8
FFFFFFFFFFF8
FFFFFFFFFFF8
FFFFFFFFFFF8
ENDCHAR
STARTCHAR 00B2
ENCODING 178
SWIDTH 402 0
DWIDTH 38 0
BBX 28 43 5 26
BITMAP
003FC000
01FFF800
03FFFC00
0FFFFF00
1FFFFF80
3FE07F80
3F801FC0
7F000FE0
7E0007E0
FC0003E0
FC0003F0
FC0003F0
F80001F0
F80001F0
000001F0
000003F0
000003F0
000003F0
000007E0
000007E0
00000FC0
00001FC0
00003F80
0000FF00
0001FE00
0003FC00
0007F800
000FF000
001FE000
003F8000
007F0000
01FE0000
03FC0000
07F80000
0FF00000
1FE00000
3FC00000
7F000000
FFFFFFF0
FFFFFFF0
FFFFFFF0
FFFFFFF0
FFFFFFF0
ENDCHAR
STARTCHAR 00B3
ENCODING 179
SWIDTH 391 0
DWIDTH 37 0
BBX 27 43 4 25
BITMAP
7FFFFFE0
7FFFFFE0
7FFFFFE0
7FFFFFE0
7FFFFFE0
00001FC0
00003F80
00007F00
0000FE00
0001FC00
0003F800
0007F000
000FE000
001FC000
007F8000
00FF0000
01FFC000
03FFF800
01FFFC00
01FFFE00
00FFFF00
00007F80
00001FC0
00000FC0
00000FC0
000007E0
000007E0
000003E0
000003E0
000003E0
000003E0
000007E0
180007E0
F80007E0
FC000FC0
7E001FC0
7F003F80
3FC0FF80
1FFFFF00
0FFFFE00
07FFFC00
03FFF000
007FC000
ENDCHAR
STARTCHAR 00B4
ENCODING 180
SWIDTH 487 0
DWIDTH 46 0
BBX 11 15 19 76
BITMAP
07E0
07E0
0FC0
0FC0
1F80
1F80
1F80
3F00
3F00
3E00
7E00
7E00
FC00
FC00
FC00
ENDCHAR
STARTCHAR 00B5
ENCODING 181
SWIDTH 603 0
DWIDTH 57 0
BBX 43 73 7 -22
BITMAP
FE0000000FE0
FE0000000FE0
FE0000000FE0
FE0000000FE0
FE0000000FE0
FE0000000FE0
FE0000000FE0
FE0000000FE0
FE0000000FE0
FE0000000FE0
FE0000000FE0
FE0000000FE0
FE0000000FE0
FE0000000FE0
FE0000000FE0
FE0000000FE0
FE0000000FE0
FE0000000FE0
FE0000000FE0
FE0000000FE0
FE0000000FE0
FE0000000FE0
FE0000000FE0
FE0000000FE0
FE0000000FE0
FE0000000FE0
FE0000000FE0
FE0000000FE0
FE0000000FE0
FE0000000FE0
FE0000000FE0
FE0000000FE0
FE0000000FE0
FE0000000FE0
FF0000000FE0
FF0000001FE0
FF0000001FE0
FF8000003FE0
FF8000003FE0
FFC000007FE0
FFC000007FE0
FFE00000FFE0
FFF00001FFE0
FFFC0007FFE0
FFFF001FF7E0
FFFFFFFFF7E0
FDFFFFFFE7E0
FCFFFFFFC7E0
FC7FFFFF07E0
FC3FFFFE07E0
FC0FFFF807E0
FC01FF800000
FC0000000000
FC0000000000
FC0000000000
FC0000000000
FC0000000000
FC0000000000
FC0000000000
FC0000000000
FC0000000000
FC0000000000
FC0000000000
FC0000000000
FC0000000000
FC0000000000
FC0000000000
FC0000000000
FC0000000000
FC0000000000
FC0000000000
FC0000000000
FC0000000000
ENDCHAR
STARTCHAR 00B6
ENCODING 182
SWIDTH 635 0
DWIDTH 60 0
BBX 46 81 7 -13
BITMAP
0000FFFF01FC
000FFFFF01FC
003FFFFF01FC
00FFFFFF01FC
01FFFFFF01FC
03FFFFFF01FC
07FFFFFF01FC
0FFFFFFF01FC
1FFFFFFF01FC
1FFFFFFF01FC
3FFFFFFF01FC
3FFFFFFF01FC
7FFFFFFF01FC
7FFFFFFF01FC
7FFFFFFF01FC
7FFFFFFF01FC
FFFFFFFF01FC
FFFFFFFF01FC
FFFFFFFF01FC
FFFFFFFF01FC
FFFFFFFF01FC
FFFFFFFF01FC
FFFFFFFF01FC
FFFFFFFF01FC
FFFFFFFF01FC
FFFFFFFF01FC
FFFFFFFF01FC
7FFFFFFF01FC
7FFFFFFF01FC
7FFFFFFF01FC
3FFFFFFF01FC
3FFFFFFF01FC
1FFFFFFF01FC
1FFFFFFF01FC
0FFFFFFF01FC
07FFFFFF01FC
03FFFFFF01FC
01FFFFFF01FC
00FFFFFF01FC
003FFFFF01FC
000FFFFF01FC
0001FFFF01FC
0000007F01FC
0000007F01FC
0000007F01FC
0000007F01FC
0000007F01FC
0000007F01FC
0000007F01FC
0000007F01FC
0000007F01FC
0000007F01FC
0000007F01FC
0000007F01FC
0000007F01FC
0000007F01FC
0000007F01FC
0000007F01FC
0000007F01FC
0000007F01FC
0000007F01FC
0000007F01FC
0000007F01FC
0000007F01FC
0000007F01FC
0000007F01FC
0000007F01FC
0000007F01FC
0000007F01FC
0000007F01FC
0000007F01FC
0000007F01FC
0000007F01FC
0000007F01FC
0000007F01FC
0000007F01FC
0000007F01FC
0000007F01FC
0000007F01FC
0000007F01FC
0000007F01FC
ENDCHAR
STARTCHAR 00B7
ENCODING 183
SWIDTH 222 0
DWIDTH 21 0
BBX 10 10 6 25
BITMAP
1E00
7F00
FF80
FF80
FFC0
FFC0
FFC0
FF80
7F00
3E00
ENDCHAR
STARTCHAR 00B8
ENCODING 184
SWIDTH 391 0
DWIDTH 37 0
BBX 15 23 11 -22
BITMAP
01F0
03E0
03E0
07E0
07C0
07C0
0FC0
0FF0
0FF8
1FFC
03FC
00FE
007E
007E
003E
007E
007E
20FE
3FFC
7FFC
7FF8
FFF0
7FC0
ENDCHAR
STARTCHAR 00B9
ENCODING 185
SWIDTH 317 0
DWIDTH 30 0
BBX 13 43 6 25
BITMAP
01F8
07F8
1FF8
3FF8
FFF8
FFF8
FEF8
F8F8
E0F8
C0F8
00F8
00F8
00F8
00F8
00F8
00F8
00F8
00F8
00F8
00F8
00F8
00F8
00F8
00F8
00F8
00F8
00F8
00F8
00F8
00F8
00F8
00F8
00F8
00F8
00F8
00F8
00F8
00F8
00F8
00F8
00F8
00F8
00F8
ENDCHAR
STARTCHAR 00BA
ENCODING 186
SWIDTH 349 0
DWIDTH 33 0
BBX 25 27 4 25
BITMAP
00FF0000
03FFC000
0FFFF000
1FFFF800
3FFFFC00
3F80FE00
7E007E00
7C003F00
FC001F00
FC001F00
F8001F80
F8001F80
F8001F80
F8000F80
F8001F80
F8001F80
F8001F00
FC001F00
7C003F00
7E003F00
7F007E00
3F81FE00
1FFFFC00
0FFFF800
07FFF000
01FFC000
003C0000
ENDCHAR
STARTCHAR 00BB
ENCODING 187
SWIDTH 540 0
DWIDTH 51 0
BBX 37 41 6 5
BITMAP
0800080000
3C001C0000
7E007E0000
FE007F0000
7F007F0000
3F803F8000
1FC01FC000
0FC00FE000
0FE007E000
07F007F000
03F803F800
01FC01FC00
00FC00FE00
00FE007E00
007F007F00
003F803F80
001FC01FC0
000FC00FE0
000FE007E0
0007F007F0
0003F803F8
0007F007F0
000FE007E0
000FC00FE0
001FC01FC0
003F803F80
007F007F00
00FE007E00
00FC00FE00
01FC01FC00
03F803F800
07F007F000
0FE007E000
0FC00FE000
1FC01FC000
3F803F8000
7F007F0000
FE007E0000
7C007E0000
1C001C0000
0800080000
ENDCHAR
STARTCHAR 00BC
ENCODING 188
SWIDTH 974 0
DWIDTH 92 0
BBX 75 68 6 0
BITMAP
01F80000000000800000
07F80000000000E00000
1FF80000000001F00000
3FF80000000003F80000
FFF80000000007F80000
FFF80000000007F00000
FEF8000000000FE00000
F8F8000000001FE00000
E0F8000000003FC00000
C0F8000000007F800000
00F8000000007F000000
00F800000000FF000000
00F800000001FE000000
00F800000003FC000000
00F800000003F8000000
00F800000007F0000000
00F80000000FF0000000
00F80000001FE0000000
00F80000001FC0000000
00F80000003F80000000
00F80000007F80000000
00F8000000FF00000000
00F8000001FE00000000
00F8000001FC00000000
00F8000003F800000000
00F8000007F800000000
00F800000FF0001F8000
00F800000FE0003F0000
00F800001FC0003F0000
00F800003FC0007E0000
00F800007F80007E0000
00F80000FF00007E0000
00F80000FE0000FC0000
00F80001FE0000FC0000
00F80003FC0001F80000
00F80007F80001F80000
00F80007F00003F00000
00F8000FE00003F00000
00F8001FE00007E00000
00F8003FC00007E00000
00F8003F80000FC00000
00F8007F00000FC00000
000000FF00001F800000
000001FE00001F807C00
000003FC00003F007C00
000003F800003F007C00
000007F800007E007C00
00000FF000007E007C00
00001FE00000FC007C00
00001FC00000FC007C00
00003F800001F8007C00
00007F800001F8007C00
0000FF000001F8007C00
0000FE000003F0007C00
0001FC000003F0007C00
0003FC000007FFFFFFE0
0007F8000007FFFFFFE0
000FF0000007FFFFFFE0
000FE0000007FFFFFFE0
001FE0000007FFFFFFE0
003FC000000000007C00
007F8000000000007C00
007F0000000000007C00
00FE0000000000007C00
00FE0000000000007C00
007C0000000000007C00
00380000000000007C00
00100000000000007C00
ENDCHAR
STARTCHAR 00BD
ENCODING 189
SWIDTH 931 0
DWIDTH 88 0
BBX 77 68 6 0
BITMAP
01F80000000000800000
07F80000000000E00000
0FF80000000001F00000
3FF80000000003F80000
FFF80000000007F80000
FFF80000000007F00000
FEF8000000000FE00000
F8F8000000001FE00000
F0F8000000003FC00000
C0F8000000003F800000
00F8000000007F000000
00F800000000FF000000
00F800000001FE000000
00F800000003FC000000
00F800000003F8000000
00F800000007F0000000
00F80000000FF0000000
00F80000001FE0000000
00F80000001FC0000000
00F80000003F80000000
00F80000007F80000000
00F8000000FF00000000
00F8000001FE00000000
00F8000001FC00000000
00F8000003FC00000000
00F8000007F8001FE000
00F800000FF0007FFC00
00F800000FE001FFFF00
00F800001FC003FFFF80
00F800003FC007FFFFC0
00F800007F800FF03FE0
00F800007F001FE00FF0
00F80000FE001F8003F0
00F80001FE003F0003F8
00F80003FC003F0001F8
00F80007F8003E0001F8
00F80007F0007E0000F8
00F8000FF0007E0000F8
00F8001FE0007E0000F8
00F8003FC000000000F8
00F8003F8000000000F8
00F8007F0000000000F8
00F800FF0000000001F8
000001FE0000000001F8
000001FC0000000003F0
000003F80000000007F0
000007F8000000000FE0
00000FF0000000001FC0
00001FE0000000003F80
00001FC0000000007F00
00003F8000000000FE00
00007F8000000003FC00
0000FF0000000007F800
0000FE000000000FF000
0001FC000000001FE000
0003FC000000003FC000
0007F8000000007F8000
000FF000000000FE0000
000FE000000001FC0000
001FE000000007F80000
003FC00000000FF00000
007F800000001FE00000
007F000000003FC00000
00FE000000007FFFFFF8
01FE000000007FFFFFF8
007C000000007FFFFFF8
0038000000007FFFFFF8
0010000000007FFFFFF8
ENDCHAR
STARTCHAR 00BE
ENCODING 190
SWIDTH 984 0
DWIDTH 93 0
BBX 83 68 4 0
BITMAP
7FFFFFE000000000400000
7FFFFFE000000000E00000
7FFFFFE000000001F80000
7FFFFFE000000001FC0000
7FFFFFE000000003F80000
00001FC000000007F80000
00003F800000000FF00000
00007F000000000FE00000
0000FE000000001FC00000
0001FC000000003F800000
0003F8000000007F800000
0007F000000000FF000000
000FE000000000FE000000
001FC000000001FC000000
007F8000000003FC000000
00FF0000000007F8000000
01FFC000000007F0000000
03FFF80000000FE0000000
01FFFC0000001FE0000000
01FFFE0000003FC0000000
00FFFF0000007F80000000
00007F8000007F00000000
00001FC00000FE00000000
00000FC00001FE00000000
00000FC00003FC00000000
000007E00003F8000FC000
000007E00007F0001F8000
000003E0000FF0001F8000
000003E0001FE0003F0000
000003E0001FC0003F0000
000003E0003F80007E0000
000007E0007F80007E0000
180007E000FF0000FC0000
F80007E001FE0000FC0000
FC000FC001FC0001F80000
7E001FC003F80001F80000
7F003F8007F80003F00000
3FC0FF800FF00003F00000
1FFFFF000FE00007E00000
0FFFFE001FC00007E00000
07FFFC003FC0000FC00000
03FFF0007F80000FC00000
007FC000FF00001F800000
00000000FE00001F807C00
00000001FE00001F807C00
00000003FC00003F007C00
00000007F800003F007C00
00000007F000007E007C00
0000000FE000007E007C00
0000001FE00000FC007C00
0000003FC00000FC007C00
0000003F800001F8007C00
0000007F000001F8007C00
000000FF000003F0007C00
000001FE000003F0007C00
000003FC000003FFFFFFE0
000003F8000003FFFFFFE0
000007F8000003FFFFFFE0
00000FF0000003FFFFFFE0
00001FE0000003FFFFFFE0
00001FC000000000007C00
00003F8000000000007C00
00007F8000000000007C00
0000FF0000000000007C00
0000FE0000000000007C00
00007C0000000000007C00
00001C0000000000007C00
0000080000000000007C00
ENDCHAR
STARTCHAR 00BF
ENCODING 191
SWIDTH 518 0
DWIDTH 49 0
BBX 40 70 5 -19
BITMAP
00007F0000
00007F0000
00007F0000
00007F0000
00007F0000
00007F0000
00007F0000
00007F0000
00007F0000
0000000000
0000000000
0000000000
0000000000
0000000000
0000000000
0000000000
0000000000
0000000000
0000000000
00007F8000
00007F0000
00007F0000
00007F0000
00007F0000
00007F0000
00007F0000
0000FF0000
0000FF0000
0001FE0000
0001FE0000
0003FC0000
0007FC0000
000FF80000
003FF80000
007FF00000
00FFE00000
01FF800000
03FF000000
07FE000000
0FF8000000
1FF0000000
3FE0000000
3FC0000000
7F80000000
7F80000000
7F00000000
FF00000000
FE00000000
FE00000000
FE00000000
FE00000000
FE0000007F
FE000000FF
FE000000FF
FE000000FE
FF000000FE
FF000000FE
7F000001FE
7F800003FC
7FC00003FC
3FE0000FF8
3FF8001FF8
1FFE00FFF0
0FFFFFFFE0
07FFFFFFC0
03FFFFFF80
01FFFFFF00
007FFFFC00
000FFFE000
0000BC0000
ENDCHAR
STARTCHAR 00C0
ENCODING 192
SWIDTH 635 0
DWIDTH 60 0
BBX 56 91 2 0
BITMAP
00001F80000000
00001F80000000
00001F80000000
00000FC0000000
00000FC0000000
000007E0000000
000007E0000000
000007E0000000
000003F0000000
000003F0000000
000001F8000000
000001F8000000
000001F8000000
000000FC000000
000000FC000000
00000000000000
00000000000000
00000000000000
00000000000000
00000000000000
00000000000000
00000000000000
00000000000000
000001FF800000
000001FF800000
000003FF800000
000003FFC00000
000003FFC00000
000007FFC00000
000007FFE00000
000007FFE00000
00000FFFE00000
00000FE7F00000
00000FE7F00000
00001FE7F00000
00001FC3F80000
00001FC3F80000
00003FC3FC0000
00003F81FC0000
00003F81FC0000
00007F81FE0000
00007F00FE0000
00007F00FE0000
0000FF00FF0000
0000FE007F0000
0000FE007F0000
0001FE007F8000
0001FC003F8000
0001FC003F8000
0003FC003FC000
0003F8001FC000
0007F8001FC000
0007F0001FE000
0007F0000FE000
000FF0000FE000
000FE0000FF000
000FE00007F000
001FE00007F000
001FC00007F800
001FC00003F800
003FC00003F800
003F800001FC00
003F800001FC00
007F800001FC00
007F000000FE00
007F000000FE00
00FF000000FF00
00FE0000007F00
00FFFFFFFFFF00
01FFFFFFFFFF80
01FFFFFFFFFF80
01FFFFFFFFFF80
03FFFFFFFFFFC0
03FFFFFFFFFFC0
03FFFFFFFFFFC0
07F00000001FE0
07F00000000FE0
07F00000000FE0
0FE00000000FF0
0FE000000007F0
1FE000000007F0
1FC000000007F8
1FC000000003F8
3FC000000003F8
3F8000000003FC
3F8000000001FC
7F8000000001FC
7F0000000001FE
7F0000000000FE
FF0000000000FE
FE00000000007F
ENDCHAR
STARTCHAR 00C1
ENCODING 193
SWIDTH 635 0
DWIDTH 60 0
BBX 56 91 2 0
BITMAP
00000001F80000
00000001F80000
00000003F00000
00000003F00000
00000003F00000
00000007E00000
00000007E00000
0000000FC00000
0000000FC00000
0000000FC00000
0000001F800000
0000001F800000
0000001F000000
0000003F000000
0000003F000000
00000000000000
00000000000000
00000000000000
00000000000000
00000000000000
00000000000000
00000000000000
00000000000000
000001FF800000
000001FF800000
000003FF800000
000003FFC00000
000003FFC00000
000007FFC00000
000007FFE00000
000007FFE00000
00000FFFE00000
00000FEFF00000
00000FE7F00000
00001FE7F00000
00001FC7F80000
00001FC3F80000
00003FC3FC0000
00003F83FC0000
00003F81FC0000
00007F81FE0000
00007F00FE0000
00007F00FE0000
0000FE00FF0000
0000FE007F0000
0000FE007F0000
0001FC007F8000
0001FC003F8000
0001FC003F8000
0003F8003FC000
0003F8001FC000
0007F8001FC000
0007F0001FE000
0007F0000FE000
000FF0000FE000
000FE0000FF000
000FE00007F000
001FE00007F000
001FC00007F800
001FC00003F800
003FC00003F800
003F800003FC00
003F800001FC00
007F800001FC00
007F000000FE00
007F000000FE00
00FF000000FF00
00FE0000007F00
00FFFFFFFFFF00
01FFFFFFFFFF80
01FFFFFFFFFF80
01FFFFFFFFFF80
03FFFFFFFFFFC0
03FFFFFFFFFFC0
03FFFFFFFFFFC0
07F00000001FE0
07F00000000FE0
07F00000000FE0
0FE00000000FF0
0FE000000007F0
1FE000000007F0
1FC000000007F8
1FC000000003F8
3FC000000003F8
3F8000000003FC
3F8000000001FC
7F8000000001FC
7F0000000001FE
7F0000000000FE
FF0000000000FE
FE00000000007F
ENDCHAR
STARTCHAR 00C2
ENCODING 194
SWIDTH 635 0
DWIDTH 60 0
BBX 56 89 2 0
BITMAP
000000FE000000
000000FF000000
000001FF800000
000003FFC00000
000007FFE00000
00000FEFF00000
00001FE7F00000
00001FC3F80000
00003F81FC0000
00007F00FE0000
0000FE007F0000
0001FC003F8000
0003F8003FC000
00000000000000
00000000000000
00000000000000
00000000000000
00000000000000
00000000000000
00000000000000
00000000000000
000001FF800000
000001FF800000
000003FF800000
000003FFC00000
000003FFC00000
000007FFC00000
000007FFE00000
000007FFE00000
00000FFFE00000
00000FEFF00000
00000FE7F00000
00001FE7F00000
00001FC7F80000
00001FC3F80000
00003FC3FC0000
00003F83FC0000
00003F81FC0000
00007F81FE0000
00007F00FE0000
00007F00FE0000
0000FE00FF0000
0000FE007F0000
0000FE007F0000
0001FC007F8000
0001FC003F8000
0001FC003F8000
0003F8003FC000
0003F8001FC000
0007F8001FC000
0007F0001FE000
0007F0000FE000
000FF0000FE000
000FE0000FF000
000FE00007F000
001FE00007F000
001FC00007F800
001FC00003F800
003FC00003F800
003F800003FC00
003F800001FC00
007F800001FC00
007F000000FE00
007F000000FE00
00FF000000FF00
00FE0000007F00
00FFFFFFFFFF00
01FFFFFFFFFF80
01FFFFFFFFFF80
01FFFFFFFFFF80
03FFFFFFFFFFC0
03FFFFFFFFFFC0
03FFFFFFFFFFC0
07F00000001FE0
07F00000000FE0
07F00000000FE0
0FE00000000FF0
0FE000000007F0
1FE000000007F0
1FC000000007F8
1FC000000003F8
3FC000000003F8
3F8000000003FC
3F8000000001FC
7F8000000001FC
7F0000000001FE
7F0000000000FE
FF0000000000FE
FE00000000007F
ENDCHAR
STARTCHAR 00C3
ENCODING 195
SWIDTH 635 0
DWIDTH 60 0
BBX 56 90 2 0
BITMAP
00000C00000000
00007F8007C000
0001FFE007C000
0001FFF807C000
0003FFFE07C000
0003FFFF8FC000
0003F1FFFFC000
0003E07FFFC000
0003E01FFF8000
0003E007FF0000
0003E003FE0000
00000000300000
00000000000000
00000000000000
00000000000000
00000000000000
00000000000000
00000000000000
00000000000000
00000000000000
00000000000000
00000000000000
000001FF800000
000001FF800000
000003FF800000
000003FFC00000
000003FFC00000
000007FFC00000
000007FFE00000
000007FFE00000
00000FFFE00000
00000FEFF00000
00000FE7F00000
00001FE7F00000
00001FC7F80000
00001FC3F80000
00003FC3FC0000
00003F83FC0000
00003F81FC0000
00007F81FE0000
00007F00FE0000
00007F00FE0000
0000FE00FF0000
0000FE007F0000
0000FE007F0000
0001FC007F8000
0001FC003F8000
0001FC003F8000
0003F8003FC000
0003F8001FC000
0007F8001FC000
0007F0001FE000
0007F0000FE000
000FF0000FE000
000FE0000FF000
000FE00007F000
001FE00007F000
001FC00007F800
001FC00003F800
003FC00003F800
003F800003FC00
003F800001FC00
007F800001FC00
007F000000FE00
007F000000FE00
00FF000000FF00
00FE0000007F00
00FFFFFFFFFF00
01FFFFFFFFFF80
01FFFFFFFFFF80
01FFFFFFFFFF80
03FFFFFFFFFFC0
03FFFFFFFFFFC0
03FFFFFFFFFFC0
07F00000001FE0
07F00000000FE0
07F00000000FE0
0FE00000000FF0
0FE000000007F0
1FE000000007F0
1FC000000007F8
1FC000000003F8
3FC000000003F8
3F8000000003FC
3F8000000001FC
7F8000000001FC
7F0000000001FE
7F0000000000FE
FF0000000000FE
FE00000000007F
ENDCHAR
STARTCHAR 00C4
ENCODING 196
SWIDTH 635 0
DWIDTH 60 0
BBX 56 86 2 0
BITMAP
0001FE007F8000
0001FE007F8000
0001FE007F8000
0001FE007F8000
0001FE007F8000
0001FE007F8000
0001FE007F8000
0001FE007F8000
00000000000000
00000000000000
00000000000000
00000000000000
00000000000000
00000000000000
00000000000000
00000000000000
00000000000000
00000000000000
000001FF800000
000001FF800000
000003FF800000
000003FFC00000
000003FFC00000
000007FFC00000
000007FFE00000
000007FFE00000
00000FFFE00000
00000FEFF00000
00000FE7F00000
00001FE7F00000
00001FC7F80000
00001FC3F80000
00003FC3FC0000
00003F83FC0000
00003F81FC0000
00007F81FE0000
00007F00FE0000
00007F00FE0000
0000FE00FF0000
0000FE007F0000
0000FE007F0000
0001FC007F8000
0001FC003F8000
0001FC003F8000
0003F8003FC000
0003F8001FC000
0007F8001FC000
0007F0001FE000
0007F0000FE000
000FF0000FE000
000FE0000FF000
000FE00007F000
001FE00007F000
001FC00007F800
001FC00003F800
003FC00003F800
003F800003FC00
003F800001FC00
007F800001FC00
007F000000FE00
007F000000FE00
00FF000000FF00
00FE0000007F00
00FFFFFFFFFF00
01FFFFFFFFFF80
01FFFFFFFFFF80
01FFFFFFFFFF80
03FFFFFFFFFFC0
03FFFFFFFFFFC0
03FFFFFFFFFFC0
07F00000001FE0
07F00000000FE0
07F00000000FE0
0FE00000000FF0
0FE000000007F0
1FE000000007F0
1FC000000007F8
1FC000000003F8
3FC000000003F8
3F8000000003FC
3F8000000001FC
7F8000000001FC
7F0000000001FE
7F0000000000FE
FF0000000000FE
FE00000000007F
ENDCHAR
STARTCHAR 00C5
ENCODING 197
SWIDTH 635 0
DWIDTH 60 0
BBX 56 94 2 0
BITMAP
000000FF000000
000003FFC00000
000007FFE00000
00000FFFF00000
00001FFFF80000
00001FC3F80000
00003F00FC0000
00003F00FC0000
00003E007C0000
00003E007C0000
00003E007C0000
00003E007C0000
00003F00FC0000
00003F00FC0000
00001FC3F80000
00001FFFF80000
00000FFFF00000
000007FFE00000
000003FFC00000
000000FF000000
00000000000000
00000000000000
00000000000000
00000000000000
00000000000000
00000000000000
000001FF800000
000001FF800000
000003FF800000
000003FFC00000
000003FFC00000
000007FFC00000
000007FFE00000
000007FFE00000
00000FFFE00000
00000FEFF00000
00000FE7F00000
00001FE7F00000
00001FC7F80000
00001FC3F80000
00003FC3FC0000
00003F83FC0000
00003F81FC0000
00007F81FE0000
00007F00FE0000
00007F00FE0000
0000FE00FF0000
0000FE007F0000
0000FE007F0000
0001FC007F8000
0001FC003F8000
0001FC003F8000
0003F8003FC000
0003F8001FC000
0007F8001FC000
0007F0001FE000
0007F0000FE000
000FF0000FE000
000FE0000FF000
000FE00007F000
001FE00007F000
001FC00007F800
001FC00003F800
003FC00003F800
003F800003FC00
003F800001FC00
007F800001FC00
007F000000FE00
007F000000FE00
00FF000000FF00
00FE0000007F00
00FFFFFFFFFF00
01FFFFFFFFFF80
01FFFFFFFFFF80
01FFFFFFFFFF80
03FFFFFFFFFFC0
03FFFFFFFFFFC0
03FFFFFFFFFFC0
07F00000001FE0
07F00000000FE0
07F00000000FE0
0FE00000000FF0
0FE000000007F0
1FE000000007F0
1FC000000007F8
1FC000000003F8
3FC000000003F8
3F8000000003FC
3F8000000001FC
7F8000000001FC
7F0000000001FE
7F0000000000FE
FF0000000000FE
FE00000000007F
ENDCHAR
STARTCHAR 00C6
ENCODING 198
SWIDTH 921 0
DWIDTH 87 0
BBX 80 68 2 0
BITMAP
000001FFFFFFFFFFFFFF
000001FFFFFFFFFFFFFF
000003FFFFFFFFFFFFFF
000003FFFFFFFFFFFFFF
000003FFFFFFFFFFFFFF
000007FFFFFFFFFFFFFF
000007FFFFFFFFFFFFFF
000007F003F000000000
00000FF003F000000000
00000FE003F000000000
00000FE003F000000000
00001FE003F000000000
00001FC003F000000000
00001FC003F000000000
00003F8003F000000000
00003F8003F000000000
00003F8003F000000000
00007F0003F000000000
00007F0003F000000000
00007F0003F000000000
0000FE0003F000000000
0000FE0003F000000000
0000FE0003F000000000
0001FC0003F000000000
0001FC0003F000000000
0001FC0003F000000000
0003F80003F000000000
0003F80003F000000000
0007F80003F000000000
0007F00003F000000000
0007F00003FFFFFFFFC0
000FF00003FFFFFFFFC0
000FE00003FFFFFFFFC0
000FE00003FFFFFFFFC0
001FE00003FFFFFFFFC0
001FC00003FFFFFFFFC0
001FC00003FFFFFFFFC0
003FC00003F000000000
003F800003F000000000
003F800003F000000000
007F800003F000000000
007F000003F000000000
007F000003F000000000
00FF000003F000000000
00FE000003F000000000
00FFFFFFFFF000000000
01FFFFFFFFF000000000
01FFFFFFFFF000000000
01FFFFFFFFF000000000
03FFFFFFFFF000000000
03FFFFFFFFF000000000
03FFFFFFFFF000000000
07F0000003F000000000
07F0000003F000000000
07F0000003F000000000
0FE0000003F000000000
0FE0000003F000000000
1FE0000003F000000000
1FC0000003F000000000
1FC0000003F000000000
3FC0000003F000000000
3F80000003FFFFFFFFFF
3F80000003FFFFFFFFFF
7F80000003FFFFFFFFFF
7F00000003FFFFFFFFFF
7F00000003FFFFFFFFFF
FF00000003FFFFFFFFFF
FE00000003FFFFFFFFFF
ENDCHAR
STARTCHAR 00C7
ENCODING 199
SWIDTH 720 0
DWIDTH 68 0
BBX 61 91 3 -22
BITMAP
0000007FF8000000
00000FFFFFC00000
00003FFFFFF00000
0000FFFFFFFE0000
0003FFFFFFFF0000
000FFFFFFFFFC000
001FFFFFFFFFE000
003FFF0003FFF000
007FF800007FF800
00FFE000001FFC00
01FFC0000007FE00
03FF00000003FF00
03FE00000001FF00
07FC00000000FF80
07F8000000007FC0
0FF8000000003FC0
0FF0000000003FE0
1FE0000000001FE0
1FE0000000000FF0
3FC0000000000FF0
3FC00000000007F0
3F800000000007F8
7F800000000007E0
7F80000000000200
7F00000000000000
7F00000000000000
FF00000000000000
FF00000000000000
FF00000000000000
FE00000000000000
FE00000000000000
FE00000000000000
FE00000000000000
FE00000000000000
FE00000000000000
FE00000000000000
FE00000000000000
FE00000000000000
FE00000000000000
FE00000000000000
FE00000000000000
FF00000000000000
FF00000000000000
FF00000000000000
7F00000000000000
7F00000000000000
7F80000000000200
7F800000000007E0
3F800000000007F8
3FC00000000007F0
3FC0000000000FF0
1FE0000000000FF0
1FE0000000001FE0
0FF0000000003FE0
0FF0000000003FC0
07F8000000007FC0
07FC00000000FF80
03FE00000001FF00
01FF00000003FF00
01FF80000007FE00
00FFE000001FFC00
007FF800007FF800
003FFF0003FFF000
001FFFFFFFFFE000
0007FFFFFFFFC000
0003FFFFFFFF0000
0000FFFFFFFE0000
00003FFFFFF00000
00000FFFFFC00000
0000007FFC000000
00000003E0000000
00000003E0000000
00000007C0000000
00000007C0000000
0000000FC0000000
0000000FF0000000
0000000FF8000000
0000000FFC000000
00000003FC000000
00000000FE000000
000000007E000000
000000003E000000
000000003E000000
000000003E000000
000000007E000000
00000020FE000000
0000003FFC000000
0000007FFC000000
0000007FF8000000
0000007FF0000000
0000003FC0000000
ENDCHAR
STARTCHAR 00C8
ENCODING 200
SWIDTH 571 0
DWIDTH 54 0
BBX 42 91 7 0
BITMAP
0003F0000000
0003F0000000
0003F0000000
0001F8000000
0001F8000000
0000FC000000
0000FC000000
0000FC000000
00007E000000
00007E000000
00003F000000
00003F000000
00003F000000
00001F800000
00001F800000
000000000000
000000000000
000000000000
000000000000
000000000000
000000000000
000000000000
000000000000
FFFFFFFFFFC0
FFFFFFFFFFC0
FFFFFFFFFFC0
FFFFFFFFFFC0
FFFFFFFFFFC0
FFFFFFFFFFC0
FFFFFFFFFFC0
FE0000000000
FE0000000000
FE0000000000
FE0000000000
FE0000000000
FE0000000000
FE0000000000
FE0000000000
FE0000000000
FE0000000000
FE0000000000
FE0000000000
FE0000000000
FE0000000000
FE0000000000
FE0000000000
FE0000000000
FE0000000000
FE0000000000
FE0000000000
FE0000000000
FE0000000000
FE0000000000
FFFFFFFFF000
FFFFFFFFF000
FFFFFFFFF000
FFFFFFFFF000
FFFFFFFFF000
FFFFFFFFF000
FFFFFFFFF000
FE0000000000
FE0000000000
FE0000000000
FE0000000000
FE0000000000
FE0000000000
FE0000000000
FE0000000000
FE0000000000
FE0000000000
FE0000000000
FE0000000000
FE0000000000
FE0000000000
FE0000000000
FE0000000000
FE0000000000
FE0000000000
FE0000000000
FE0000000000
FE0000000000
FE0000000000
FE0000000000
FE0000000000
FFFFFFFFFFC0
FFFFFFFFFFC0
FFFFFFFFFFC0
FFFFFFFFFFC0
FFFFFFFFFFC0
FFFFFFFFFFC0
FFFFFFFFFFC0
ENDCHAR
STARTCHAR 00C9
ENCODING 201
SWIDTH 571 0
DWIDTH 54 0
BBX 42 91 7 0
BITMAP
0000007E0000
000000FC0000
000000FC0000
000001F80000
000001F80000
000001F80000
000003F00000
000003F00000
000003E00000
000007E00000
000007E00000
00000FC00000
00000FC00000
00000FC00000
00001F800000
000000000000
000000000000
000000000000
000000000000
000000000000
000000000000
000000000000
000000000000
FFFFFFFFFFC0
FFFFFFFFFFC0
FFFFFFFFFFC0
FFFFFFFFFFC0
FFFFFFFFFFC0
FFFFFFFFFFC0
FFFFFFFFFFC0
FE0000000000
FE0000000000
FE0000000000
FE0000000000
FE0000000000
FE0000000000
FE0000000000
FE0000000000
FE0000000000
FE0000000000
FE0000000000
FE0000000000
FE0000000000
FE0000000000
FE0000000000
FE0000000000
FE0000000000
FE0000000000
FE0000000000
FE0000000000
FE0000000000
FE0000000000
FE0000000000
FFFFFFFFF000
FFFFFFFFF000
FFFFFFFFF000
FFFFFFFFF000
FFFFFFFFF000
FFFFFFFFF000
FFFFFFFFF000
FE0000000000
FE0000000000
FE0000000000
FE0000000000
FE0000000000
FE0000000000
FE0000000000
FE0000000000
FE0000000000
FE0000000000
FE0000000000
FE0000000000
FE0000000000
FE0000000000
FE0000000000
FE0000000000
FE0000000000
FE0000000000
FE0000000000
FE0000000000
FE0000000000
FE0000000000
FE0000000000
FE0000000000
FFFFFFFFFFC0
FFFFFFFFFFC0
FFFFFFFFFFC0
FFFFFFFFFFC0
FFFFFFFFFFC0
FFFFFFFFFFC0
FFFFFFFFFFC0
ENDCHAR
STARTCHAR 00CA
ENCODING 202
SWIDTH 571 0
DWIDTH 54 0
BBX 42 89 7 0
BITMAP
00007F000000
0000FF800000
0001FF800000
0003FFC00000
0007FFE00000
0007F7F00000
000FE3F80000
001FC1FC0000
003F81FE0000
007F00FE0000
00FE007F0000
00FE003F8000
01FC001FC000
000000000000
000000000000
000000000000
000000000000
000000000000
000000000000
000000000000
000000000000
FFFFFFFFFFC0
FFFFFFFFFFC0
FFFFFFFFFFC0
FFFFFFFFFFC0
FFFFFFFFFFC0
FFFFFFFFFFC0
FFFFFFFFFFC0
FE0000000000
FE0000000000
FE0000000000
FE0000000000
FE0000000000
FE0000000000
FE0000000000
FE0000000000
FE0000000000
FE0000000000
FE0000000000
FE0000000000
FE0000000000
FE0000000000
FE0000000000
FE0000000000
FE0000000000
FE0000000000
FE0000000000
FE0000000000
FE0000000000
FE0000000000
FE0000000000
FFFFFFFFF000
FFFFFFFFF000
FFFFFFFFF000
FFFFFFFFF000
FFFFFFFFF000
FFFFFFFFF000
FFFFFFFFF000
FE0000000000
FE0000000000
FE0000000000
FE0000000000
FE0000000000
FE0000000000
FE0000000000
FE0000000000
FE0000000000
FE0000000000
FE0000000000
FE0000000000
FE0000000000
FE0000000000
FE0000000000
FE0000000000
FE0000000000
FE0000000000
FE0000000000
FE0000000000
FE0000000000
FE0000000000
FE0000000000
FE0000000000
FFFFFFFFFFC0
FFFFFFFFFFC0
FFFFFFFFFFC0
FFFFFFFFFFC0
FFFFFFFFFFC0
FFFFFFFFFFC0
FFFFFFFFFFC0
ENDCHAR
STARTCHAR 00CB
ENCODING 203
SWIDTH 571 0
DWIDTH 54 0
BBX 42 86 7 0
BITMAP
01FE007F8000
01FE007F8000
01FE007F8000
01FE007F8000
01FE007F8000
01FE007F8000
01FE007F8000
01FE007F8000
000000000000
000000000000
000000000000
000000000000
000000000000
000000000000
000000000000
000000000000
000000000000
000000000000
FFFFFFFFFFC0
FFFFFFFFFFC0
FFFFFFFFFFC0
FFFFFFFFFFC0
FFFFFFFFFFC0
FFFFFFFFFFC0
FFFFFFFFFFC0
FE0000000000
FE0000000000
FE0000000000
FE0000000000
FE0000000000
FE0000000000
FE0000000000
FE0000000000
FE0000000000
FE0000000000
FE0000000000
FE0000000000
FE0000000000
FE0000000000
FE0000000000
FE0000000000
FE0000000000
FE0000000000
FE0000000000
FE0000000000
FE0000000000
FE0000000000
FE0000000000
FFFFFFFFF000
FFFFFFFFF000
FFFFFFFFF000
FFFFFFFFF000
FFFFFFFFF000
FFFFFFFFF000
FFFFFFFFF000
FE0000000000
FE0000000000
FE0000000000
FE0000000000
FE0000000000
FE0000000000
FE0000000000
FE0000000000
FE0000000000
FE0000000000
FE0000000000
FE0000000000
FE0000000000
FE0000000000
FE0000000000
FE0000000000
FE0000000000
FE0000000000
FE0000000000
FE0000000000
FE0000000000
FE0000000000
FE0000000000
FE0000000000
FFFFFFFFFFC0
FFFFFFFFFFC0
FFFFFFFFFFC0
FFFFFFFFFFC0
FFFFFFFFFFC0
FFFFFFFFFFC0
FFFFFFFFFFC0
ENDCHAR
STARTCHAR 00CC
ENCODING 204
SWIDTH 232 0
DWIDTH 22 0
BBX 12 91 2 0
BITMAP
FC00
7E00
7E00
7E00
3F00
3F00
1F80
1F80
1F80
0FC0
0FC0
07E0
07E0
07E0
03F0
0000
0000
0000
0000
0000
0000
0000
0000
03F0
03F0
03F0
03F0
03F0
03F0
03F0
03F0
03F0
03F0
03F0
03F0
03F0
03F0
03F0
03F0
03F0
03F0
03F0
03F0
03F0
03F0
03F0
03F0
03F0
03F0
03F0
03F0
03F0
03F0
03F0
03F0
03F0
03F0
03F0
03F0
03F0
03F0
03F0
03F0
03F0
03F0
03F0
03F0
03F0
03F0
03F0
03F0
03F0
03F0
03F0
03F0
03F0
03F0
03F0
03F0
03F0
03F0
03F0
03F0
03F0
03F0
03F0
03F0
03F0
03F0
03F0
03F0
ENDCHAR
STARTCHAR 00CD
ENCODING 205
SWIDTH 232 0
DWIDTH 22 0
BBX 12 91 8 0
BITMAP
03F0
07E0
07E0
07E0
0FC0
0FC0
1F80
1F80
1F80
3F00
3F00
3E00
7E00
7E00
FC00
0000
0000
0000
0000
0000
0000
0000
0000
FC00
FC00
FC00
FC00
FC00
FC00
FC00
FC00
FC00
FC00
FC00
FC00
FC00
FC00
FC00
FC00
FC00
FC00
FC00
FC00
FC00
FC00
FC00
FC00
FC00
FC00
FC00
FC00
FC00
FC00
FC00
FC00
FC00
FC00
FC00
FC00
FC00
FC00
FC00
FC00
FC00
FC00
FC00
FC00
FC00
FC00
FC00
FC00
FC00
FC00
FC00
FC00
FC00
FC00
FC00
FC00
FC00
FC00
FC00
FC00
FC00
FC00
FC00
FC00
FC00
FC00
FC00
FC00
ENDCHAR
STARTCHAR 00CE
ENCODING 206
SWIDTH 232 0
DWIDTH 22 0
BBX 28 89 -3 0
BITMAP
001F8000
003FC000
007FE000
00FFF000
01FFF800
03F9FC00
07F9FC00
07F0FE00
0FE07F00
1FC03F80
3F801FC0
7F000FE0
FE000FF0
00000000
00000000
00000000
00000000
00000000
00000000
00000000
00000000
001F8000
001F8000
001F8000
001F8000
001F8000
001F8000
001F8000
001F8000
001F8000
001F8000
001F8000
001F8000
001F8000
001F8000
001F8000
001F8000
001F8000
001F8000
001F8000
001F8000
001F8000
001F8000
001F8000
001F8000
001F8000
001F8000
001F8000
001F8000
001F8000
001F8000
001F8000
001F8000
001F8000
001F8000
001F8000
001F8000
001F8000
001F8000
001F8000
001F8000
001F8000
001F8000
001F8000
001F8000
001F8000
001F8000
001F8000
001F8000
001F8000
001F8000
001F8000
001F8000
001F8000
001F8000
001F8000
001F8000
001F8000
001F8000
001F8000
001F8000
001F8000
001F8000
001F8000
001F8000
001F8000
001F8000
001F8000
001F8000
ENDCHAR
STARTCHAR 00CF
ENCODING 207
SWIDTH 232 0
DWIDTH 22 0
BBX 26 86 -2 0
BITMAP
FF003FC0
FF003FC0
FF003FC0
FF003FC0
FF003FC0
FF003FC0
FF003FC0
FF003FC0
00000000
00000000
00000000
00000000
00000000
00000000
00000000
00000000
00000000
00000000
003F0000
003F0000
003F0000
003F0000
003F0000
003F0000
003F0000
003F0000
003F0000
003F0000
003F0000
003F0000
003F0000
003F0000
003F0000
003F0000
003F0000
003F0000
003F0000
003F0000
003F0000
003F0000
003F0000
003F0000
003F0000
003F0000
003F0000
003F0000
003F0000
003F0000
003F0000
003F0000
003F0000
003F0000
003F0000
003F0000
003F0000
003F0000
003F0000
003F0000
003F0000
003F0000
003F0000
003F0000
003F0000
003F0000
003F0000
003F0000
003F0000
003F0000
003F0000
003F0000
003F0000
003F0000
003F0000
003F0000
003F0000
003F0000
003F0000
003F0000
003F0000
003F0000
003F0000
003F0000
003F0000
003F0000
003F0000
003F0000
ENDCHAR
STARTCHAR 00D0
ENCODING 208
SWIDTH 667 0
DWIDTH 63 0
BBX 58 68 1 0
BITMAP
07FFFFFFE0000000
07FFFFFFFE000000
07FFFFFFFFC00000
07FFFFFFFFE00000
07FFFFFFFFF80000
07FFFFFFFFFC0000
07FFFFFFFFFF0000
07F000001FFF8000
07F0000003FFC000
07F0000000FFC000
07F00000007FE000
07F00000001FF000
07F00000000FF800
07F000000007F800
07F000000007FC00
07F000000003FC00
07F000000001FE00
07F000000001FE00
07F000000000FE00
07F000000000FF00
07F000000000FF00
07F0000000007F00
07F0000000007F00
07F0000000007F80
07F0000000007F80
07F0000000003F80
07F0000000003F80
07F0000000003F80
07F0000000003F80
07F0000000003FC0
07F0000000003FC0
FFFFFFFC00003FC0
FFFFFFFC00003FC0
FFFFFFFC00003FC0
FFFFFFFC00003FC0
FFFFFFFC00003FC0
FFFFFFFC00003FC0
07F0000000003FC0
07F0000000003FC0
07F0000000003F80
07F0000000003F80
07F0000000003F80
07F0000000003F80
07F0000000007F80
07F0000000007F80
07F0000000007F00
07F0000000007F00
07F000000000FF00
07F000000000FF00
07F000000000FE00
07F000000001FE00
07F000000001FE00
07F000000003FC00
07F000000007FC00
07F000000007F800
07F00000000FF800
07F00000001FF000
07F00000007FE000
07F0000000FFC000
07F0000003FFC000
07F000001FFF8000
07FFFFFFFFFF0000
07FFFFFFFFFE0000
07FFFFFFFFF80000
07FFFFFFFFF00000
07FFFFFFFFC00000
07FFFFFFFE000000
07FFFFFFE0000000
ENDCHAR
STARTCHAR 00D1
ENCODING 209
SWIDTH 688 0
DWIDTH 65 0
BBX 51 87 7 0
BITMAP
0000FC00000000
0001FF800F8000
0003FFE00F8000
0007FFF00F8000
0007FFFC1F8000
000FFFFFFF8000
000FC1FFFF0000
000F807FFF0000
000F803FFE0000
000F800FFC0000
00000001F80000
00000000000000
00000000000000
00000000000000
00000000000000
00000000000000
00000000000000
00000000000000
00000000000000
FE000000000FE0
FF000000000FE0
FF000000000FE0
FF800000000FE0
FFC00000000FE0
FFC00000000FE0
FFE00000000FE0
FFF00000000FE0
FFF00000000FE0
FFF80000000FE0
FFFC0000000FE0
FFFC0000000FE0
FFFE0000000FE0
FFFF0000000FE0
FEFF0000000FE0
FE7F8000000FE0
FE7FC000000FE0
FE3FC000000FE0
FE1FE000000FE0
FE1FF000000FE0
FE0FF000000FE0
FE07F800000FE0
FE07FC00000FE0
FE03FC00000FE0
FE01FE00000FE0
FE01FF00000FE0
FE00FF00000FE0
FE007F80000FE0
FE007FC0000FE0
FE003FC0000FE0
FE001FE0000FE0
FE000FF0000FE0
FE000FF0000FE0
FE0007F8000FE0
FE0003FC000FE0
FE0003FC000FE0
FE0001FE000FE0
FE0000FF000FE0
FE0000FF000FE0
FE00007F800FE0
FE00003FC00FE0
FE00003FC00FE0
FE00001FE00FE0
FE00000FF00FE0
FE00000FF80FE0
FE000007F80FE0
FE000003FC0FE0
FE000003FE0FE0
FE000001FE0FE0
FE000000FF0FE0
FE000000FF8FE0
FE0000007F8FE0
FE0000003FCFE0
FE0000003FEFE0
FE0000001FEFE0
FE0000000FFFE0
FE0000000FFFE0
FE00000007FFE0
FE00000003FFE0
FE00000003FFE0
FE00000001FFE0
FE00000000FFE0
FE00000000FFE0
FE000000007FE0
FE000000003FE0
FE000000003FE0
FE000000001FE0
FE000000000FE0
ENDCHAR
STARTCHAR 00D2
ENCODING 210
SWIDTH 720 0
DWIDTH 68 0
BBX 62 91 3 -1
BITMAP
000001F800000000
000001F800000000
000001F800000000
000000FC00000000
000000FC00000000
000000FC00000000
0000007E00000000
0000007E00000000
0000003F00000000
0000003F00000000
0000003F00000000
0000001F80000000
0000001F80000000
0000000FC0000000
0000000FC0000000
0000000000000000
0000000000000000
0000000000000000
0000000000000000
0000000000000000
0000000000000000
0000007FF8000000
00000FFFFFC00000
00003FFFFFF00000
0000FFFFFFFE0000
0003FFFFFFFF0000
000FFFFFFFFFC000
001FFFFFFFFFE000
003FFF0003FFF000
007FF800007FF800
00FFE000001FFC00
01FFC0000007FE00
03FF00000003FF00
03FE00000001FF80
07FC00000000FF80
07F8000000007FC0
0FF8000000003FC0
0FF0000000003FE0
1FE0000000001FE0
1FE0000000000FF0
3FC0000000000FF0
3FC00000000007F0
3F800000000007F8
7F800000000007F8
7F800000000003F8
7F000000000003F8
7F000000000003FC
FF000000000003FC
FF000000000003FC
FF000000000001FC
FF000000000001FC
FE000000000001FC
FE000000000001FC
FE000000000001FC
FE000000000001FC
FE000000000001FC
FE000000000001FC
FE000000000001FC
FE000000000001FC
FE000000000001FC
FE000000000001FC
FE000000000001FC
FF000000000001FC
FF000000000001FC
FF000000000003FC
7F000000000003FC
7F000000000003F8
7F800000000003F8
7F800000000007F8
3F800000000007F8
3FC00000000007F0
3FC0000000000FF0
1FE0000000000FF0
1FE0000000001FE0
0FF0000000001FE0
0FF0000000003FC0
07F8000000007FC0
07FC00000000FF80
03FE00000001FF80
03FF00000003FF00
01FFC0000007FE00
00FFE000001FFC00
007FF800007FF800
003FFF0003FFF000
001FFFFFFFFFE000
0007FFFFFFFFC000
0003FFFFFFFF0000
0000FFFFFFFE0000
00003FFFFFF80000
00000FFFFFC00000
0000007FF8000000
ENDCHAR
STARTCHAR 00D3
ENCODING 211
SWIDTH 720 0
DWIDTH 68 0
BBX 62 91 3 -1
BITMAP
000000003F000000
000000003F000000
000000003F000000
000000007E000000
000000007E000000
00000000FC000000
00000000FC000000
00000000FC000000
00000001F8000000
00000001F8000000
00000003F0000000
00000003F0000000
00000003F0000000
00000007E0000000
0000000000000000
0000000000000000
0000000000000000
0000000000000000
0000000000000000
0000000000000000
0000000000000000
0000007FF8000000
00000FFFFFC00000
00003FFFFFF00000
0000FFFFFFFE0000
0003FFFFFFFF0000
000FFFFFFFFFC000
001FFFFFFFFFE000
003FFF0003FFF000
007FF800007FF800
00FFE000001FFC00
01FFC0000007FE00
03FF00000003FF00
03FE00000001FF80
07FC00000000FF80
07F8000000007FC0
0FF8000000003FC0
0FF0000000003FE0
1FE0000000001FE0
1FE0000000000FF0
3FC0000000000FF0
3FC00000000007F0
3F800000000007F8
7F800000000007F8
7F800000000003F8
7F000000000003F8
7F000000000003FC
FF000000000003FC
FF000000000003FC
FF000000000001FC
FF000000000001FC
FE000000000001FC
FE000000000001FC
FE000000000001FC
FE000000000001FC
FE000000000001FC
FE000000000001FC
FE000000000001FC
FE000000000001FC
FE000000000001FC
FE000000000001FC
FE000000000001FC
FF000000000001FC
FF000000000001FC
FF000000000003FC
7F000000000003FC
7F000000000003F8
7F800000000003F8
7F800000000007F8
3F800000000007F8
3FC00000000007F0
3FC0000000000FF0
1FE0000000000FF0
1FE0000000001FE0
0FF0000000001FE0
0FF0000000003FC0
07F8000000007FC0
07FC00000000FF80
03FE00000001FF80
03FF00000003FF00
01FFC0000007FE00
00FFE000001FFC00
007FF800007FF800
003FFF0003FFF000
001FFFFFFFFFE000
0007FFFFFFFFC000
0003FFFFFFFF0000
0000FFFFFFFE0000
00003FFFFFF80000
00000FFFFFC00000
0000007FF8000000
ENDCHAR
STARTCHAR 00D4
ENCODING 212
SWIDTH 720 0
DWIDTH 68 0
BBX 62 89 3 -1
BITMAP
0000001FE0000000
0000001FF0000000
0000003FF0000000
0000007FF8000000
000000FFFC000000
000001FCFE000000
000003F87F000000
000007F83F800000
000007F03FC00000
00000FE01FC00000
00001FC00FE00000
00003F8007F00000
00007F0003F80000
0000000000000000
0000000000000000
0000000000000000
0000000000000000
0000000000000000
0000000000000000
0000007FF8000000
00000FFFFFC00000
00003FFFFFF00000
0000FFFFFFFE0000
0003FFFFFFFF0000
000FFFFFFFFFC000
001FFFFFFFFFE000
003FFF0003FFF000
007FF800007FF800
00FFE000001FFC00
01FFC0000007FE00
03FF00000003FF00
03FE00000001FF80
07FC00000000FF80
07F8000000007FC0
0FF8000000003FC0
0FF0000000003FE0
1FE0000000001FE0
1FE0000000000FF0
3FC0000000000FF0
3FC00000000007F0
3F800000000007F8
7F800000000007F8
7F800000000003F8
7F000000000003F8
7F000000000003FC
FF000000000003FC
FF000000000003FC
FF000000000001FC
FF000000000001FC
FE000000000001FC
FE000000000001FC
FE000000000001FC
FE000000000001FC
FE000000000001FC
FE000000000001FC
FE000000000001FC
FE000000000001FC
FE000000000001FC
FE000000000001FC
FE000000000001FC
FF000000000001FC
FF000000000001FC
FF000000000003FC
7F000000000003FC
7F000000000003F8
7F800000000003F8
7F800000000007F8
3F800000000007F8
3FC00000000007F0
3FC0000000000FF0
1FE0000000000FF0
1FE0000000001FE0
0FF0000000001FE0
0FF0000000003FC0
07F8000000007FC0
07FC00000000FF80
03FE00000001FF80
03FF00000003FF00
01FFC0000007FE00
00FFE000001FFC00
007FF800007FF800
003FFF0003FFF000
001FFFFFFFFFE000
0007FFFFFFFFC000
0003FFFFFFFF0000
0000FFFFFFFE0000
00003FFFFFF80000
00000FFFFFC00000
0000007FF8000000
ENDCHAR
STARTCHAR 00D5
ENCODING 213
SWIDTH 720 0
DWIDTH 68 0
BBX 62 88 3 -1
BITMAP
0000008000000000
000007F8007C0000
00001FFE007C0000
00001FFF807C0000
00003FFFE07C0000
00003FFFF8FC0000
00003E1FFFFC0000
00007E07FFFC0000
00007C01FFF80000
00003C00FFF00000
00003E003FE00000
0000000003000000
0000000000000000
0000000000000000
0000000000000000
0000000000000000
0000000000000000
0000000000000000
0000007FF8000000
00000FFFFFC00000
00003FFFFFF00000
0000FFFFFFFE0000
0003FFFFFFFF0000
000FFFFFFFFFC000
001FFFFFFFFFE000
003FFF0003FFF000
007FF800007FF800
00FFE000001FFC00
01FFC0000007FE00
03FF00000003FF00
03FE00000001FF80
07FC00000000FF80
07F8000000007FC0
0FF8000000003FC0
0FF0000000003FE0
1FE0000000001FE0
1FE0000000000FF0
3FC0000000000FF0
3FC00000000007F0
3F800000000007F8
7F800000000007F8
7F800000000003F8
7F000000000003F8
7F000000000003FC
FF000000000003FC
FF000000000003FC
FF000000000001FC
FF000000000001FC
FE000000000001FC
FE000000000001FC
FE000000000001FC
FE000000000001FC
FE000000000001FC
FE000000000001FC
FE000000000001FC
FE000000000001FC
FE000000000001FC
FE000000000001FC
FE000000000001FC
FF000000000001FC
FF000000000001FC
FF000000000003FC
7F000000000003FC
7F000000000003F8
7F800000000003F8
7F800000000007F8
3F800000000007F8
3FC00000000007F0
3FC0000000000FF0
1FE0000000000FF0
1FE0000000001FE0
0FF0000000001FE0
0FF0000000003FC0
07F8000000007FC0
07FC00000000FF80
03FE00000001FF80
03FF00000003FF00
01FFC0000007FE00
00FFE000001FFC00
007FF800007FF800
003FFF0003FFF000
001FFFFFFFFFE000
0007FFFFFFFFC000
0003FFFFFFFF0000
0000FFFFFFFE0000
00003FFFFFF80000
00000FFFFFC00000
0000007FF8000000
ENDCHAR
STARTCHAR 00D6
ENCODING 214
SWIDTH 720 0
DWIDTH 68 0
BBX 62 86 3 -1
BITMAP
00003FC00FF00000
00003FC00FF00000
00003FC00FF00000
00003FC00FF00000
00003FC00FF00000
00003FC00FF00000
00003FC00FF00000
00003FC00FF00000
0000000000000000
0000000000000000
0000000000000000
0000000000000000
0000000000000000
0000000000000000
0000000000000000
0000000000000000
0000007FF8000000
00000FFFFFC00000
00003FFFFFF00000
0000FFFFFFFE0000
0003FFFFFFFF0000
000FFFFFFFFFC000
001FFFFFFFFFE000
003FFF0003FFF000
007FF800007FF800
00FFE000001FFC00
01FFC0000007FE00
03FF00000003FF00
03FE00000001FF80
07FC00000000FF80
07F8000000007FC0
0FF8000000003FC0
0FF0000000003FE0
1FE0000000001FE0
1FE0000000000FF0
3FC0000000000FF0
3FC00000000007F0
3F800000000007F8
7F800000000007F8
7F800000000003F8
7F000000000003F8
7F000000000003FC
FF000000000003FC
FF000000000003FC
FF000000000001FC
FF000000000001FC
FE000000000001FC
FE000000000001FC
FE000000000001FC
FE000000000001FC
FE000000000001FC
FE000000000001FC
FE000000000001FC
FE000000000001FC
FE000000000001FC
FE000000000001FC
FE000000000001FC
FF000000000001FC
FF000000000001FC
FF000000000003FC
7F000000000003FC
7F000000000003F8
7F800000000003F8
7F800000000007F8
3F800000000007F8
3FC00000000007F0
3FC0000000000FF0
1FE0000000000FF0
1FE0000000001FE0
0FF0000000001FE0
0FF0000000003FC0
07F8000000007FC0
07FC00000000FF80
03FE00000001FF80
03FF00000003FF00
01FFC0000007FE00
00FFE000001FFC00
007FF800007FF800
003FFF0003FFF000
001FFFFFFFFFE000
0007FFFFFFFFC000
0003FFFFFFFF0000
0000FFFFFFFE0000
00003FFFFFF80000
00000FFFFFC00000
0000007FF8000000
ENDCHAR
STARTCHAR 00D7
ENCODING 215
SWIDTH 487 0
DWIDTH 46 0
BBX 34 34 6 16
BITMAP
1000000200
3800000700
7C00000F80
FE00001FC0
FF00003FC0
7F80007F80
3FC000FF00
1FE001FE00
0FF003FC00
07F807F800
03FC0FF000
01FE1FE000
00FF3FC000
007FFF8000
003FFF0000
001FFE0000
000FFC0000
0007F80000
000FFC0000
001FFE0000
003FFF0000
007FFF8000
00FF3FC000
01FE1FE000
03FC0FF000
07F807F800
0FF003FC00
1FE001FE00
3FC000FF00
7F80007F80
FF00003FC0
7E00001F80
3C00000F00
1800000600
ENDCHAR
STARTCHAR 00D8
ENCODING 216
SWIDTH 720 0
DWIDTH 68 0
BBX 65 70 2 -1
BITMAP
0000003FFC00000800
000007FFFFE0001C00
00001FFFFFFC003E00
00007FFFFFFF007F00
0001FFFFFFFFC0FF80
0007FFFFFFFFE1FF00
000FFFFFFFFFF3FE00
001FFF8001FFFFFC00
003FFC00003FFFF800
007FF000000FFFF800
00FFE0000003FFF000
01FF80000001FFE000
01FF00000000FFC000
03FE00000000FFC000
03FC00000001FFE000
07FC00000003FFE000
07F800000007FFF000
0FF000000007FFF000
0FF00000000FF7F800
1FE00000001FE7F800
1FE00000003FE3F800
1FC00000007FC3FC00
3FC0000000FF83FC00
3FC0000001FF01FC00
3F80000003FE01FE00
3F80000007FC01FE00
7F8000000FF801FE00
7F8000001FF001FE00
7F8000003FE000FE00
7F8000007FC000FE00
7F000000FF8000FE00
7F000000FF0000FE00
7F000001FE0000FE00
7F000003FC0000FE00
7F000007FC0000FF00
7F00000FF80000FE00
7F00001FF00000FE00
7F00003FE00000FE00
7F00007FC00000FE00
7F0000FF800000FE00
7F0001FF000000FE00
7F8003FE000000FE00
7F8007FC000000FE00
7F800FF8000001FE00
3F801FF0000001FE00
3F803FE0000001FC00
3FC03FC0000001FC00
3FC07F80000003FC00
1FC0FF00000003FC00
1FE1FF00000003F800
1FE3FE00000007F800
0FE7FC00000007F800
0FFFF80000000FF000
0FFFF00000000FF000
07FFE00000001FE000
07FFC00000003FE000
03FF800000007FC000
01FF00000000FF8000
03FF80000001FF8000
07FFE0000003FF0000
0FFFF000000FFE0000
0FFFFC00003FFC0000
1FFFFF8001FFF80000
3FEFFFFFFFFFF00000
7FC7FFFFFFFFE00000
FF81FFFFFFFF800000
7F007FFFFFFF000000
3E001FFFFFF8000000
1C0003FFFFE0000000
0800003FFC00000000
ENDCHAR
STARTCHAR 00D9
ENCODING 217
SWIDTH 698 0
DWIDTH 66 0
BBX 53 92 7 -1
BITMAP
00001F80000000
00001F80000000
00001F80000000
00000FC0000000
00000FC0000000
00000FC0000000
000007E0000000
000007E0000000
000003F0000000
000003F0000000
000003F0000000
000001F8000000
000001F8000000
000000FC000000
000000FC000000
00000000000000
00000000000000
00000000000000
00000000000000
00000000000000
00000000000000
00000000000000
00000000000000
FE0000000003F8
FE0000000003F8
FE0000000003F8
FE0000000003F8
FE0000000003F8
FE0000000003F8
FE0000000003F8
FE0000000003F8
FE0000000003F8
FE0000000003F8
FE0000000003F8
FE0000000003F8
FE0000000003F8
FE0000000003F8
FE0000000003F8
FE0000000003F8
FE0000000003F8
FE0000000003F8
FE0000000003F8
FE0000000003F8
FE0000000003F8
FE0000000003F8
FE0000000003F8
FE0000000003F8
FE0000000003F8
FE0000000003F8
FE0000000003F8
FE0000000003F8
FE0000000003F8
FE0000000003F8
FE0000000003F8
FE0000000003F8
FE0000000003F8
FE0000000003F8
FE0000000003F8
FE0000000003F8
FE0000000003F8
FE0000000003F8
FE0000000003F8
FE0000000003F8
FE0000000003F8
FE0000000003F8
FE0000000003F8
FE0000000003F8
FE0000000003F8
FE0000000007F8
FE0000000007F0
FE0000000007F0
FE0000000007F0
FF0000000007F0
FF000000000FF0
7F000000000FF0
7F800000001FE0
7FC00000001FE0
3FC00000003FC0
3FE00000007FC0
1FF0000000FF80
1FF8000001FF80
0FFC000003FF00
07FF000007FE00
03FF80001FFE00
01FFF000FFFC00
00FFFFFFFFF800
007FFFFFFFE000
003FFFFFFFC000
000FFFFFFF0000
0003FFFFFC0000
0000FFFFF00000
00000FFF000000
ENDCHAR
STARTCHAR 00DA
ENCODING 218
SWIDTH 698 0
DWIDTH 66 0
BBX 53 92 7 -1
BITMAP
0000000FC00000
0000000FC00000
0000001F800000
0000001F800000
0000003F000000
0000003F000000
0000003F000000
0000007E000000
0000007E000000
0000007C000000
000000FC000000
000000FC000000
000001F8000000
000001F8000000
000001F8000000
00000000000000
00000000000000
00000000000000
00000000000000
00000000000000
00000000000000
00000000000000
00000000000000
FE0000000003F8
FE0000000003F8
FE0000000003F8
FE0000000003F8
FE0000000003F8
FE0000000003F8
FE0000000003F8
FE0000000003F8
FE0000000003F8
FE0000000003F8
FE0000000003F8
FE0000000003F8
FE0000000003F8
FE0000000003F8
FE0000000003F8
FE0000000003F8
FE0000000003F8
FE0000000003F8
FE0000000003F8
FE0000000003F8
FE0000000003F8
FE0000000003F8
FE0000000003F8
FE0000000003F8
FE0000000003F8
FE0000000003F8
FE0000000003F8
FE0000000003F8
FE0000000003F8
FE0000000003F8
FE0000000003F8
FE0000000003F8
FE0000000003F8
FE0000000003F8
FE0000000003F8
FE0000000003F8
FE0000000003F8
FE0000000003F8
FE0000000003F8
FE0000000003F8
FE0000000003F8
FE0000000003F8
FE0000000003F8
FE0000000003F8
FE0000000003F8
FE0000000007F8
FE0000000007F0
FE0000000007F0
FE0000000007F0
FF0000000007F0
FF000000000FF0
7F000000000FF0
7F800000001FE0
7FC00000001FE0
3FC00000003FC0
3FE00000007FC0
1FF0000000FF80
1FF8000001FF80
0FFC000003FF00
07FF000007FE00
03FF80001FFE00
01FFF000FFFC00
00FFFFFFFFF800
007FFFFFFFE000
003FFFFFFFC000
000FFFFFFF0000
0003FFFFFC0000
0000FFFFF00000
00000FFF000000
ENDCHAR
STARTCHAR 00DB
ENCODING 219
SWIDTH 698 0
DWIDTH 66 0
BBX 53 90 7 -1
BITMAP
000001FC000000
000003FC000000
000007FE000000
00000FFF000000
00001FFF800000
00003FDFC00000
00003F9FE00000
00007F0FE00000
0000FE07F00000
0001FC03F80000
0003F801FC0000
0007F000FE0000
000FF0007F0000
00000000000000
00000000000000
00000000000000
00000000000000
00000000000000
00000000000000
00000000000000
00000000000000
FE0000000003F8
FE0000000003F8
FE0000000003F8
FE0000000003F8
FE0000000003F8
FE0000000003F8
FE0000000003F8
FE0000000003F8
FE0000000003F8
FE0000000003F8
FE0000000003F8
FE0000000003F8
FE0000000003F8
FE0000000003F8
FE0000000003F8
FE0000000003F8
FE0000000003F8
FE0000000003F8
FE0000000003F8
FE0000000003F8
FE0000000003F8
FE0000000003F8
FE0000000003F8
FE0000000003F8
FE0000000003F8
FE0000000003F8
FE0000000003F8
FE0000000003F8
FE0000000003F8
FE0000000003F8
FE0000000003F8
FE0000000003F8
FE0000000003F8
FE0000000003F8
FE0000000003F8
FE0000000003F8
FE0000000003F8
FE0000000003F8
FE0000000003F8
FE0000000003F8
FE0000000003F8
FE0000000003F8
FE0000000003F8
FE0000000003F8
FE0000000003F8
FE0000000007F8
FE0000000007F0
FE0000000007F0
FE0000000007F0
FF0000000007F0
FF000000000FF0
7F000000000FF0
7F800000001FE0
7FC00000001FE0
3FC00000003FC0
3FE00000007FC0
1FF0000000FF80
1FF8000001FF80
0FFC000003FF00
07FF000007FE00
03FF80001FFE00
01FFF000FFFC00
00FFFFFFFFF800
007FFFFFFFE000
003FFFFFFFC000
000FFFFFFF0000
0003FFFFFC0000
0000FFFFF00000
00000FFF000000
ENDCHAR
STARTCHAR 00DC
ENCODING 220
SWIDTH 698 0
DWIDTH 66 0
BBX 53 87 7 -1
BITMAP
0007F801FE0000
0007F801FE0000
0007F801FE0000
0007F801FE0000
0007F801FE0000
0007F801FE0000
0007F801FE0000
0007F801FE0000
00000000000000
00000000000000
00000000000000
00000000000000
00000000000000
00000000000000
00000000000000
00000000000000
00000000000000
00000000000000
FE0000000003F8
FE0000000003F8
FE0000000003F8
FE0000000003F8
FE0000000003F8
FE0000000003F8
FE0000000003F8
FE0000000003F8
FE0000000003F8
FE0000000003F8
FE0000000003F8
FE0000000003F8
FE0000000003F8
FE0000000003F8
FE0000000003F8
FE0000000003F8
FE0000000003F8
FE0000000003F8
FE0000000003F8
FE0000000003F8
FE0000000003F8
FE0000000003F8
FE0000000003F8
FE0000000003F8
FE0000000003F8
FE0000000003F8
FE0000000003F8
FE0000000003F8
FE0000000003F8
FE0000000003F8
FE0000000003F8
FE0000000003F8
FE0000000003F8
FE0000000003F8
FE0000000003F8
FE0000000003F8
FE0000000003F8
FE0000000003F8
FE0000000003F8
FE0000000003F8
FE0000000003F8
FE0000000003F8
FE0000000003F8
FE0000000003F8
FE0000000003F8
FE0000000007F8
FE0000000007F0
FE0000000007F0
FE0000000007F0
FF0000000007F0
FF000000000FF0
7F000000000FF0
7F800000001FE0
7FC00000001FE0
3FC00000003FC0
3FE00000007FC0
1FF0000000FF80
1FF8000001FF80
0FFC000003FF00
07FF000007FE00
03FF80001FFE00
01FFF000FFFC00
00FFFFFFFFF800
007FFFFFFFE000
003FFFFFFFC000
000FFFFFFF0000
0003FFFFFC0000
0000FFFFF00000
00000FFF000000
ENDCHAR
STARTCHAR 00DD
ENCODING 221
SWIDTH 561 0
DWIDTH 53 0
BBX 52 91 0 0
BITMAP
0000000FC00000
0000000FC00000
0000001F800000
0000001F800000
0000003F000000
0000003F000000
0000003F000000
0000007E000000
0000007E000000
000000FC000000
000000FC000000
000000FC000000
000001F8000000
000001F8000000
000001F8000000
00000000000000
00000000000000
00000000000000
00000000000000
00000000000000
00000000000000
00000000000000
00000000000000
FF000000000FF0
7F800000000FF0
7F800000001FE0
3FC00000003FE0
1FE00000003FC0
1FE00000007F80
0FF00000007F80
0FF0000000FF00
07F8000000FF00
07FC000001FE00
03FC000003FC00
01FE000003FC00
01FE000007F800
00FF000007F800
00FF00000FF000
007F80000FF000
007FC0001FE000
003FC0003FC000
001FE0003FC000
001FE0007F8000
000FF0007F8000
000FF000FF0000
0007F800FF0000
0003FC01FE0000
0003FC03FC0000
0001FE03FC0000
0001FE07F80000
0000FF07F80000
0000FF8FF00000
00007F8FF00000
00003FDFE00000
00003FFFC00000
00001FFFC00000
00001FFF800000
00000FFF800000
00000FFF000000
000007FF000000
000003FE000000
000003FC000000
000001FC000000
000001FC000000
000001FC000000
000001FC000000
000001FC000000
000001FC000000
000001FC000000
000001FC000000
000001FC000000
000001FC000000
000001FC000000
000001FC000000
000001FC000000
000001FC000000
000001FC000000
000001FC000000
000001FC000000
000001FC000000
000001FC000000
000001FC000000
000001FC000000
000001FC000000
000001FC000000
000001FC000000
000001FC000000
000001FC000000
000001FC000000
000001FC000000
000001FC000000
ENDCHAR
STARTCHAR 00DE
ENCODING 222
SWIDTH 592 0
DWIDTH 56 0
BBX 46 68 7 0
BITMAP
FE0000000000
FE0000000000
FE0000000000
FE0000000000
FE0000000000
FE0000000000
FE0000000000
FE0000000000
FE0000000000
FE0000000000
FE0000000000
FE0000000000
FE0000000000
FFFFFFF80000
FFFFFFFF8000
FFFFFFFFE000
FFFFFFFFF800
FFFFFFFFFC00
FFFFFFFFFE00
FFFFFFFFFF00
FE000003FF80
FE000000FFC0
FE0000007FE0
FE0000003FE0
FE0000001FF0
FE0000000FF0
FE00000007F8
FE00000007F8
FE00000003FC
FE00000003FC
FE00000001FC
FE00000001FC
FE00000001FC
FE00000001FC
FE00000001FC
FE00000001FC
FE00000001FC
FE00000001FC
FE00000003FC
FE00000003FC
FE00000003F8
FE00000007F8
FE0000000FF0
FE0000001FF0
FE0000001FE0
FE0000007FE0
FE000000FFC0
FE000003FF80
FFFFFFFFFF00
FFFFFFFFFE00
FFFFFFFFFC00
FFFFFFFFF800
FFFFFFFFE000
FFFFFFFF8000
FFFFFFFC0000
FE0000000000
FE0000000000
FE0000000000
FE0000000000
FE0000000000
FE0000000000
FE0000000000
FE0000000000
FE0000000000
FE0000000000
FE0000000000
FE0000000000
FE0000000000
ENDCHAR
STARTCHAR 00DF
ENCODING 223
SWIDTH 603 0
DWIDTH 57 0
BBX 44 70 7 -1
BITMAP
0007FF000000
003FFFE00000
00FFFFF80000
03FFFFFE0000
07FFFFFF0000
0FFFFFFF8000
1FFFFFFFC000
1FFC00FFE000
3FF0003FE000
7FC0001FF000
7F80000FF000
7F800007F800
FF000003F800
FF000003F800
FE000003FC00
FE000001FC00
FE000001FC00
FE000001FC00
FE000001FC00
FE000001FC00
FE000001FC00
FE000003FC00
FE000003F800
FE000003F800
FE000007F800
FE00000FF000
FE00001FF000
FE00003FE000
FE0000FFE000
FE0007FFC000
FE001FFF0000
FE001FFE0000
FE001FFF0000
FE001FFFC000
FE001FFFF000
FE001FFFF800
FE0001FFFC00
FE00001FFE00
FE000003FF00
FE000000FF80
FE0000007FC0
FE0000003FC0
FE0000001FE0
FE0000001FE0
FE0000000FE0
FE0000000FE0
FE0000000FF0
FE00000007F0
FE00000007F0
FE00000007F0
FE00000007F0
FE00000007F0
FE0000000FF0
FE0000000FF0
FE0000000FE0
FE0000000FE0
FE0000001FE0
FE0000003FE0
FE0000003FC0
FE0000007FC0
FE000001FF80
FE000003FF80
FE03001FFF00
FE03FFFFFE00
FE03FFFFFC00
FE03FFFFF800
FE03FFFFF000
FE03FFFFC000
FE03FFFF0000
0000FFF00000
ENDCHAR
STARTCHAR 00E0
ENCODING 224
SWIDTH 550 0
DWIDTH 52 0
BBX 43 74 4 -1
BITMAP
0001F8000000
0001F8000000
0001F8000000
0000FC000000
0000FC000000
0000FC000000
00007E000000
00007E000000
00003F000000
00003F000000
00003F000000
00001F800000
00001F800000
00000FC00000
00000FC00000
000000000000
000000000000
000000000000
000000000000
000000000000
000000000000
00007FF00000
0007FFFF0000
001FFFFFC000
007FFFFFF000
00FFFFFFF800
01FFFFFFFC00
03FFFFFFFE00
07FF0007FF00
0FFC0001FF80
0FF80000FF80
1FF000007F80
1FE000003FC0
3FC000001FC0
3F8000001FC0
1F8000001FC0
038000000FE0
000000000FE0
000000000FE0
000000000FE0
000000000FE0
00000001FFE0
000000FFFFE0
00007FFFFFE0
0007FFFFFFE0
003FFFFFFFE0
01FFFFFFFFE0
03FFFFFE0FE0
0FFFFE000FE0
1FFFC0000FE0
3FFC00000FE0
3FF000000FE0
7FC000000FE0
7F8000001FE0
FF0000001FE0
FF0000001FE0
FE0000001FE0
FE0000001FE0
FE0000003FE0
FE0000003FE0
FE0000007FE0
FE000000FFE0
FE000000FFE0
FF000001FFE0
7F800007F7E0
7FC0000FF7E0
3FE0003FE7E0
3FFC01FFC7E0
1FFFFFFF87E0
0FFFFFFF07E0
07FFFFFC07E0
01FFFFF807E0
007FFFC007E0
000FFE000000
ENDCHAR
STARTCHAR 00E1
ENCODING 225
SWIDTH 550 0
DWIDTH 52 0
BBX 43 74 4 -1
BITMAP
0000007E0000
0000007E0000
000000FC0000
000000FC0000
000000FC0000
000001F80000
000001F80000
000001F80000
000003F00000
000003F00000
000007E00000
000007E00000
000007E00000
00000FC00000
00000FC00000
000000000000
000000000000
000000000000
000000000000
000000000000
000000000000
00007FF00000
0007FFFF0000
001FFFFFC000
007FFFFFF000
00FFFFFFF800
01FFFFFFFC00
03FFFFFFFE00
07FF0007FF00
0FFC0001FF80
0FF80000FF80
1FF000007F80
1FE000003FC0
3FC000001FC0
3F8000001FC0
1F8000001FC0
038000000FE0
000000000FE0
000000000FE0
000000000FE0
000000000FE0
00000001FFE0
000000FFFFE0
00007FFFFFE0
0007FFFFFFE0
003FFFFFFFE0
01FFFFFFFFE0
03FFFFFE0FE0
0FFFFE000FE0
1FFFC0000FE0
3FFC00000FE0
3FF000000FE0
7FC000000FE0
7F8000001FE0
FF0000001FE0
FF0000001FE0
FE0000001FE0
FE0000001FE0
FE0000003FE0
FE0000003FE0
FE0000007FE0
FE000000FFE0
FE000000FFE0
FF000001FFE0
7F800007F7E0
7FC0000FF7E0
3FE0003FE7E0
3FFC01FFC7E0
1FFFFFFF87E0
0FFFFFFF07E0
07FFFFFC07E0
01FFFFF807E0
007FFFC007E0
000FFE000000
ENDCHAR
STARTCHAR 00E2
ENCODING 226
SWIDTH 550 0
DWIDTH 52 0
BBX 43 72 4 -1
BITMAP
00001FE00000
00003FE00000
00003FF00000
00007FF80000
0000FFFC0000
0001FCFE0000
0003F87F0000
0007F07F8000
0007F03F8000
000FE01FC000
001FC00FE000
003F8007F000
007F0003F800
000000000000
000000000000
000000000000
000000000000
000000000000
000000000000
00007FF00000
0007FFFF0000
001FFFFFC000
007FFFFFF000
00FFFFFFF800
01FFFFFFFC00
03FFFFFFFE00
07FF0007FF00
0FFC0001FF80
0FF80000FF80
1FF000007F80
1FE000003FC0
3FC000001FC0
3F8000001FC0
1F8000001FC0
038000000FE0
000000000FE0
000000000FE0
000000000FE0
000000000FE0
00000001FFE0
000000FFFFE0
00007FFFFFE0
0007FFFFFFE0
003FFFFFFFE0
01FFFFFFFFE0
03FFFFFE0FE0
0FFFFE000FE0
1FFFC0000FE0
3FFC00000FE0
3FF000000FE0
7FC000000FE0
7F8000001FE0
FF0000001FE0
FF0000001FE0
FE0000001FE0
FE0000001FE0
FE0000003FE0
FE0000003FE0
FE0000007FE0
FE000000FFE0
FE000000FFE0
FF000001FFE0
7F800007F7E0
7FC0000FF7E0
3FE0003FE7E0
3FFC01FFC7E0
1FFFFFFF87E0
0FFFFFFF07E0
07FFFFFC07E0
01FFFFF807E0
007FFFC007E0
000FFE000000
ENDCHAR
STARTCHAR 00E3
ENCODING 227
SWIDTH 550 0
DWIDTH 52 0
BBX 43 71 4 -1
BITMAP
000080000000
000FF8007800
001FFE007C00
003FFF807C00
003FFFC07C00
007FFFF0FC00
007E3FFFFC00
007C07FFF800
007C03FFF800
007C00FFF000
007C003FE000
000000020000
000000000000
000000000000
000000000000
000000000000
000000000000
000000000000
00007FF00000
0007FFFF0000
001FFFFFC000
007FFFFFF000
00FFFFFFF800
01FFFFFFFC00
03FFFFFFFE00
07FF0007FF00
0FFC0001FF80
0FF80000FF80
1FF000007F80
1FE000003FC0
3FC000001FC0
3F8000001FC0
1F8000001FC0
038000000FE0
000000000FE0
000000000FE0
000000000FE0
000000000FE0
00000001FFE0
000000FFFFE0
00007FFFFFE0
0007FFFFFFE0
003FFFFFFFE0
01FFFFFFFFE0
03FFFFFE0FE0
0FFFFE000FE0
1FFFC0000FE0
3FFC00000FE0
3FF000000FE0
7FC000000FE0
7F8000001FE0
FF0000001FE0
FF0000001FE0
FE0000001FE0
FE0000001FE0
FE0000003FE0
FE0000003FE0
FE0000007FE0
FE000000FFE0
FE000000FFE0
FF000001FFE0
7F800007F7E0
7FC0000FF7E0
3FE0003FE7E0
3FFC01FFC7E0
1FFFFFFF87E0
0FFFFFFF07E0
07FFFFFC07E0
01FFFFF807E0
007FFFC007E0
000FFE000000
ENDCHAR
STARTCHAR 00E4
ENCODING 228
SWIDTH 550 0
DWIDTH 52 0
BBX 43 70 4 -1
BITMAP
001FC007F000
001FC007F000
001FC007F000
001FC007F000
001FC007F000
001FC007F000
001FC007F000
001FC007F000
000000000000
000000000000
000000000000
000000000000
000000000000
000000000000
000000000000
000000000000
000000000000
00007FF00000
0007FFFF0000
001FFFFFC000
007FFFFFF000
00FFFFFFF800
01FFFFFFFC00
03FFFFFFFE00
07FF0007FF00
0FFC0001FF80
0FF80000FF80
1FF000007F80
1FE000003FC0
3FC000001FC0
3F8000001FC0
1F8000001FC0
038000000FE0
000000000FE0
000000000FE0
000000000FE0
000000000FE0
00000001FFE0
000000FFFFE0
00007FFFFFE0
0007FFFFFFE0
003FFFFFFFE0
01FFFFFFFFE0
03FFFFFE0FE0
0FFFFE000FE0
1FFFC0000FE0
1FFC00000FE0
3FF000000FE0
7FC000000FE0
7F8000001FE0
FF0000001FE0
FF0000001FE0
FE0000001FE0
FE0000001FE0
FE0000003FE0
FE0000003FE0
FE0000007FE0
FE000000FFE0
FE000000FFE0
FF000001FFE0
7F800007F7E0
7FC0000FF7E0
3FE0003FE7E0
3FFC01FFC7E0
1FFFFFFF87E0
0FFFFFFF07E0
07FFFFFC07E0
01FFFFF807E0
007FFFC007E0
000FFE000000
ENDCHAR
STARTCHAR 00E5
ENCODING 229
SWIDTH 550 0
DWIDTH 52 0
BBX 43 78 4 -1
BITMAP
00000FC00000
00003FF00000
0000FFFC0000
0001FFFE0000
0003FFFE0000
0003F87F0000
0007F03F0000
0007E01F8000
0007C00F8000
0007C00F8000
0007C00F8000
0007C00F8000
0007C00F8000
0007E01F8000
0007E03F0000
0003F87F0000
0003FFFE0000
0001FFFE0000
0000FFFC0000
00003FF00000
00000FC00000
000000000000
000000000000
000000000000
000000000000
00007FF00000
0007FFFF0000
001FFFFFC000
007FFFFFF000
00FFFFFFF800
01FFFFFFFC00
03FFFFFFFE00
07FF0007FF00
0FFC0001FF80
0FF80000FF80
1FF000007F80
1FE000003FC0
3FC000001FC0
3F8000001FC0
1F8000001FC0
038000000FE0
000000000FE0
000000000FE0
000000000FE0
000000000FE0
00000001FFE0
000000FFFFE0
00007FFFFFE0
0007FFFFFFE0
003FFFFFFFE0
01FFFFFFFFE0
03FFFFFE0FE0
0FFFFE000FE0
1FFFC0000FE0
3FFC00000FE0
3FF000000FE0
7FC000000FE0
7F8000001FE0
FF0000001FE0
FF0000001FE0
FE0000001FE0
FE0000001FE0
FE0000003FE0
FE0000003FE0
FE0000007FE0
FE000000FFE0
FE000000FFE0
FF000001FFE0
7F800007F7E0
7FC0000FF7E0
3FE0003FE7E0
3FFC01FFC7E0
1FFFFFFF87E0
0FFFFFFF07E0
07FFFFFC07E0
01FFFFF807E0
007FFFC007E0
000FFE000000
ENDCHAR
STARTCHAR 00E6
ENCODING 230
SWIDTH 942 0
DWIDTH 89 0
BBX 81 53 4 -1
BITMAP
00007FF0000003FF000000
0007FFFF00001FFFF00000
001FFFFFC000FFFFFC0000
007FFFFFE001FFFFFE0000
00FFFFFFF807FFFFFF8000
01FFFFFFFC0FFFFFFFC000
03FFFFFFFE1FFFCFFFE000
07FF000FFE3FF8007FF000
0FFC0001FF7FE0001FF000
1FF00000FFFF800007F800
1FE000007FFF000003FC00
3FC000003FFE000001FC00
3FC000003FFC000001FE00
3F8000001FFC000000FE00
078000001FF8000000FE00
000000001FF80000007F00
000000000FF00000007F00
000000000FF00000007F00
000000000FF00000003F00
000000000FF00000003F80
000000000FE00000003F80
000000000FE00000003F80
000000007FFFFFFFFFFF80
0001FFFFFFFFFFFFFFFF80
001FFFFFFFFFFFFFFFFF80
00FFFFFFFFFFFFFFFFFF80
03FFFFFFFFFFFFFFFFFF80
07FFFFFFFFFFFFFFFFFF80
1FFFE0000FE00000000000
3FFC00000FE00000000000
3FE000000FE00000000000
7FC000000FE00000000000
7F8000000FF00000000000
FF0000001FF00000000000
FE0000001FF00000000000
FE0000001FF00000000000
FE0000001FF80000000000
FE0000003FF80000003000
FE0000003FFC0000007E00
FE0000007FFC000000FF00
FE000000FFFE000000FE00
FE000000FFFF000001FE00
FF000001FCFF800003FC00
7F800007F87FC0000FFC00
7FC0000FF87FE0001FF800
3FE0003FF03FFC00FFF000
3FFC03FFE01FFFFFFFE000
1FFFFFFFC00FFFFFFFC000
0FFFFFFF8007FFFFFF8000
07FFFFFE0001FFFFFF0000
01FFFFFC0000FFFFFC0000
007FFFE000001FFFF00000
000FFF00000003FF000000
ENDCHAR
STARTCHAR 00E7
ENCODING 231
SWIDTH 550 0
DWIDTH 52 0
BBX 45 74 4 -22
BITMAP
00003FF80000
0001FFFF8000
000FFFFFE000
001FFFFFF800
007FFFFFFC00
00FFFFFFFF00
01FFFFFFFF80
03FFC007FF80
07FF0000FFC0
0FFC00007FE0
0FF800003FF0
1FF000001FF0
1FE000000FF8
3FC0000007F8
3FC0000003F0
3F8000000300
7F8000000000
7F8000000000
7F0000000000
FF0000000000
FF0000000000
FF0000000000
FE0000000000
FE0000000000
FE0000000000
FE0000000000
FE0000000000
FE0000000000
FE0000000000
FE0000000000
FE0000000000
FF0000000000
FF0000000000
FF0000000000
7F0000000000
7F0000000000
7F8000000000
7F8000000200
3FC0000003C0
3FC0000007F8
1FE000000FF8
1FF000000FF0
0FF800001FF0
0FFC00007FE0
07FE0000FFC0
03FFC003FF80
01FFFFFFFF80
00FFFFFFFF00
007FFFFFFC00
003FFFFFF800
000FFFFFE000
0001FFFF8000
00003FFC0000
000007C00000
000007C00000
00000F800000
00000F800000
00000F800000
00001FE00000
00001FF00000
00001FF80000
000007F80000
000001FC0000
000000FC0000
0000007C0000
0000007C0000
0000007C0000
000000FC0000
000041FC0000
00007FF80000
0000FFF80000
0000FFF00000
0000FFE00000
00007FC00000
ENDCHAR
STARTCHAR 00E8
ENCODING 232
SWIDTH 582 0
DWIDTH 55 0
BBX 47 74 4 -1
BITMAP
0000FC000000
00007E000000
00007E000000
00007E000000
00003F000000
00003F000000
00003F000000
00001F800000
00001F800000
00000FC00000
00000FC00000
00000FC00000
000007E00000
000007E00000
000003F00000
000000000000
000000000000
000000000000
000000000000
000000000000
000000000000
00003FF80000
0001FFFF8000
0007FFFFE000
001FFFFFF800
007FFFFFFC00
00FFFFFFFE00
01FFFE3FFF00
03FF8001FF80
07FE00007FC0
07FC00003FE0
0FF800001FE0
1FF000000FF0
1FE0000007F0
3FC0000007F8
3FC0000003F8
3F80000003FC
7F80000001FC
7F00000001FC
7F00000001FC
FF00000000FE
FF00000000FE
FE00000000FE
FE00000000FE
FFFFFFFFFFFE
FFFFFFFFFFFE
FFFFFFFFFFFE
FFFFFFFFFFFE
FFFFFFFFFFFE
FFFFFFFFFFFE
FE0000000000
FE0000000000
FE0000000000
FF0000000000
FF0000000000
7F0000000000
7F0000000000
7F8000000000
7F8000000080
3FC0000001F0
3FC0000003FC
1FE0000007FC
1FF0000007F8
0FF800001FF8
0FFC00003FF0
07FF0000FFE0
03FFC003FFC0
01FFFFFFFF80
00FFFFFFFF00
007FFFFFFE00
001FFFFFF800
0007FFFFE000
0001FFFF8000
00001FFC0000
ENDCHAR
STARTCHAR 00E9
ENCODING 233
SWIDTH 582 0
DWIDTH 55 0
BBX 47 74 4 -1
BITMAP
0000001F8000
0000001F8000
0000001F0000
0000003F0000
0000003F0000
0000007E0000
0000007E0000
0000007E0000
000000FC0000
000000FC0000
000001F80000
000001F80000
000001F80000
000003F00000
000000000000
000000000000
000000000000
000000000000
000000000000
000000000000
000000000000
00003FF80000
0001FFFF8000
0007FFFFE000
001FFFFFF800
007FFFFFFC00
00FFFFFFFE00
01FFFE3FFF00
03FF8001FF80
07FE00007FC0
07FC00003FE0
0FF800001FE0
1FF000000FF0
1FE0000007F0
3FC0000007F8
3FC0000003F8
3F80000003FC
7F80000001FC
7F00000001FC
7F00000001FC
FF00000000FE
FF00000000FE
FE00000000FE
FE00000000FE
FFFFFFFFFFFE
FFFFFFFFFFFE
FFFFFFFFFFFE
FFFFFFFFFFFE
FFFFFFFFFFFE
FFFFFFFFFFFE
FE0000000000
FE0000000000
FE0000000000
FF0000000000
FF0000000000
7F0000000000
7F0000000000
7F8000000000
7F8000000080
3FC0000001F0
3FC0000003FC
1FE0000007FC
1FF0000007F8
0FF800001FF8
0FFC00003FF0
07FF0000FFE0
03FFC003FFC0
01FFFFFFFF80
00FFFFFFFF00
007FFFFFFE00
001FFFFFF800
0007FFFFE000
0001FFFF8000
00001FFC0000
ENDCHAR
STARTCHAR 00EA
ENCODING 234
SWIDTH 582 0
DWIDTH 55 0
BBX 47 72 4 -1
BITMAP
00000FF00000
00001FF00000
00001FF80000
00003FFC0000
00007FFE0000
0000FE7F0000
0001FC7F8000
0003F83F8000
0007F81FC000
0007F00FE000
000FE007F000
001FC003F800
003F8001FC00
000000000000
000000000000
000000000000
000000000000
000000000000
000000000000
00003FF80000
0001FFFF8000
0007FFFFE000
001FFFFFF800
007FFFFFFC00
00FFFFFFFE00
01FFFE3FFF00
03FF8001FF80
07FE00007FC0
07FC00003FE0
0FF800001FE0
1FF000000FF0
1FE0000007F0
3FC0000007F8
3FC0000003F8
3F80000003FC
7F80000001FC
7F00000001FC
7F00000001FC
FF00000000FE
FF00000000FE
FE00000000FE
FE00000000FE
FFFFFFFFFFFE
FFFFFFFFFFFE
FFFFFFFFFFFE
FFFFFFFFFFFE
FFFFFFFFFFFE
FFFFFFFFFFFE
FE0000000000
FE0000000000
FE0000000000
FF0000000000
FF0000000000
7F0000000000
7F0000000000
7F8000000000
7F8000000080
3FC0000001F0
3FC0000003FC
1FE0000007FC
1FF0000007F8
0FF800001FF8
0FFC00003FF0
07FF0000FFE0
03FFC003FFC0
01FFFFFFFF80
00FFFFFFFF00
007FFFFFFE00
001FFFFFF800
0007FFFFE000
0001FFFF8000
00001FFC0000
ENDCHAR
STARTCHAR 00EB
ENCODING 235
SWIDTH 582 0
DWIDTH 55 0
BBX 47 70 4 -1
BITMAP
001FE007F800
001FE007F800
001FE007F800
001FE007F800
001FE007F800
001FE007F800
001FE007F800
001FE007F800
000000000000
000000000000
000000000000
000000000000
000000000000
000000000000
000000000000
000000000000
000000000000
00003FF80000
0001FFFF8000
0007FFFFE000
001FFFFFF800
007FFFFFFC00
00FFFFFFFE00
01FFFE3FFF00
03FF8001FF80
07FE00007FC0
07FC00003FE0
0FF800001FE0
1FF000000FF0
1FE0000007F0
3FC0000007F8
3FC0000003F8
3F80000003FC
7F80000001FC
7F00000001FC
7F00000001FC
FF00000000FE
FF00000000FE
FE00000000FE
FE00000000FE
FFFFFFFFFFFE
FFFFFFFFFFFE
FFFFFFFFFFFE
FFFFFFFFFFFE
FFFFFFFFFFFE
FFFFFFFFFFFE
FE0000000000
FE0000000000
FE0000000000
FF0000000000
FF0000000000
7F0000000000
7F0000000000
7F8000000000
7F8000000080
3FC0000001F0
3FC0000003FC
1FE0000007FC
1FF0000007F8
0FF800001FF8
0FFC00003FF0
07FF0000FFE0
03FFC003FFC0
01FFFFFFFF80
00FFFFFFFF00
007FFFFFFE00
001FFFFFF800
0007FFFFE000
0001FFFF8000
00001FFC0000
ENDCHAR
STARTCHAR 00EC
ENCODING 236
SWIDTH 232 0
DWIDTH 22 0
BBX 12 74 2 0
BITMAP
FC00
7E00
7E00
7E00
3F00
3F00
1F80
1F80
1F80
0FC0
0FC0
07E0
07E0
07E0
03F0
0000
0000
0000
0000
0000
0000
0000
0000
03F0
03F0
03F0
03F0
03F0
03F0
03F0
03F0
03F0
03F0
03F0
03F0
03F0
03F0
03F0
03F0
03F0
03F0
03F0
03F0
03F0
03F0
03F0
03F0
03F0
03F0
03F0
03F0
03F0
03F0
03F0
03F0
03F0
03F0
03F0
03F0
03F0
03F0
03F0
03F0
03F0
03F0
03F0
03F0
03F0
03F0
03F0
03F0
03F0
03F0
03F0
ENDCHAR
STARTCHAR 00ED
ENCODING 237
SWIDTH 232 0
DWIDTH 22 0
BBX 12 74 8 0
BITMAP
03F0
07E0
07E0
07E0
0FC0
0FC0
1F80
1F80
1F80
3F00
3F00
7E00
7E00
7E00
FC00
0000
0000
0000
0000
0000
0000
0000
0000
FC00
FC00
FC00
FC00
FC00
FC00
FC00
FC00
FC00
FC00
FC00
FC00
FC00
FC00
FC00
FC00
FC00
FC00
FC00
FC00
FC00
FC00
FC00
FC00
FC00
FC00
FC00
FC00
FC00
FC00
FC00
FC00
FC00
FC00
FC00
FC00
FC00
FC00
FC00
FC00
FC00
FC00
FC00
FC00
FC00
FC00
FC00
FC00
FC00
FC00
FC00
ENDCHAR
STARTCHAR 00EE
ENCODING 238
SWIDTH 232 0
DWIDTH 22 0
BBX 27 72 -2 0
BITMAP
003F8000
007FC000
00FFC000
01FFE000
03FFF000
03FBF800
07F1FC00
0FE0FE00
1FC0FF00
3F807F00
7F003F80
FF001FC0
FE000FE0
00000000
00000000
00000000
00000000
00000000
00000000
00000000
00000000
003F0000
003F0000
003F0000
003F0000
003F0000
003F0000
003F0000
003F0000
003F0000
003F0000
003F0000
003F0000
003F0000
003F0000
003F0000
003F0000
003F0000
003F0000
003F0000
003F0000
003F0000
003F0000
003F0000
003F0000
003F0000
003F0000
003F0000
003F0000
003F0000
003F0000
003F0000
003F0000
003F0000
003F0000
003F0000
003F0000
003F0000
003F0000
003F0000
003F0000
003F0000
003F0000
003F0000
003F0000
003F0000
003F0000
003F0000
003F0000
003F0000
003F0000
003F0000
ENDCHAR
STARTCHAR 00EF
ENCODING 239
SWIDTH 232 0
DWIDTH 22 0
BBX 26 69 -2 0
BITMAP
FF003FC0
FF003FC0
FF003FC0
FF003FC0
FF003FC0
FF003FC0
FF003FC0
FF003FC0
00000000
00000000
00000000
00000000
00000000
00000000
00000000
00000000
00000000
00000000
003F0000
003F0000
003F0000
003F0000
003F0000
003F0000
003F0000
003F0000
003F0000
003F0000
003F0000
003F0000
003F0000
003F0000
003F0000
003F0000
003F0000
003F0000
003F0000
003F0000
003F0000
003F0000
003F0000
003F0000
003F0000
003F0000
003F0000
003F0000
003F0000
003F0000
003F0000
003F0000
003F0000
003F0000
003F0000
003F0000
003F0000
003F0000
003F0000
003F0000
003F0000
003F0000
003F0000
003F0000
003F0000
003F0000
003F0000
003F0000
003F0000
003F0000
003F0000
ENDCHAR
STARTCHAR 00F0
ENCODING 240
SWIDTH 582 0
DWIDTH 55 0
BBX 47 75 4 0
BITMAP
000000003000
000000007800
00000000FC00
00003801FE00
00003FC3FC00
00007FF3F800
00007FFFF000
00007FFFF000
00007FFFE000
00000FFFE000
000000FFF000
0000007FF800
000000FFFC00
000001FFFE00
000003FDFF00
000003F8FF00
000007F07F80
000003E03FC0
000001E01FC0
000000C00FE0
000000000FE0
0000000007F0
0000000003F0
0000000003F0
0000000003F8
0000FFFC01F8
0007FFFF81F8
001FFFFFE1F8
003FFFFFF8FC
00FFFFFFFCFC
01FFFFFFFEFC
03FFE00FFFFC
07FF0001FFFC
0FFC00007FFC
0FF800003FFE
1FF000001FFE
1FE000000FFE
3FC0000007FE
3F80000003FE
7F80000003FE
7F00000003FE
7F00000001FE
7F00000001FE
FF00000001FE
FE00000000FE
FE00000000FE
FE00000000FE
FE00000000FE
FE00000000FE
FE00000000FE
FE00000000FE
FE00000000FE
FE00000000FE
FE00000000FE
FE00000000FE
FE00000000FE
FF00000001FE
7F00000001FC
7F00000001FC
7F80000003FC
3F80000003F8
3FC0000007F8
3FC0000007F8
1FE000000FF0
1FF000001FF0
0FF800003FE0
07FE0000FFC0
03FF8003FF80
01FFFEFFFF80
00FFFFFFFF00
007FFFFFFC00
003FFFFFF800
000FFFFFE000
0003FFFF8000
00003FF80000
ENDCHAR
STARTCHAR 00F1
ENCODING 241
SWIDTH 592 0
DWIDTH 56 0
BBX 43 70 7 0
BITMAP
000400000000
003FC003E000
007FF003E000
00FFFC03E000
01FFFF03E000
01FFFFFFE000
01F87FFFE000
01F01FFFE000
01F007FFC000
01F001FF8000
0000007E0000
000000000000
000000000000
000000000000
000000000000
000000000000
000000000000
000000000000
00003FF00000
FC03FFFE0000
FC0FFFFF8000
FC1FFFFFE000
FC7FFFFFF000
FCFFFFFFF800
FDFFFFFFFC00
FFFF001FFE00
FFFC0007FE00
FFF00001FF00
FFE00000FF80
FFC00000FF80
FFC000007F80
FF8000003FC0
FF8000003FC0
FF0000001FC0
FF0000001FE0
FE0000001FE0
FE0000000FE0
FE0000000FE0
FE0000000FE0
FE0000000FE0
FE0000000FE0
FE0000000FE0
FE0000000FE0
FE0000000FE0
FE0000000FE0
FE0000000FE0
FE0000000FE0
FE0000000FE0
FE0000000FE0
FE0000000FE0
FE0000000FE0
FE0000000FE0
FE0000000FE0
FE0000000FE0
FE0000000FE0
FE0000000FE0
FE0000000FE0
FE0000000FE0
FE0000000FE0
FE0000000FE0
FE0000000FE0
FE0000000FE0
FE0000000FE0
FE0000000FE0
FE0000000FE0
FE0000000FE0
FE0000000FE0
FE0000000FE0
FE0000000FE0
FE0000000FE0
ENDCHAR
STARTCHAR 00F2
ENCODING 242
SWIDTH 592 0
DWIDTH 56 0
BBX 48 74 4 -1
BITMAP
0001F8000000
0001F8000000
0000FC000000
0000FC000000
00007E000000
00007E000000
00007E000000
00003F000000
00003F000000
00001F800000
00001F800000
00001F800000
00000FC00000
00000FC00000
00000FC00000
000000000000
000000000000
000000000000
000000000000
000000000000
000000000000
00003FF80000
0001FFFF8000
000FFFFFE000
001FFFFFF800
007FFFFFFE00
00FFFFFFFF00
01FFFFFFFF80
03FFC003FFC0
07FF0000FFE0
0FFC00003FE0
0FF800001FF0
1FF000000FF8
1FE0000007F8
3FC0000003FC
3FC0000003FC
7F80000001FC
7F80000001FE
7F00000001FE
7F00000000FE
FF00000000FE
FF00000000FF
FF00000000FF
FE00000000FF
FE000000007F
FE000000007F
FE000000007F
FE000000007F
FE000000007F
FE000000007F
FE000000007F
FE00000000FF
FE00000000FF
FF00000000FF
FF00000000FE
7F00000000FE
7F00000001FE
7F80000001FE
7F80000001FC
3FC0000003FC
3FC0000007FC
1FE0000007F8
1FF000000FF8
0FF800001FF0
07FC00003FE0
07FF0000FFE0
03FFC003FFC0
01FFFFFFFF80
00FFFFFFFF00
007FFFFFFE00
001FFFFFF800
000FFFFFE000
0001FFFF8000
00003FF80000
ENDCHAR
STARTCHAR 00F3
ENCODING 243
SWIDTH 592 0
DWIDTH 56 0
BBX 48 74 4 -1
BITMAP
0000003F0000
0000003F0000
0000007E0000
0000007E0000
0000007E0000
000000FC0000
000000FC0000
000000FC0000
000001F80000
000001F80000
000003F00000
000003F00000
000003F00000
000007E00000
000000000000
000000000000
000000000000
000000000000
000000000000
000000000000
000000000000
00003FF80000
0001FFFF8000
000FFFFFE000
001FFFFFF800
007FFFFFFE00
00FFFFFFFF00
01FFFFFFFF80
03FFC003FFC0
07FF0000FFE0
0FFC00003FE0
0FF800001FF0
1FF000000FF8
1FE0000007F8
3FC0000003FC
3FC0000003FC
7F80000001FC
7F80000001FE
7F00000001FE
7F00000000FE
FF00000000FE
FF00000000FF
FF00000000FF
FE00000000FF
FE000000007F
FE000000007F
FE000000007F
FE000000007F
FE000000007F
FE000000007F
FE000000007F
FE00000000FF
FE00000000FF
FF00000000FF
FF00000000FE
7F00000000FE
7F00000001FE
7F80000001FE
7F80000001FC
3FC0000003FC
3FC0000007FC
1FE0000007F8
1FF000000FF8
0FF800001FF0
07FC00003FE0
07FF0000FFE0
03FFC003FFC0
01FFFFFFFF80
00FFFFFFFF00
007FFFFFFE00
001FFFFFF800
000FFFFFE000
0001FFFF8000
00003FF80000
ENDCHAR
STARTCHAR 00F4
ENCODING 244
SWIDTH 592 0
DWIDTH 56 0
BBX 48 72 4 -1
BITMAP
00000FF00000
00001FF00000
00001FF80000
00003FFC0000
00007FFE0000
0000FE7F0000
0001FC3F8000
0003F83F8000
0007F81FC000
0007F00FE000
000FE007F000
001FC003F800
003F8001FC00
000000000000
000000000000
000000000000
000000000000
000000000000
000000000000
00003FF80000
0001FFFF8000
000FFFFFE000
001FFFFFF800
007FFFFFFE00
00FFFFFFFF00
01FFFFFFFF80
03FFC003FFC0
07FF0000FFE0
0FFC00003FE0
0FF800001FF0
1FF000000FF8
1FE0000007F8
3FC0000003FC
3FC0000003FC
7F80000001FC
7F80000001FE
7F00000001FE
7F00000000FE
FF00000000FE
FF00000000FF
FF00000000FF
FE00000000FF
FE000000007F
FE000000007F
FE000000007F
FE000000007F
FE000000007F
FE000000007F
FE000000007F
FE00000000FF
FE00000000FF
FF00000000FF
FF00000000FE
7F00000000FE
7F00000001FE
7F80000001FE
7F80000001FC
3FC0000003FC
3FC0000007FC
1FE0000007F8
1FF000000FF8
0FF800001FF0
07FC00003FE0
07FF0000FFE0
03FFC003FFC0
01FFFFFFFF80
00FFFFFFFF00
007FFFFFFE00
001FFFFFF800
000FFFFFE000
0001FFFF8000
00003FF80000
ENDCHAR
STARTCHAR 00F5
ENCODING 245
SWIDTH 592 0
DWIDTH 56 0
BBX 48 71 4 -1
BITMAP
000080000000
0007F8007C00
001FFE007C00
001FFF807C00
003FFFE07C00
003FFFF8FC00
003F1FFFFC00
003E07FFFC00
003E01FFF800
003E007FF000
003E001FE000
000000038000
000000000000
000000000000
000000000000
000000000000
000000000000
000000000000
00003FF80000
0001FFFF8000
000FFFFFE000
001FFFFFF800
007FFFFFFE00
00FFFFFFFF00
01FFFFFFFF80
03FFC003FFC0
07FF0000FFE0
0FFC00003FE0
0FF800001FF0
1FF000000FF8
1FE0000007F8
3FC0000003FC
3FC0000003FC
7F80000001FC
7F80000001FE
7F00000001FE
7F00000000FE
FF00000000FE
FF00000000FF
FF00000000FF
FE00000000FF
FE000000007F
FE000000007F
FE000000007F
FE000000007F
FE000000007F
FE000000007F
FE000000007F
FE00000000FF
FE00000000FF
FF00000000FF
FF00000000FE
7F00000000FE
7F00000001FE
7F80000001FE
7F80000001FC
3FC0000003FC
3FC0000007FC
1FE0000007F8
1FF000000FF8
0FF800001FF0
07FC00003FE0
07FF0000FFE0
03FFC003FFC0
01FFFFFFFF80
00FFFFFFFF00
007FFFFFFE00
001FFFFFF800
000FFFFFE000
0001FFFF8000
00003FF80000
ENDCHAR
STARTCHAR 00F6
ENCODING 246
SWIDTH 592 0
DWIDTH 56 0
BBX 48 70 4 -1
BITMAP
001FE007F800
001FE007F800
001FE007F800
001FE007F800
001FE007F800
001FE007F800
001FE007F800
001FE007F800
000000000000
000000000000
000000000000
000000000000
000000000000
000000000000
000000000000
000000000000
000000000000
00003FF80000
0001FFFF8000
000FFFFFE000
001FFFFFF800
007FFFFFFE00
00FFFFFFFF00
01FFFFFFFF80
03FFC003FFC0
07FF0000FFE0
0FFC00003FE0
0FF800001FF0
1FF000000FF8
1FE0000007F8
3FC0000003FC
3FC0000003FC
7F80000001FC
7F80000001FE
7F00000001FE
7F00000000FE
FF00000000FE
FF00000000FF
FF00000000FF
FE00000000FF
FE000000007F
FE000000007F
FE000000007F
FE000000007F
FE000000007F
FE000000007F
FE000000007F
FE00000000FF
FE00000000FF
FF00000000FF
FF00000000FE
7F00000000FE
7F00000001FE
7F80000001FE
7F80000001FC
3FC0000003FC
3FC0000007FC
1FE0000007F8
1FF000000FF8
0FF800001FF0
07FC00003FE0
07FF0000FFE0
03FFC003FFC0
01FFFFFFFF80
00FFFFFFFF00
007FFFFFFE00
001FFFFFF800
000FFFFFE000
0001FFFF8000
00003FF80000
ENDCHAR
STARTCHAR 00F7
ENCODING 247
SWIDTH 540 0
DWIDTH 51 0
BBX 39 34 6 17
BITMAP
0000FF0000
0000FF0000
0000FF0000
0000FF0000
0000FF0000
0000FF0000
0000FF0000
0000FF0000
0000000000
0000000000
0000000000
0000000000
0000000000
0000000000
FFFFFFFFFE
FFFFFFFFFE
FFFFFFFFFE
FFFFFFFFFE
FFFFFFFFFE
FFFFFFFFFE
0000000000
0000000000
0000000000
0000000000
0000000000
0000000000
0000FF0000
0000FF0000
0000FF0000
0000FF0000
0000FF0000
0000FF0000
0000FF0000
0000FF0000
ENDCHAR
STARTCHAR 00F8
ENCODING 248
SWIDTH 592 0
DWIDTH 56 0
BBX 52 53 2 -1
BITMAP
000007FE000000
00007FFFE00100
0001FFFFF80380
0007FFFFFE07C0
001FFFFFFF0FE0
003FFFFFFFDFF0
007FFFFFFFFFE0
00FFF000FFFFC0
01FFC0003FFF80
03FF00000FFF00
03FE000007FE00
07FC000007FE00
07F800000FFE00
0FF000001FFF00
0FF000003FFF00
1FE000007FFF00
1FE00000FF7F80
1FC00001FE7F80
1FC00003FC3F80
3FC00007F83F80
3FC0000FF03FC0
3F80001FE03FC0
3F80003FC03FC0
3F80007F801FC0
3F8000FF001FC0
3F8001FE001FC0
3F8003FC001FC0
3F8007F8001FC0
3F800FF0001FC0
3F801FE0001FC0
3F803FC0003FC0
3F807F80003FC0
3FC0FF00003FC0
3FC1FE00003F80
1FC3FC00003F80
1FE7F800007F80
1FEFF000007F80
1FFFE000007F00
0FFFC00000FF00
0FFF800001FF00
07FF000001FE00
07FE000003FE00
07FE000007FC00
0FFF00000FF800
1FFFC0003FF800
3FFFF000FFF000
7FFFFFFFFFE000
FFBFFFFFFFC000
7F1FFFFFFF8000
3E07FFFFFE0000
1C01FFFFF80000
08007FFFE00000
00000FFE000000
ENDCHAR
STARTCHAR 00F9
ENCODING 249
SWIDTH 592 0
DWIDTH 56 0
BBX 43 75 6 -1
BITMAP
0003F0000000
0003F0000000
0001F8000000
0001F8000000
0001F8000000
0000FC000000
0000FC000000
00007E000000
00007E000000
00007E000000
00003F000000
00003F000000
00003F000000
00001F800000
00001F800000
000000000000
000000000000
000000000000
000000000000
000000000000
000000000000
000000000000
000000000000
FE00000007E0
FE00000007E0
FE00000007E0
FE00000007E0
FE00000007E0
FE00000007E0
FE00000007E0
FE00000007E0
FE00000007E0
FE00000007E0
FE00000007E0
FE00000007E0
FE00000007E0
FE00000007E0
FE00000007E0
FE00000007E0
FE00000007E0
FE00000007E0
FE00000007E0
FE00000007E0
FE00000007E0
FE00000007E0
FE00000007E0
FE00000007E0
FE00000007E0
FE00000007E0
FE00000007E0
FE00000007E0
FE0000000FE0
FE0000000FE0
FE0000000FE0
FE0000000FE0
FE0000000FE0
FE0000000FE0
FF0000000FE0
FF0000001FE0
7F0000001FE0
7F8000001FE0
7F8000003FE0
3FC000007FE0
3FC000007FE0
1FE00000FFE0
1FF00001FFE0
0FFC0007FFE0
0FFF001FFFE0
07FFFFFFF7E0
03FFFFFFE7E0
01FFFFFFC7E0
00FFFFFF07E0
003FFFFE07E0
000FFFF807E0
0001FF800000
ENDCHAR
STARTCHAR 00FA
ENCODING 250
SWIDTH 592 0
DWIDTH 56 0
BBX 43 75 6 -1
BITMAP
000000FC0000
000000F80000
000001F80000
000001F80000
000003F00000
000003F00000
000003F00000
000007E00000
000007E00000
00000FC00000
00000FC00000
00000FC00000
00001F800000
00001F800000
00003F000000
000000000000
000000000000
000000000000
000000000000
000000000000
000000000000
000000000000
000000000000
FE00000007E0
FE00000007E0
FE00000007E0
FE00000007E0
FE00000007E0
FE00000007E0
FE00000007E0
FE00000007E0
FE00000007E0
FE00000007E0
FE00000007E0
FE00000007E0
FE00000007E0
FE00000007E0
FE00000007E0
FE00000007E0
FE00000007E0
FE00000007E0
FE00000007E0
FE00000007E0
FE00000007E0
FE00000007E0
FE00000007E0
FE00000007E0
FE00000007E0
FE00000007E0
FE00000007E0
FE00000007E0
FE0000000FE0
FE0000000FE0
FE0000000FE0
FE0000000FE0
FE0000000FE0
FE0000000FE0
FF0000000FE0
FF0000001FE0
7F0000001FE0
7F8000001FE0
7F8000003FE0
3FC000007FE0
3FC000007FE0
1FE00000FFE0
1FF00001FFE0
0FFC0007FFE0
0FFF001FFFE0
07FFFFFFF7E0
03FFFFFFE7E0
01FFFFFFC7E0
00FFFFFF07E0
003FFFFE07E0
000FFFF807E0
0001FF800000
ENDCHAR
STARTCHAR 00FB
ENCODING 251
SWIDTH 592 0
DWIDTH 56 0
BBX 43 73 6 -1
BITMAP
00003F800000
00007FC00000
0000FFE00000
0001FFE00000
0001FFF00000
0003FBF80000
0007F1FC0000
000FE0FE0000
001FC07F0000
003F807F8000
003F803F8000
007F001FC000
00FE000FE000
000000000000
000000000000
000000000000
000000000000
000000000000
000000000000
000000000000
000000000000
FE00000007E0
FE00000007E0
FE00000007E0
FE00000007E0
FE00000007E0
FE00000007E0
FE00000007E0
FE00000007E0
FE00000007E0
FE00000007E0
FE00000007E0
FE00000007E0
FE00000007E0
FE00000007E0
FE00000007E0
FE00000007E0
FE00000007E0
FE00000007E0
FE00000007E0
FE00000007E0
FE00000007E0
FE00000007E0
FE00000007E0
FE00000007E0
FE00000007E0
FE00000007E0
FE00000007E0
FE00000007E0
FE0000000FE0
FE0000000FE0
FE0000000FE0
FE0000000FE0
FE0000000FE0
FE0000000FE0
FF0000000FE0
FF0000001FE0
7F0000001FE0
7F8000001FE0
7F8000003FE0
3FC000007FE0
3FC000007FE0
1FE00000FFE0
1FF00001FFE0
0FFC0007FFE0
0FFF001FFFE0
07FFFFFFF7E0
03FFFFFFE7E0
01FFFFFFC7E0
00FFFFFF07E0
003FFFFE07E0
000FFFF807E0
0001FF800000
ENDCHAR
STARTCHAR 00FC
ENCODING 252
SWIDTH 592 0
DWIDTH 56 0
BBX 43 70 6 -1
BITMAP
007F001FC000
007F001FC000
007F001FC000
007F001FC000
007F001FC000
007F001FC000
007F001FC000
007F001FC000
000000000000
000000000000
000000000000
000000000000
000000000000
000000000000
000000000000
000000000000
000000000000
000000000000
FE00000007E0
FE00000007E0
FE00000007E0
FE00000007E0
FE00000007E0
FE00000007E0
FE00000007E0
FE00000007E0
FE00000007E0
FE00000007E0
FE00000007E0
FE00000007E0
FE00000007E0
FE00000007E0
FE00000007E0
FE00000007E0
FE00000007E0
FE00000007E0
FE00000007E0
FE00000007E0
FE00000007E0
FE00000007E0
FE00000007E0
FE00000007E0
FE00000007E0
FE00000007E0
FE00000007E0
FE00000007E0
FE0000000FE0
FE0000000FE0
FE0000000FE0
FE0000000FE0
FE0000000FE0
FE0000000FE0
FF0000000FE0
FF0000001FE0
7F0000001FE0
7F8000001FE0
7F8000003FE0
3FC000007FE0
3FC000007FE0
1FE00000FFE0
1FF00001FFE0
0FFC0007FFE0
0FFF001FFFE0
07FFFFFFF7E0
03FFFFFFE7E0
01FFFFFFC7E0
00FFFFFF07E0
003FFFFE07E0
000FFFF807E0
0001FF800000
ENDCHAR
STARTCHAR 00FD
ENCODING 253
SWIDTH 529 0
DWIDTH 50 0
BBX 46 97 2 -23
BITMAP
0000003E0000
0000007E0000
0000007E0000
000000FC0000
000000FC0000
000000FC0000
000001F80000
000001F80000
000003F00000
000003F00000
000003F00000
000007E00000
000007E00000
00000FC00000
00000FC00000
000000000000
000000000000
000000000000
000000000000
000000000000
000000000000
000000000000
000000000000
FE00000001FC
FF00000001FC
7F00000003F8
7F00000003F8
7F80000007F8
3F80000007F0
3FC0000007F0
1FC000000FE0
1FC000000FE0
1FE000000FE0
0FE000001FC0
0FF000001FC0
07F000001FC0
07F000003F80
07F800003F80
03F800007F00
03FC00007F00
01FC00007F00
01FC0000FE00
01FE0000FE00
00FE0000FE00
00FF0001FC00
007F0001FC00
007F0003F800
003F8003F800
003F8003F800
003FC007F000
001FC007F000
001FC007F000
000FE00FE000
000FE00FE000
000FF00FE000
0007F01FC000
0007F01FC000
0003F83F8000
0003F83F8000
0003FC3F8000
0001FC7F0000
0001FC7F0000
0000FE7F0000
0000FEFE0000
0000FFFE0000
00007FFC0000
00007FFC0000
00003FFC0000
00003FF80000
00003FF80000
00001FF80000
00001FF00000
00000FF00000
00000FE00000
00000FE00000
00000FE00000
00001FC00000
00001FC00000
00001FC00000
00003F800000
00003F800000
00007F000000
00007F000000
00007F000000
0000FE000000
0000FE000000
0000FE000000
0001FC000000
0001FC000000
0001F8000000
0003F8000000
0003F8000000
0007F0000000
0007F0000000
0007F0000000
000FE0000000
000FE0000000
ENDCHAR
STARTCHAR 00FE
ENCODING 254
SWIDTH 592 0
DWIDTH 56 0
BBX 45 90 7 -22
BITMAP
FE0000000000
FE0000000000
FE0000000000
FE0000000000
FE0000000000
FE0000000000
FE0000000000
FE0000000000
FE0000000000
FE0000000000
FE0000000000
FE0000000000
FE0000000000
FE0000000000
FE0000000000
FE0000000000
FE003FF00000
FE03FFFE0000
FE0FFFFF8000
FE1FFFFFE000
FE7FFFFFF000
FEFFFFFFF800
FFFFFFFFFC00
FFFF001FFE00
FFFC0003FF00
FFF00001FF80
FFE00000FF80
FFC000007FC0
FF8000003FC0
FF8000001FE0
FF0000001FE0
FF0000000FE0
FE0000000FF0
FE0000000FF0
FE00000007F0
FC00000007F0
FC00000007F8
FC00000007F8
FC00000003F8
FC00000003F8
FC00000003F8
FC00000003F8
FC00000003F8
FC00000003F8
FC00000003F8
FC00000003F8
FC00000003F8
FC00000007F8
FC00000007F8
FE00000007F0
FE00000007F0
FE0000000FF0
FE0000000FF0
FF0000000FE0
FF0000001FE0
FF8000001FE0
FF8000003FC0
FFC000007FC0
FFE00000FF80
FFF00001FF80
FFFC0003FF00
FFFF000FFE00
FFFFFBFFFC00
FEFFFFFFF800
FE7FFFFFF000
FE1FFFFFE000
FE0FFFFF8000
FE03FFFE0000
FE003FE00000
FE0000000000
FE0000000000
FE0000000000
FE0000000000
FE0000000000
FE0000000000
FE0000000000
FE0000000000
FE0000000000
FE0000000000
FE0000000000
FE0000000000
FE0000000000
FE0000000000
FE0000000000
FE0000000000
FE0000000000
FE0000000000
FE0000000000
FE0000000000
FE0000000000
ENDCHAR
STARTCHAR 00FF
ENCODING 255
SWIDTH 529 0
DWIDTH 50 0
BBX 46 92 2 -23
BITMAP
001FC007F000
001FC007F000
001FC007F000
001FC007F000
001FC007F000
001FC007F000
001FC007F000
001FC007F000
000000000000
000000000000
000000000000
000000000000
000000000000
000000000000
000000000000
000000000000
000000000000
000000000000
FE00000001FC
FF00000001FC
7F00000003F8
7F00000003F8
7F80000007F8
3F80000007F0
3FC0000007F0
1FC000000FE0
1FC000000FE0
1FE000000FE0
0FE000001FC0
0FF000001FC0
07F000001FC0
07F000003F80
07F800003F80
03F800007F00
03FC00007F00
01FC00007F00
01FC0000FE00
01FE0000FE00
00FE0000FE00
00FF0001FC00
007F0001FC00
007F0003F800
003F8003F800
003F8003F800
003FC007F000
001FC007F000
001FC007F000
000FE00FE000
000FE00FE000
000FF00FE000
0007F01FC000
0007F01FC000
0003F83F8000
0003F83F8000
0003FC3F8000
0001FC7F0000
0001FC7F0000
0000FE7F0000
0000FEFE0000
0000FFFE0000
00007FFC0000
00007FFC0000
00003FFC0000
00003FF80000
00003FF80000
00001FF80000
00001FF00000
00000FF00000
00000FE00000
00000FE00000
00000FE00000
00001FC00000
00001FC00000
00001FC00000
00003F800000
00003F800000
00007F000000
00007F000000
00007F000000
0000FE000000
0000FE000000
0000FE000000
0001FC000000
0001FC000000
0001F8000000
0003F8000000
0003F8000000
0007F0000000
0007F0000000
0007F0000000
000FE0000000
000FE0000000
ENDCHAR
ENDFONT
